# This file uses centimeters as units for non-parametric coordinates.

mtllib Atlas_Mur_LD_v02.mtl
g default
v -5.817386 0.000000 2.374183
v 5.817386 0.000000 2.374183
v -5.817386 23.130168 2.374183
v 5.817386 23.130168 2.374183
v -5.817386 23.130168 1.391479
v 5.817386 23.130168 1.391479
v -5.817386 0.000000 1.391479
v 5.817386 0.000000 1.391479
vt 1.017130 0.164206
vt 1.129833 0.164095
vt 1.017130 0.013583
vt 1.129833 0.013472
vt 1.124097 0.379007
vt 1.126857 0.017488
vt 1.019925 0.160189
vt 1.126857 0.160189
vt 1.011559 0.379034
vt 1.011544 0.181497
vt 1.019925 0.017488
vt 1.124083 0.181471
vt 0.947420 0.016401
vt 0.947420 0.496192
vt 0.696415 0.016401
vt 0.696415 0.496192
vn 0.000000 0.000000 1.000000
vn 0.000000 0.000000 1.000000
vn 0.000000 0.000000 1.000000
vn 0.000000 0.000000 1.000000
vn 0.000000 1.000000 0.000000
vn 0.000000 1.000000 0.000000
vn 0.000000 1.000000 0.000000
vn 0.000000 1.000000 0.000000
vn 0.000000 0.000000 -1.000000
vn 0.000000 0.000000 -1.000000
vn 0.000000 0.000000 -1.000000
vn 0.000000 0.000000 -1.000000
vn 0.000000 -1.000000 0.000000
vn 0.000000 -1.000000 0.000000
vn 0.000000 -1.000000 0.000000
vn 0.000000 -1.000000 0.000000
vn 1.000000 0.000000 0.000000
vn 1.000000 0.000000 0.000000
vn 1.000000 0.000000 0.000000
vn 1.000000 0.000000 0.000000
vn -1.000000 0.000000 0.000000
vn -1.000000 0.000000 0.000000
vn -1.000000 0.000000 0.000000
vn -1.000000 0.000000 0.000000
s off
g Mur_LD_01
usemtl initialShadingGroup
f 1/15/1 2/13/2 4/14/3 3/16/4
f 3/3/5 4/4/6 6/6/7 5/11/8
f 5/5/9 6/9/10 8/10/11 7/12/12
f 7/7/13 8/8/14 2/2/15 1/1/16
f 2/2/17 8/8/18 6/6/19 4/4/20
f 7/7/21 1/1/22 3/3/23 5/11/24
g default
v 8.764265 0.000000 2.374183
v 20.399038 0.000000 2.374183
v 8.764265 23.130168 2.374183
v 20.399038 23.130168 2.374183
v 8.764265 23.130168 1.391479
v 20.399038 23.130168 1.391479
v 8.764265 0.000000 1.391479
v 20.399038 0.000000 1.391479
vt 1.017130 0.164206
vt 1.129833 0.164095
vt 1.017130 0.013583
vt 1.129833 0.013472
vt 1.124097 0.379007
vt 1.126857 0.017488
vt 1.019925 0.160189
vt 1.126857 0.160189
vt 1.011559 0.379034
vt 1.011544 0.181497
vt 1.019925 0.017488
vt 1.124083 0.181471
vt 0.945268 0.507027
vt 0.945268 0.986818
vt 0.694263 0.507027
vt 0.694263 0.986818
vn 0.000000 0.000000 1.000000
vn 0.000000 0.000000 1.000000
vn 0.000000 0.000000 1.000000
vn 0.000000 0.000000 1.000000
vn 0.000000 1.000000 0.000000
vn 0.000000 1.000000 0.000000
vn 0.000000 1.000000 0.000000
vn 0.000000 1.000000 0.000000
vn 0.000000 0.000000 -1.000000
vn 0.000000 0.000000 -1.000000
vn 0.000000 0.000000 -1.000000
vn 0.000000 0.000000 -1.000000
vn 0.000000 -1.000000 0.000000
vn 0.000000 -1.000000 0.000000
vn 0.000000 -1.000000 0.000000
vn 0.000000 -1.000000 0.000000
vn 1.000000 0.000000 0.000000
vn 1.000000 0.000000 0.000000
vn 1.000000 0.000000 0.000000
vn 1.000000 0.000000 0.000000
vn -1.000000 0.000000 0.000000
vn -1.000000 0.000000 0.000000
vn -1.000000 0.000000 0.000000
vn -1.000000 0.000000 0.000000
s off
g Mur_LD_02
usemtl initialShadingGroup
f 9/31/25 10/29/26 12/30/27 11/32/28
f 11/19/29 12/20/30 14/22/31 13/27/32
f 13/21/33 14/25/34 16/26/35 15/28/36
f 15/23/37 16/24/38 10/18/39 9/17/40
f 10/18/41 16/24/42 14/22/43 12/20/44
f 15/23/45 9/17/46 11/19/47 13/27/48
g default
v 23.270178 0.000000 2.374183
v 34.904951 0.000000 2.374183
v 23.270178 23.130168 2.374183
v 34.904951 23.130168 2.374183
v 23.270178 23.130168 1.391479
v 34.904951 23.130168 1.391479
v 23.270178 0.000000 1.391479
v 34.904951 0.000000 1.391479
vt 1.017130 0.164206
vt 1.129833 0.164095
vt 1.017130 0.013583
vt 1.129833 0.013472
vt 1.124097 0.379007
vt 1.126857 0.017488
vt 1.019925 0.160189
vt 1.126857 0.160189
vt 1.011559 0.379034
vt 1.011544 0.181497
vt 1.019925 0.017488
vt 1.124083 0.181471
vt 0.285191 0.016401
vt 0.285191 0.496192
vt 0.034186 0.016401
vt 0.034186 0.496192
vn 0.000000 0.000000 1.000000
vn 0.000000 0.000000 1.000000
vn 0.000000 0.000000 1.000000
vn 0.000000 0.000000 1.000000
vn 0.000000 1.000000 0.000000
vn 0.000000 1.000000 0.000000
vn 0.000000 1.000000 0.000000
vn 0.000000 1.000000 0.000000
vn 0.000000 0.000000 -1.000000
vn 0.000000 0.000000 -1.000000
vn 0.000000 0.000000 -1.000000
vn 0.000000 0.000000 -1.000000
vn 0.000000 -1.000000 0.000000
vn 0.000000 -1.000000 0.000000
vn 0.000000 -1.000000 0.000000
vn 0.000000 -1.000000 0.000000
vn 1.000000 0.000000 0.000000
vn 1.000000 0.000000 0.000000
vn 1.000000 0.000000 0.000000
vn 1.000000 0.000000 0.000000
vn -1.000000 0.000000 0.000000
vn -1.000000 0.000000 0.000000
vn -1.000000 0.000000 0.000000
vn -1.000000 0.000000 0.000000
s off
g Mur_LD_03
usemtl initialShadingGroup
f 17/47/49 18/45/50 20/46/51 19/48/52
f 19/35/53 20/36/54 22/38/55 21/43/56
f 21/37/57 22/41/58 24/42/59 23/44/60
f 23/39/61 24/40/62 18/34/63 17/33/64
f 18/34/65 24/40/66 22/38/67 20/36/68
f 23/39/69 17/33/70 19/35/71 21/43/72
g default
v 37.514972 0.000000 2.374183
v 49.149745 0.000000 2.374183
v 37.514972 23.130168 2.374183
v 49.149745 23.130168 2.374183
v 37.514972 23.130168 1.391479
v 49.149745 23.130168 1.391479
v 37.514972 0.000000 1.391479
v 49.149745 0.000000 1.391479
vt 1.017130 0.164206
vt 1.129833 0.164095
vt 1.017130 0.013583
vt 1.129833 0.013472
vt 1.124097 0.379007
vt 1.126857 0.017488
vt 1.019925 0.160189
vt 1.126857 0.160189
vt 1.011559 0.379034
vt 1.011544 0.181497
vt 1.019925 0.017488
vt 1.124083 0.181471
vt 0.627252 0.509179
vt 0.627252 0.988970
vt 0.376247 0.509179
vt 0.376247 0.988970
vn 0.000000 0.000000 1.000000
vn 0.000000 0.000000 1.000000
vn 0.000000 0.000000 1.000000
vn 0.000000 0.000000 1.000000
vn 0.000000 1.000000 0.000000
vn 0.000000 1.000000 0.000000
vn 0.000000 1.000000 0.000000
vn 0.000000 1.000000 0.000000
vn 0.000000 0.000000 -1.000000
vn 0.000000 0.000000 -1.000000
vn 0.000000 0.000000 -1.000000
vn 0.000000 0.000000 -1.000000
vn 0.000000 -1.000000 0.000000
vn 0.000000 -1.000000 0.000000
vn 0.000000 -1.000000 0.000000
vn 0.000000 -1.000000 0.000000
vn 1.000000 0.000000 0.000000
vn 1.000000 0.000000 0.000000
vn 1.000000 0.000000 0.000000
vn 1.000000 0.000000 0.000000
vn -1.000000 0.000000 0.000000
vn -1.000000 0.000000 0.000000
vn -1.000000 0.000000 0.000000
vn -1.000000 0.000000 0.000000
s off
g Mur_LD_04
usemtl initialShadingGroup
f 25/63/73 26/61/74 28/62/75 27/64/76
f 27/51/77 28/52/78 30/54/79 29/59/80
f 29/53/81 30/57/82 32/58/83 31/60/84
f 31/55/85 32/56/86 26/50/87 25/49/88
f 26/50/89 32/56/90 30/54/91 28/52/92
f 31/55/93 25/49/94 27/51/95 29/59/96
g default
v -20.415102 0.000000 2.923400
v -8.372236 0.000000 2.923400
v -20.415102 23.941466 2.923400
v -8.372236 23.941466 2.923400
v -20.415102 23.941466 1.648034
v -8.372236 23.941466 1.648034
v -20.415102 0.000000 1.648034
v -8.372236 0.000000 1.648034
vt 1.017130 0.164206
vt 1.129833 0.164095
vt 1.017130 0.013583
vt 1.129833 0.013472
vt 1.124097 0.379007
vt 1.126857 0.017488
vt 1.019925 0.160189
vt 1.126857 0.160189
vt 1.011559 0.379034
vt 1.011544 0.181497
vt 1.019925 0.017488
vt 1.124083 0.181471
vt 0.285191 0.504875
vt 0.285191 0.984666
vt 0.034186 0.504875
vt 0.034186 0.984666
vn 0.000000 0.000000 1.000000
vn 0.000000 0.000000 1.000000
vn 0.000000 0.000000 1.000000
vn 0.000000 0.000000 1.000000
vn 0.000000 1.000000 0.000000
vn 0.000000 1.000000 0.000000
vn 0.000000 1.000000 0.000000
vn 0.000000 1.000000 0.000000
vn 0.000000 0.000000 -1.000000
vn 0.000000 0.000000 -1.000000
vn 0.000000 0.000000 -1.000000
vn 0.000000 0.000000 -1.000000
vn 0.000000 -1.000000 0.000000
vn 0.000000 -1.000000 0.000000
vn 0.000000 -1.000000 0.000000
vn 0.000000 -1.000000 0.000000
vn 1.000000 0.000000 0.000000
vn 1.000000 0.000000 0.000000
vn 1.000000 0.000000 0.000000
vn 1.000000 0.000000 0.000000
vn -1.000000 0.000000 0.000000
vn -1.000000 0.000000 0.000000
vn -1.000000 0.000000 0.000000
vn -1.000000 0.000000 0.000000
s off
g Mur_LD_05
usemtl initialShadingGroup
f 33/79/97 34/77/98 36/78/99 35/80/100
f 35/67/101 36/68/102 38/70/103 37/75/104
f 37/69/105 38/73/106 40/74/107 39/76/108
f 39/71/109 40/72/110 34/66/111 33/65/112
f 34/66/113 40/72/114 38/70/115 36/68/116
f 39/71/117 33/65/118 35/67/119 37/75/120
g default
v -34.543264 0.000000 3.415278
v -22.395907 0.000000 3.415278
v -34.543264 23.623200 3.415278
v -22.395907 23.623200 3.415278
v -34.543264 23.623200 0.350383
v -22.395907 23.623200 0.350383
v -34.543264 0.000000 0.350383
v -22.395907 0.000000 0.350383
vt 1.017130 0.164206
vt 1.129833 0.164095
vt 1.017130 0.013583
vt 1.129833 0.013472
vt 1.124097 0.379007
vt 1.126857 0.017488
vt 1.019925 0.160189
vt 1.126857 0.160189
vt 1.011559 0.379034
vt 1.011544 0.181497
vt 1.019925 0.017488
vt 1.124083 0.181471
vt 0.622949 0.016401
vt 0.622949 0.496192
vt 0.371944 0.016401
vt 0.371944 0.496192
vn 0.000000 0.000000 1.000000
vn 0.000000 0.000000 1.000000
vn 0.000000 0.000000 1.000000
vn 0.000000 0.000000 1.000000
vn 0.000000 1.000000 0.000000
vn 0.000000 1.000000 0.000000
vn 0.000000 1.000000 0.000000
vn 0.000000 1.000000 0.000000
vn 0.000000 0.000000 -1.000000
vn 0.000000 0.000000 -1.000000
vn 0.000000 0.000000 -1.000000
vn 0.000000 0.000000 -1.000000
vn 0.000000 -1.000000 0.000000
vn 0.000000 -1.000000 0.000000
vn 0.000000 -1.000000 0.000000
vn 0.000000 -1.000000 0.000000
vn 1.000000 0.000000 0.000000
vn 1.000000 0.000000 0.000000
vn 1.000000 0.000000 0.000000
vn 1.000000 0.000000 0.000000
vn -1.000000 0.000000 0.000000
vn -1.000000 0.000000 0.000000
vn -1.000000 0.000000 0.000000
vn -1.000000 0.000000 0.000000
s off
g Mur_LD_06
usemtl initialShadingGroup
f 41/95/121 42/93/122 44/94/123 43/96/124
f 43/83/125 44/84/126 46/86/127 45/91/128
f 45/85/129 46/89/130 48/90/131 47/92/132
f 47/87/133 48/88/134 42/82/135 41/81/136
f 42/82/137 48/88/138 46/86/139 44/84/140
f 47/87/141 41/81/142 43/83/143 45/91/144
