# This file uses centimeters as units for non-parametric coordinates.

mtllib OBJ_Poster_LD_06.mtl
g default
v -10.421357 -0.556786 6.695043
v -10.234767 -0.556786 6.910275
v -10.366705 -0.556786 6.847233
v -10.421357 -0.388808 6.695043
v -10.366705 -0.388808 6.847233
v -10.234767 -0.388808 6.910275
v 10.950788 -0.556786 6.695043
v 10.896137 -0.556786 6.847233
v 10.764198 -0.556786 6.910275
v 10.950788 -0.388808 6.695043
v 10.764198 -0.388808 6.910275
v 10.896137 -0.388808 6.847233
v -10.366705 -0.388808 -7.062322
v -10.421357 -0.388808 -6.910129
v -10.234767 -0.388808 -7.125361
v -10.421357 -0.556786 -6.910129
v -10.366705 -0.556786 -7.062322
v -10.234767 -0.556786 -7.125361
v 10.896137 -0.388808 -7.062322
v 10.764198 -0.388808 -7.125361
v 10.950788 -0.388808 -6.910129
v 10.950788 -0.556786 -6.910129
v 10.764198 -0.556786 -7.125361
v 10.896137 -0.556786 -7.062322
v 10.764202 -0.388808 6.695043
v 10.764198 -0.388808 -6.910129
v -10.234763 -0.388808 -6.910129
v -10.234767 -0.388808 6.695043
vt 0.346040 0.970577
vt 0.341578 0.970322
vt 0.341578 0.538602
vt 0.346040 0.538503
vt 0.662167 0.970322
vt 0.657704 0.970577
vt 0.657704 0.538503
vt 0.662167 0.538602
vt 0.350806 0.534667
vt 0.350930 0.528293
vt 0.652814 0.528293
vt 0.652938 0.534667
vt 0.652938 0.974412
vt 0.652814 0.980631
vt 0.350930 0.980631
vt 0.350807 0.974412
vt 0.343014 0.979475
vt 0.347436 0.973289
vt 0.343014 0.529449
vt 0.347436 0.535791
vt 0.656308 0.973289
vt 0.660731 0.979475
vt 0.656308 0.535791
vt 0.660731 0.529449
vt 0.350806 0.538503
vt 0.652938 0.538503
vt 0.652938 0.970576
vt 0.350807 0.970577
vn -0.002983 0.000000 0.999996
vn -0.002983 0.000000 0.999996
vn 0.002983 0.000000 0.999996
vn 0.002983 0.000000 0.999996
vn -0.002983 0.000000 -0.999996
vn -0.002983 0.000000 -0.999996
vn 0.002983 0.000000 -0.999996
vn 0.002983 0.000000 -0.999996
vn 0.999992 0.000000 0.003972
vn 0.999992 0.000000 0.003972
vn 0.999992 0.000000 -0.003972
vn 0.999992 0.000000 -0.003972
vn -0.999992 0.000000 -0.003973
vn -0.999992 0.000000 -0.003973
vn -0.999992 0.000000 0.003973
vn -0.999992 0.000000 0.003973
vn -0.941155 0.000000 0.337974
vn -0.941155 0.000000 0.337974
vn -0.431128 0.000000 0.902291
vn -0.431128 0.000000 0.902291
vn 0.431125 0.000000 0.902292
vn 0.431125 0.000000 0.902292
vn 0.941159 0.000000 0.337964
vn 0.941159 0.000000 0.337964
vn -0.941158 0.000000 -0.337968
vn -0.941158 0.000000 -0.337968
vn -0.431116 0.000000 -0.902297
vn -0.431116 0.000000 -0.902297
vn 0.431113 0.000000 -0.902298
vn 0.431113 0.000000 -0.902298
vn 0.941161 0.000000 -0.337958
vn 0.941161 0.000000 -0.337958
vn 0.000000 1.000000 -0.000000
vn 0.000000 1.000000 -0.000000
vn 0.000000 1.000000 0.000000
vn 0.000000 1.000000 -0.000000
vn 0.000000 1.000000 0.000000
vn 0.000000 1.000000 0.000000
vn 0.000000 1.000000 0.000000
vn 0.000000 1.000000 0.000000
vn 0.000000 1.000000 0.000000
vn 0.000000 1.000000 0.000000
vn 0.000000 1.000000 0.000000
vn 0.000000 1.000000 0.000000
vn 0.000000 1.000000 0.000000
vn 0.000000 1.000000 0.000000
vn 0.000000 1.000000 0.000000
vn 0.000000 1.000000 0.000000
s 1
g OBJ_Poster_LD_06
usemtl initialShadingGroup
f 6/1/1 2/2/2 9/3/3 11/4/4
s 2
f 18/5/5 15/6/6 20/7/7 23/8/8
s 3
f 10/9/9 7/10/10 22/11/11 21/12/12
s 4
f 14/13/13 16/14/14 1/15/15 4/16/16
f 1/15/15 3/17/17 5/18/18 4/16/16
s 1
f 3/17/19 2/2/2 6/1/1 5/18/20
f 9/3/3 8/19/21 12/20/22 11/4/4
s 3
f 8/19/23 7/10/10 10/9/9 12/20/24
s 4
f 14/13/13 13/21/25 17/22/26 16/14/14
s 2
f 13/21/27 15/6/6 18/5/5 17/22/28
f 20/7/7 19/23/29 24/24/30 23/8/8
s 3
f 19/23/31 21/12/12 22/11/11 24/24/32
s 5
f 25/25/33 26/26/34 27/27/35 28/28/36
f 26/26/34 20/7/37 15/6/38 27/27/35
f 11/4/39 25/25/33 28/28/36 6/1/40
f 10/9/41 25/25/33 11/4/39 12/20/42
f 21/12/43 26/26/34 25/25/33 10/9/41
f 19/23/44 20/7/37 26/26/34 21/12/43
f 27/27/35 15/6/38 13/21/45 14/13/46
f 28/28/36 27/27/35 14/13/46 4/16/47
f 6/1/40 28/28/36 4/16/47 5/18/48
