# This file uses centimeters as units for non-parametric coordinates.

mtllib OBJ_Poster_LD_02.mtl
g default
v -10.421357 -0.556786 6.695042
v -10.234767 -0.556786 6.910274
v -10.366705 -0.556786 6.847232
v -10.421357 -0.388808 6.695042
v -10.366705 -0.388808 6.847232
v -10.234767 -0.388808 6.910274
v 10.950788 -0.556786 6.695042
v 10.896137 -0.556786 6.847232
v 10.764198 -0.556786 6.910274
v 10.950788 -0.388808 6.695042
v 10.764198 -0.388808 6.910274
v 10.896137 -0.388808 6.847232
v -10.366705 -0.388808 -7.062323
v -10.421357 -0.388808 -6.910130
v -10.234767 -0.388808 -7.125362
v -10.421357 -0.556786 -6.910130
v -10.366705 -0.556786 -7.062323
v -10.234767 -0.556786 -7.125362
v 10.896137 -0.388808 -7.062323
v 10.764198 -0.388808 -7.125362
v 10.950788 -0.388808 -6.910130
v 10.950788 -0.556786 -6.910130
v 10.764198 -0.556786 -7.125362
v 10.896137 -0.556786 -7.062323
v 10.764202 -0.388808 6.695042
v 10.764198 -0.388808 -6.910130
v -10.234763 -0.388808 -6.910130
v -10.234767 -0.388808 6.695042
vt 0.678180 0.972294
vt 0.673718 0.972039
vt 0.673718 0.540320
vt 0.678180 0.540221
vt 0.994307 0.972039
vt 0.989844 0.972294
vt 0.989844 0.540221
vt 0.994306 0.540320
vt 0.682946 0.536385
vt 0.683070 0.530011
vt 0.984954 0.530011
vt 0.985078 0.536385
vt 0.985078 0.976130
vt 0.984954 0.982348
vt 0.683070 0.982348
vt 0.682946 0.976130
vt 0.675154 0.981193
vt 0.679576 0.975006
vt 0.675154 0.531167
vt 0.679576 0.537509
vt 0.988448 0.975006
vt 0.992871 0.981193
vt 0.988448 0.537509
vt 0.992871 0.531167
vt 0.682946 0.540221
vt 0.985078 0.540221
vt 0.985078 0.972294
vt 0.682946 0.972294
vn -0.002983 0.000000 0.999996
vn -0.002983 0.000000 0.999996
vn 0.002983 0.000000 0.999996
vn 0.002983 0.000000 0.999996
vn -0.002983 0.000000 -0.999996
vn -0.002983 0.000000 -0.999996
vn 0.002983 0.000000 -0.999996
vn 0.002983 0.000000 -0.999996
vn 0.999992 0.000000 0.003972
vn 0.999992 0.000000 0.003972
vn 0.999992 0.000000 -0.003972
vn 0.999992 0.000000 -0.003972
vn -0.999992 0.000000 -0.003973
vn -0.999992 0.000000 -0.003973
vn -0.999992 0.000000 0.003973
vn -0.999992 0.000000 0.003973
vn -0.941156 0.000000 0.337973
vn -0.941156 0.000000 0.337973
vn -0.431128 0.000000 0.902291
vn -0.431128 0.000000 0.902291
vn 0.431125 0.000000 0.902292
vn 0.431125 0.000000 0.902292
vn 0.941160 0.000000 0.337962
vn 0.941160 0.000000 0.337962
vn -0.941157 0.000000 -0.337970
vn -0.941157 0.000000 -0.337970
vn -0.431116 0.000000 -0.902297
vn -0.431116 0.000000 -0.902297
vn 0.431113 0.000000 -0.902298
vn 0.431113 0.000000 -0.902298
vn 0.941161 0.000000 -0.337959
vn 0.941161 0.000000 -0.337959
vn 0.000000 1.000000 -0.000000
vn 0.000000 1.000000 -0.000000
vn 0.000000 1.000000 0.000000
vn 0.000000 1.000000 -0.000000
vn 0.000000 1.000000 0.000000
vn 0.000000 1.000000 0.000000
vn 0.000000 1.000000 0.000000
vn 0.000000 1.000000 0.000000
vn 0.000000 1.000000 0.000000
vn 0.000000 1.000000 0.000000
vn 0.000000 1.000000 0.000000
vn 0.000000 1.000000 0.000000
vn 0.000000 1.000000 0.000000
vn 0.000000 1.000000 0.000000
vn 0.000000 1.000000 0.000000
vn 0.000000 1.000000 0.000000
s 1
g OBJ_Poster_LD_02
usemtl initialShadingGroup
f 6/1/1 2/2/2 9/3/3 11/4/4
s 2
f 18/5/5 15/6/6 20/7/7 23/8/8
s 3
f 10/9/9 7/10/10 22/11/11 21/12/12
s 4
f 14/13/13 16/14/14 1/15/15 4/16/16
f 1/15/15 3/17/17 5/18/18 4/16/16
s 1
f 3/17/19 2/2/2 6/1/1 5/18/20
f 9/3/3 8/19/21 12/20/22 11/4/4
s 3
f 8/19/23 7/10/10 10/9/9 12/20/24
s 4
f 14/13/13 13/21/25 17/22/26 16/14/14
s 2
f 13/21/27 15/6/6 18/5/5 17/22/28
f 20/7/7 19/23/29 24/24/30 23/8/8
s 3
f 19/23/31 21/12/12 22/11/11 24/24/32
s 5
f 25/25/33 26/26/34 27/27/35 28/28/36
f 26/26/34 20/7/37 15/6/38 27/27/35
f 11/4/39 25/25/33 28/28/36 6/1/40
f 10/9/41 25/25/33 11/4/39 12/20/42
f 21/12/43 26/26/34 25/25/33 10/9/41
f 19/23/44 20/7/37 26/26/34 21/12/43
f 27/27/35 15/6/38 13/21/45 14/13/46
f 28/28/36 27/27/35 14/13/46 4/16/47
f 6/1/40 28/28/36 4/16/47 5/18/48
