# This file uses centimeters as units for non-parametric coordinates.

mtllib VFX_Soupir_Engine.mtl
g default
v -1.580328 0.502169 0.223769
v -1.346931 0.502169 0.754297
v -0.976658 0.502169 1.228337
v -0.467662 0.502169 1.502528
v 0.083193 0.502169 1.507845
v 0.574762 0.502169 1.279314
v 0.959737 0.502169 0.894547
v 1.206883 0.502169 0.409496
v -1.630751 0.477591 0.242439
v -1.389309 0.477591 0.791219
v -1.002681 0.477591 1.280900
v -0.471719 0.477591 1.561012
v 0.099409 0.477591 1.561619
v 0.606402 0.477591 1.322986
v 1.003236 0.477591 0.926151
v 1.258020 0.477591 0.426111
v -1.676238 0.406263 0.259282
v -1.428259 0.406263 0.826252
v -1.026070 0.406263 1.329561
v -0.474902 0.406263 1.614227
v 0.114326 0.406263 1.610048
v 0.634913 0.406263 1.362227
v 1.042478 0.406263 0.954662
v 1.304151 0.406263 0.441100
v -1.712337 0.295168 0.272648
v -1.459265 0.295168 0.854573
v -1.044690 0.295168 1.370409
v -0.476946 0.295168 1.657365
v 0.126429 0.295168 1.648558
v 0.657539 0.295168 1.393369
v 1.073620 0.295168 0.977288
v 1.340761 0.295168 0.452995
v -1.735514 0.155179 0.281230
v -1.478916 0.155179 0.872356
v -1.056902 0.155179 1.400460
v -0.477709 0.155179 1.686691
v 0.134483 0.155179 1.673573
v 0.672066 0.155179 1.413364
v 1.093614 0.155179 0.991815
v 1.364265 0.155179 0.460633
v -1.743500 -0.000000 0.284187
v -1.485682 -0.000000 0.878497
v -1.061323 -0.000000 1.413606
v -0.477205 0.000000 1.699715
v 0.137658 0.000000 1.682810
v 0.677071 0.000000 1.420254
v 1.100504 0.000000 0.996821
v 1.372365 0.000000 0.463264
v -1.735514 -0.155179 0.281230
v -1.478916 -0.155179 0.872356
v -1.056902 -0.155179 1.400460
v -0.477709 -0.155179 1.686691
v 0.134483 -0.155179 1.673573
v 0.672066 -0.155179 1.413364
v 1.093614 -0.155179 0.991815
v 1.364265 -0.155179 0.460633
v -1.712337 -0.295168 0.272648
v -1.459265 -0.295168 0.854573
v -1.044690 -0.295168 1.370409
v -0.476946 -0.295168 1.657365
v 0.126429 -0.295168 1.648558
v 0.657539 -0.295168 1.393369
v 1.073620 -0.295168 0.977288
v 1.340761 -0.295168 0.452995
v -1.676238 -0.406264 0.259282
v -1.428259 -0.406264 0.826252
v -1.026070 -0.406264 1.329561
v -0.474902 -0.406264 1.614227
v 0.114326 -0.406264 1.610048
v 0.634913 -0.406264 1.362227
v 1.042478 -0.406264 0.954662
v 1.304151 -0.406264 0.441100
v -1.630751 -0.477591 0.242439
v -1.389309 -0.477591 0.791219
v -1.002681 -0.477591 1.280900
v -0.471719 -0.477591 1.561012
v 0.099409 -0.477591 1.561619
v 0.606402 -0.477591 1.322986
v 1.003236 -0.477591 0.926151
v 1.258020 -0.477591 0.426111
v -1.580328 -0.502169 0.223769
v -1.346931 -0.502169 0.754297
v -0.976658 -0.502169 1.228337
v -0.467662 -0.502169 1.502528
v 0.083193 -0.502169 1.507845
v 0.574762 -0.502169 1.279314
v 0.959737 -0.502169 0.894547
v 1.206883 -0.502169 0.409496
vt 0.000000 0.681559
vt 0.142857 0.681559
vt 0.285714 0.681559
vt 0.428571 0.681559
vt 0.571429 0.681559
vt 0.714286 0.681559
vt 0.857143 0.681559
vt 1.000000 0.681559
vt 0.000000 0.645263
vt 0.142857 0.645263
vt 0.285714 0.645263
vt 0.428571 0.645263
vt 0.571429 0.645263
vt 0.714286 0.645263
vt 0.857143 0.645263
vt 1.000000 0.645263
vt 0.000000 0.608968
vt 0.142857 0.608968
vt 0.285714 0.608968
vt 0.428571 0.608968
vt 0.571429 0.608968
vt 0.714286 0.608968
vt 0.857143 0.608968
vt 1.000000 0.608968
vt 0.000000 0.572673
vt 0.142857 0.572673
vt 0.285714 0.572673
vt 0.428571 0.572673
vt 0.571429 0.572673
vt 0.714286 0.572673
vt 0.857143 0.572673
vt 1.000000 0.572673
vt 0.000000 0.536377
vt 0.142857 0.536377
vt 0.285714 0.536377
vt 0.428571 0.536377
vt 0.571429 0.536377
vt 0.714286 0.536377
vt 0.857143 0.536377
vt 1.000000 0.536377
vt 0.000000 0.500082
vt 0.142857 0.500082
vt 0.285714 0.500082
vt 0.428571 0.500082
vt 0.571429 0.500082
vt 0.714286 0.500082
vt 0.857143 0.500082
vt 1.000000 0.500082
vt 0.000000 0.463787
vt 0.142857 0.463787
vt 0.285714 0.463787
vt 0.428571 0.463787
vt 0.571429 0.463787
vt 0.714286 0.463787
vt 0.857143 0.463787
vt 1.000000 0.463787
vt 0.000000 0.427492
vt 0.142857 0.427492
vt 0.285714 0.427492
vt 0.428571 0.427492
vt 0.571429 0.427492
vt 0.714286 0.427492
vt 0.857143 0.427492
vt 1.000000 0.427492
vt 0.000000 0.391196
vt 0.142857 0.391196
vt 0.285714 0.391196
vt 0.428571 0.391196
vt 0.571429 0.391196
vt 0.714286 0.391196
vt 0.857143 0.391196
vt 1.000000 0.391196
vt 0.000000 0.354901
vt 0.142857 0.354901
vt 0.285714 0.354901
vt 0.428571 0.354901
vt 0.571429 0.354901
vt 0.714286 0.354901
vt 0.857143 0.354901
vt 1.000000 0.354901
vt 0.000000 0.318606
vt 0.142857 0.318606
vt 0.285714 0.318606
vt 0.428571 0.318606
vt 0.571429 0.318606
vt 0.714286 0.318606
vt 0.857143 0.318606
vt 1.000000 0.318606
vn -0.354883 0.911558 0.207652
vn -0.381137 0.909185 0.167681
vn -0.633921 0.721605 0.278263
vn -0.594975 0.721299 0.354588
vn -0.266451 0.916649 0.297923
vn -0.449402 0.724135 0.523131
vn -0.107523 0.920116 0.376597
vn -0.175933 0.726220 0.664569
vn 0.080768 0.917280 0.389967
vn 0.147575 0.720351 0.677729
vn 0.235317 0.911738 0.336689
vn 0.403449 0.712558 0.574012
vn 0.336122 0.909597 0.244244
vn 0.569912 0.709746 0.414077
vn 0.374228 0.907522 0.190678
vn 0.631681 0.705257 0.321857
vn -0.827229 0.430091 0.361543
vn -0.770420 0.435465 0.465643
vn -0.573449 0.445211 0.687709
vn -0.215668 0.446722 0.868289
vn 0.198940 0.435347 0.878007
vn 0.522594 0.423545 0.739936
vn 0.734275 0.419806 0.533482
vn 0.810439 0.415535 0.412939
vn -0.889100 0.244532 0.386918
vn -0.826483 0.252466 0.503177
vn -0.611149 0.266232 0.745397
vn -0.221705 0.267217 0.937786
vn 0.219913 0.253077 0.942120
vn 0.561125 0.242125 0.791526
vn 0.785566 0.239028 0.570747
vn 0.865784 0.236250 0.441139
vn -0.911524 0.111722 0.395780
vn -0.847913 0.119179 0.516565
vn -0.622758 0.133165 0.770999
vn -0.219547 0.135014 0.966214
vn 0.230725 0.121919 0.965351
vn 0.575807 0.112175 0.809854
vn 0.804127 0.109781 0.584233
vn 0.885752 0.108445 0.451313
vn -0.917350 0.000000 0.398081
vn -0.854101 -0.000000 0.520107
vn -0.621478 -0.000000 0.783432
vn -0.212191 -0.000000 0.977228
vn 0.235481 -0.000000 0.971879
vn 0.579932 0.000000 0.814665
vn 0.809017 0.000000 0.587785
vn 0.891007 0.000000 0.453990
vn -0.911524 -0.111722 0.395780
vn -0.847913 -0.119179 0.516565
vn -0.622758 -0.133165 0.770999
vn -0.219547 -0.135014 0.966214
vn 0.230725 -0.121919 0.965351
vn 0.575807 -0.112175 0.809854
vn 0.804127 -0.109781 0.584233
vn 0.885752 -0.108445 0.451313
vn -0.889100 -0.244532 0.386918
vn -0.826483 -0.252466 0.503177
vn -0.611149 -0.266232 0.745397
vn -0.221705 -0.267217 0.937786
vn 0.219913 -0.253076 0.942120
vn 0.561125 -0.242126 0.791526
vn 0.785566 -0.239028 0.570747
vn 0.865784 -0.236250 0.441139
vn -0.827229 -0.430091 0.361543
vn -0.770420 -0.435465 0.465643
vn -0.573449 -0.445211 0.687709
vn -0.215668 -0.446722 0.868289
vn 0.198940 -0.435347 0.878007
vn 0.522594 -0.423545 0.739936
vn 0.734275 -0.419806 0.533482
vn 0.810439 -0.415534 0.412939
vn -0.633921 -0.721605 0.278263
vn -0.594975 -0.721299 0.354588
vn -0.449402 -0.724135 0.523132
vn -0.175933 -0.726220 0.664569
vn 0.147575 -0.720351 0.677729
vn 0.403449 -0.712558 0.574013
vn 0.569913 -0.709746 0.414077
vn 0.631681 -0.705257 0.321858
vn -0.381137 -0.909185 0.167681
vn -0.354884 -0.911558 0.207651
vn -0.266452 -0.916649 0.297922
vn -0.107523 -0.920116 0.376597
vn 0.080768 -0.917280 0.389967
vn 0.235317 -0.911738 0.336689
vn 0.336122 -0.909597 0.244244
vn 0.374228 -0.907522 0.190679
s 1
g VFX_Soupir_Engine
usemtl initialShadingGroup
f 2/2/1 1/1/2 9/9/3 10/10/4
f 3/3/5 2/2/1 10/10/4 11/11/6
f 4/4/7 3/3/5 11/11/6 12/12/8
f 5/5/9 4/4/7 12/12/8 13/13/10
f 6/6/11 5/5/9 13/13/10 14/14/12
f 7/7/13 6/6/11 14/14/12 15/15/14
f 8/8/15 7/7/13 15/15/14 16/16/16
f 10/10/4 9/9/3 17/17/17 18/18/18
f 11/11/6 10/10/4 18/18/18 19/19/19
f 12/12/8 11/11/6 19/19/19 20/20/20
f 13/13/10 12/12/8 20/20/20 21/21/21
f 14/14/12 13/13/10 21/21/21 22/22/22
f 15/15/14 14/14/12 22/22/22 23/23/23
f 16/16/16 15/15/14 23/23/23 24/24/24
f 18/18/18 17/17/17 25/25/25 26/26/26
f 19/19/19 18/18/18 26/26/26 27/27/27
f 20/20/20 19/19/19 27/27/27 28/28/28
f 21/21/21 20/20/20 28/28/28 29/29/29
f 22/22/22 21/21/21 29/29/29 30/30/30
f 23/23/23 22/22/22 30/30/30 31/31/31
f 24/24/24 23/23/23 31/31/31 32/32/32
f 26/26/26 25/25/25 33/33/33 34/34/34
f 27/27/27 26/26/26 34/34/34 35/35/35
f 28/28/28 27/27/27 35/35/35 36/36/36
f 29/29/29 28/28/28 36/36/36 37/37/37
f 30/30/30 29/29/29 37/37/37 38/38/38
f 31/31/31 30/30/30 38/38/38 39/39/39
f 32/32/32 31/31/31 39/39/39 40/40/40
f 34/34/34 33/33/33 41/41/41 42/42/42
f 35/35/35 34/34/34 42/42/42 43/43/43
f 36/36/36 35/35/35 43/43/43 44/44/44
f 37/37/37 36/36/36 44/44/44 45/45/45
f 38/38/38 37/37/37 45/45/45 46/46/46
f 39/39/39 38/38/38 46/46/46 47/47/47
f 40/40/40 39/39/39 47/47/47 48/48/48
f 42/42/42 41/41/41 49/49/49 50/50/50
f 43/43/43 42/42/42 50/50/50 51/51/51
f 44/44/44 43/43/43 51/51/51 52/52/52
f 45/45/45 44/44/44 52/52/52 53/53/53
f 46/46/46 45/45/45 53/53/53 54/54/54
f 47/47/47 46/46/46 54/54/54 55/55/55
f 48/48/48 47/47/47 55/55/55 56/56/56
f 50/50/50 49/49/49 57/57/57 58/58/58
f 51/51/51 50/50/50 58/58/58 59/59/59
f 52/52/52 51/51/51 59/59/59 60/60/60
f 53/53/53 52/52/52 60/60/60 61/61/61
f 54/54/54 53/53/53 61/61/61 62/62/62
f 55/55/55 54/54/54 62/62/62 63/63/63
f 56/56/56 55/55/55 63/63/63 64/64/64
f 58/58/58 57/57/57 65/65/65 66/66/66
f 59/59/59 58/58/58 66/66/66 67/67/67
f 60/60/60 59/59/59 67/67/67 68/68/68
f 61/61/61 60/60/60 68/68/68 69/69/69
f 62/62/62 61/61/61 69/69/69 70/70/70
f 63/63/63 62/62/62 70/70/70 71/71/71
f 64/64/64 63/63/63 71/71/71 72/72/72
f 66/66/66 65/65/65 73/73/73 74/74/74
f 67/67/67 66/66/66 74/74/74 75/75/75
f 68/68/68 67/67/67 75/75/75 76/76/76
f 69/69/69 68/68/68 76/76/76 77/77/77
f 70/70/70 69/69/69 77/77/77 78/78/78
f 71/71/71 70/70/70 78/78/78 79/79/79
f 72/72/72 71/71/71 79/79/79 80/80/80
f 74/74/74 73/73/73 81/81/81 82/82/82
f 75/75/75 74/74/74 82/82/82 83/83/83
f 76/76/76 75/75/75 83/83/83 84/84/84
f 77/77/77 76/76/76 84/84/84 85/85/85
f 78/78/78 77/77/77 85/85/85 86/86/86
f 79/79/79 78/78/78 86/86/86 87/87/87
f 80/80/80 79/79/79 87/87/87 88/88/88
