# This file uses centimeters as units for non-parametric coordinates.

mtllib OBJ_Roche_01.mtl
g default
v 1.025794 -0.260783 0.766770
v 1.046672 -0.272078 -0.788075
v 2.796552 -0.035621 -0.564385
v 2.778092 -0.038112 0.701844
v -0.446138 -0.266839 -0.881076
v -0.538758 -0.344772 0.821072
v -1.792965 -0.123360 -1.020984
v -1.929482 -0.351013 0.872475
v -2.951063 0.349722 0.858132
v -3.076735 0.393429 -0.974868
v -3.252466 1.848331 -0.808817
v -3.296610 1.597425 0.733798
v -3.323579 2.910919 -0.733845
v -3.262257 2.693538 0.713234
v -2.770918 3.989429 -0.600422
v -2.812538 3.831821 0.811285
v -1.326189 4.169982 0.681895
v -1.498888 4.345003 -0.540311
v 0.420060 4.236259 0.656967
v 0.259149 4.375799 -0.611967
v 2.016639 4.157523 0.608305
v 1.660422 4.258935 -0.698201
v 3.032334 3.783066 0.729910
v 2.918721 3.835040 -0.767806
v 3.294997 2.244894 0.814401
v 3.323579 2.299070 -0.761690
v 3.273280 0.802771 0.729015
v 3.321473 0.836686 -0.781850
v 1.635291 3.465091 -1.618869
v 0.162074 3.660092 -1.511172
v -1.460196 3.616922 -1.426344
v -2.524784 3.197145 -1.431225
v -2.679929 2.665303 -1.440858
v -2.487471 1.866364 -1.593603
v -2.320362 0.854340 -1.600714
v -1.374700 0.420407 -1.573773
v -0.339353 0.295356 -1.462990
v 1.020238 0.336435 -1.404212
v 2.477891 0.418834 -1.385693
v 2.849206 1.039846 -1.385810
v 2.875102 2.259192 -1.351903
v 2.402467 3.087623 -1.481298
v -1.551964 2.192353 -1.676417
v -0.647573 2.241684 -1.696053
v 1.770656 2.307177 -1.578659
v 0.273839 2.362969 -1.671738
v -1.154435 3.633016 1.460471
v -2.522308 3.537913 1.370321
v 0.409621 3.770328 1.364463
v 1.858769 3.648929 1.370698
v 2.586089 3.084070 1.570920
v 2.707185 2.095270 1.499995
v 2.564353 1.022205 1.497512
v 2.103545 0.530024 1.414513
v 0.905810 0.297217 1.357428
v -0.509280 0.343380 1.410204
v -1.830407 0.343132 1.394226
v -2.607851 0.956738 1.357404
v -2.684627 1.835585 1.401243
v -2.744998 2.672790 1.373212
v 1.851216 2.320214 1.586216
v 0.856742 2.054881 1.523501
v -0.494021 1.757148 1.686553
v -1.631076 1.731373 1.696053
vt 0.762739 0.827079
vt 0.708083 0.835968
vt 0.702200 0.784420
vt 0.767144 0.782872
vt 0.762010 0.865915
vt 0.710739 0.873617
vt 0.680278 0.836607
vt 0.680026 0.800751
vt 0.784834 0.804379
vt 0.786387 0.835517
vt 0.765484 0.906245
vt 0.715467 0.911829
vt 0.685690 0.864914
vt 0.785394 0.865180
vt 0.686031 0.883758
vt 0.785291 0.895831
vt 0.434039 0.831568
vt 0.431028 0.776763
vt 0.487185 0.778693
vt 0.487403 0.833420
vt 0.404073 0.806663
vt 0.406600 0.771431
vt 0.434071 0.725379
vt 0.487904 0.726587
vt 0.508215 0.777272
vt 0.512825 0.806789
vt 0.406689 0.733197
vt 0.435039 0.695418
vt 0.480155 0.695507
vt 0.509423 0.733826
vt 0.409646 0.715661
vt 0.509419 0.711699
vt 0.190121 0.233842
vt 0.192425 0.296026
vt 0.137248 0.295286
vt 0.145186 0.233187
vt 0.215412 0.257780
vt 0.213386 0.300284
vt 0.194352 0.351548
vt 0.133948 0.348261
vt 0.115383 0.296224
vt 0.116040 0.244496
vt 0.215259 0.350502
vt 0.196177 0.400901
vt 0.128983 0.396056
vt 0.113297 0.344472
vt 0.214692 0.397385
vt 0.195668 0.437154
vt 0.130619 0.441614
vt 0.109366 0.381213
vt 0.108410 0.414772
vt 0.468700 0.159890
vt 0.470821 0.204767
vt 0.421017 0.206235
vt 0.425582 0.153798
vt 0.499959 0.158525
vt 0.500131 0.196083
vt 0.401295 0.195996
vt 0.398114 0.147738
vt 0.471228 0.097868
vt 0.426461 0.092191
vt 0.502952 0.101293
vt 0.401501 0.092560
vt 0.474271 0.048432
vt 0.428178 0.035865
vt 0.506751 0.049319
vt 0.401281 0.041435
vt 0.423888 0.000032
vt 0.476726 0.004040
vt 0.501898 0.022253
vt 0.394218 0.015775
vt 0.640058 0.342976
vt 0.613963 0.349262
vt 0.596592 0.344195
vt 0.629410 0.312421
vt 0.582881 0.309424
vt 0.627799 0.282882
vt 0.673112 0.337518
vt 0.687285 0.306631
vt 0.581471 0.256438
vt 0.623838 0.252787
vt 0.691369 0.272815
vt 0.625660 0.203899
vt 0.587840 0.208320
vt 0.690028 0.228408
vt 0.687336 0.180799
vt 0.600169 0.183262
vt 0.627227 0.167825
vt 0.667053 0.168671
vt 0.239672 0.359179
vt 0.259872 0.384773
vt 0.239889 0.396072
vt 0.216820 0.362440
vt 0.285374 0.352617
vt 0.288804 0.387300
vt 0.239680 0.315686
vt 0.286222 0.315184
vt 0.316366 0.389288
vt 0.344846 0.381957
vt 0.238160 0.269100
vt 0.296024 0.270716
vt 0.347977 0.336925
vt 0.245824 0.229670
vt 0.304759 0.237977
vt 0.352498 0.285435
vt 0.262027 0.214500
vt 0.297353 0.209798
vt 0.348501 0.237728
vt 0.329906 0.213784
vn 0.424319 -0.871062 0.247396
vn 0.082470 -0.963785 0.253608
vn 0.085072 -0.965960 -0.244304
vn 0.425737 -0.885372 -0.186720
vn -0.000764 -0.972638 0.232324
vn -0.001584 -0.966056 -0.258330
vn -0.257854 -0.947737 0.187899
vn -0.246503 -0.921969 -0.298680
vn -0.771299 -0.607635 0.189412
vn -0.782073 -0.556740 -0.280003
vn -0.972789 -0.117479 0.199701
vn -0.958297 -0.092524 -0.270383
vn -0.959800 0.175659 0.218923
vn -0.953077 0.219561 -0.208417
vn -0.602282 0.745695 0.284948
vn -0.576386 0.793590 -0.194919
vn -0.136117 0.965334 -0.222717
vn -0.103503 0.949090 0.297515
vn 0.007599 0.967484 -0.252819
vn 0.019845 0.954819 0.296523
vn 0.167516 0.942264 -0.289961
vn 0.203137 0.946458 0.250903
vn 0.796675 0.565131 0.214329
vn 0.746572 0.608466 -0.269073
vn 0.968055 0.083182 0.236537
vn 0.972151 0.117505 -0.202771
vn 0.934405 -0.231264 0.270933
vn 0.957169 -0.212977 -0.196134
vn 0.107265 0.426541 -0.898085
vn -0.012620 0.494341 -0.869177
vn -0.093443 0.529277 -0.843288
vn -0.327073 0.430537 -0.841226
vn -0.534594 0.131385 -0.834834
vn -0.409478 -0.011300 -0.912250
vn -0.337043 -0.220667 -0.915264
vn -0.042127 -0.343757 -0.938113
vn 0.038349 -0.345676 -0.937570
vn 0.060190 -0.344175 -0.936974
vn 0.192310 -0.393963 -0.898783
vn 0.475821 -0.110310 -0.872597
vn 0.533397 0.070221 -0.842945
vn 0.415759 0.309145 -0.855321
vn -0.026788 0.042862 -0.998722
vn 0.008681 0.010471 -0.999907
vn 0.065066 -0.047090 -0.996769
vn 0.016409 -0.019078 -0.999683
vn -0.266491 0.413306 0.870724
vn -0.015901 0.394960 0.918561
vn 0.028526 0.441227 0.896942
vn 0.072553 0.501235 0.862264
vn 0.436590 0.275793 0.856345
vn 0.507823 0.006096 0.861440
vn 0.433720 -0.178047 0.883281
vn 0.127257 -0.386628 0.913414
vn 0.052978 -0.381862 0.922700
vn 0.041618 -0.363978 0.930477
vn -0.128968 -0.390528 0.911513
vn -0.453720 -0.219458 0.863700
vn -0.483879 -0.045560 0.873948
vn -0.527831 0.082460 0.845337
vn -0.029332 0.017006 0.999425
vn 0.025488 0.008402 0.999640
vn 0.039469 -0.006966 0.999197
vn -0.078684 -0.015638 0.996777
s 1
g OBJ_Roche_LD_01
usemtl initialShadingGroup
f 4/33/1 1/34/2 2/35/3 3/36/4
f 6/39/5 5/40/6 2/35/3 1/34/2
f 8/44/7 7/45/8 5/40/6 6/39/5
f 7/45/8 8/44/7 9/48/9 10/49/10
f 12/1/11 11/2/12 10/3/10 9/4/9
f 14/5/13 13/6/14 11/2/12 12/1/11
f 16/11/15 15/12/16 13/6/14 14/5/13
f 18/52/17 15/53/16 16/54/15 17/55/18
f 20/60/19 18/52/17 17/55/18 19/61/20
f 22/64/21 20/60/19 19/61/20 21/65/22
f 22/64/21 21/65/22 23/68/23 24/69/24
f 23/17/23 25/18/25 26/19/26 24/20/24
f 26/19/26 25/18/25 27/23/27 28/24/28
f 4/28/1 3/29/4 28/24/28 27/23/27
f 20/60/19 22/64/21 29/66/29 30/62/30
f 30/62/30 31/56/31 18/52/17 20/60/19
f 31/56/31 32/57/32 15/53/16 18/52/17
f 15/12/16 32/15/32 33/13/33 13/6/14
f 34/7/34 11/2/12 13/6/14 33/13/33
f 11/2/12 34/7/34 35/8/35 10/3/10
f 35/51/35 36/50/36 7/45/8 10/49/10
f 36/50/36 37/46/37 5/40/6 7/45/8
f 37/46/37 38/41/38 2/35/3 5/40/6
f 38/41/38 39/42/39 3/36/4 2/35/3
f 3/29/4 39/32/39 40/30/40 28/24/28
f 40/30/40 41/25/41 26/19/26 28/24/28
f 41/25/41 42/26/42 24/20/24 26/19/26
f 24/69/24 42/70/42 29/66/29 22/64/21
f 34/72/34 33/73/33 32/74/32 43/75/43
f 35/78/35 34/72/34 43/75/43 36/79/36
f 43/75/43 32/74/32 31/76/31 44/77/44
f 36/79/36 43/75/43 44/77/44 37/82/37
f 42/87/42 41/88/41 45/83/45 29/84/29
f 41/88/41 40/89/40 39/86/39 45/83/45
f 45/83/45 46/81/46 30/80/30 29/84/29
f 44/77/44 31/76/31 30/80/30 46/81/46
f 37/82/37 44/77/44 46/81/46 38/85/38
f 45/83/45 39/86/39 38/85/38 46/81/46
f 48/58/47 47/59/48 17/55/18 16/54/15
f 47/59/48 49/63/49 19/61/20 17/55/18
f 49/63/49 50/67/50 21/65/22 19/61/20
f 51/71/51 23/68/23 21/65/22 50/67/50
f 25/18/25 23/17/23 51/21/51 52/22/52
f 52/22/52 53/27/53 27/23/27 25/18/25
f 54/31/54 4/28/1 27/23/27 53/27/53
f 1/34/2 4/33/1 54/37/54 55/38/55
f 55/38/55 56/43/56 6/39/5 1/34/2
f 8/44/7 6/39/5 56/43/56 57/47/57
f 57/90/57 58/91/58 9/92/9 8/93/7
f 58/9/58 59/10/59 12/1/11 9/4/9
f 60/14/60 14/5/13 12/1/11 59/10/59
f 60/14/60 48/16/47 16/11/15 14/5/13
f 52/107/52 51/109/51 50/108/50 61/104/61
f 53/106/53 52/107/52 61/104/61 54/103/54
f 49/105/49 62/101/62 61/104/61 50/108/50
f 62/101/62 55/100/55 54/103/54 61/104/61
f 62/101/62 49/105/49 47/102/48 63/97/63
f 56/96/56 55/100/55 62/101/62 63/97/63
f 63/97/63 47/102/48 48/99/47 64/94/64
f 64/94/64 57/90/57 56/96/56 63/97/63
f 60/98/60 59/95/59 64/94/64 48/99/47
f 58/91/58 57/90/57 64/94/64 59/95/59
