# This file uses centimeters as units for non-parametric coordinates.

mtllib OBJ_Roche_05.mtl
g default
v -3.008301 -0.263975 1.271890
v 0.439995 -0.386915 1.433874
v 0.255339 3.398983 1.326470
v -3.203550 3.066474 1.167411
v 2.756741 -0.021727 1.339183
v 3.331629 3.147346 0.805864
v -2.994019 3.175212 -1.224269
v -0.041691 3.403786 -1.425642
v 2.580952 3.317160 -1.138008
v -3.152786 3.303507 0.009630
v 0.099806 3.650529 -0.094754
v 2.953951 3.421063 -0.196090
v -1.895084 -0.304462 1.381461
v -2.096390 3.344772 1.446027
v -2.089207 3.627758 -0.028029
v -2.054125 3.384401 -1.309921
v -3.353991 1.963403 -1.323829
v -3.562704 2.004235 0.015395
v -3.124746 1.706153 1.434097
v -2.018118 1.797538 1.833429
v 0.366283 1.814924 1.863294
v 3.208321 1.738433 1.498829
v -3.150780 -0.449729 -0.178807
v -3.164228 -0.379260 -1.061534
v -3.328085 0.844879 -1.213276
v -3.509972 0.848990 -0.067574
v -3.112995 0.783586 1.462625
v -1.973341 0.801768 1.751593
v 0.405691 0.767537 1.816746
v 3.077564 0.799179 1.492605
v -0.018707 2.670619 -1.850019
v 2.362856 2.501410 -1.584238
v 3.355314 2.725667 -0.880500
v -2.113626 2.647901 -1.700125
v -2.085564 0.656453 -1.755802
v 0.027254 1.055665 -1.956032
v 2.180168 0.766619 -1.690910
v 2.971798 2.135749 -1.452967
v 2.992563 1.191857 -1.339900
v 3.106655 0.075617 -1.205798
v 2.550373 -0.191500 -1.388684
v 0.110388 -0.544564 -1.298894
v -2.093143 -0.247481 -1.486618
v -1.709198 -0.734050 0.167533
v 0.564173 -0.664760 0.234432
v 2.396492 -0.508281 0.537018
v 3.545822 2.318289 -0.318241
v 3.300138 2.091058 -0.983324
v 3.305241 0.502200 -0.910699
v 3.490927 1.406340 -0.658820
v 3.562704 1.493260 0.356115
v 3.550224 0.713969 0.227548
v 3.389257 -0.020336 -0.010950
v 3.082460 -0.253255 -0.849339
v 2.718227 -0.381044 -0.903326
v 0.221277 -0.675550 -0.378146
v -2.081743 -0.664842 -0.994713
v -2.730082 -0.566168 -0.709524
v 1.564663 -0.351375 1.409933
v 1.395542 -0.590890 0.371489
v 1.360050 -0.596983 -0.624856
v 1.224451 -0.448170 -1.397222
v 1.011103 0.912625 -1.915931
v 1.065710 2.601661 -1.756681
v 1.162460 3.475133 -1.373683
v 1.407187 3.692502 -0.138982
v 1.677366 3.420875 1.201509
v 1.670547 1.797683 1.795695
v 1.624464 0.773868 1.727185
v -0.865868 3.299361 1.317096
v -0.942924 3.592582 -0.062908
v -0.999598 3.370345 -1.353082
v -1.017572 2.660985 -1.782789
v -0.981009 0.860962 -1.889016
v -0.939802 -0.421101 -1.407051
v -0.875902 -0.721332 -0.682653
v -0.519140 -0.762459 0.210527
v -0.673176 -0.352840 1.413909
v -0.729717 0.773096 1.840704
v -0.770241 1.807227 1.854278
vt 0.845942 0.511202
vt 0.842641 0.471023
vt 0.887044 0.472377
vt 0.886853 0.515456
vt 0.846306 0.433938
vt 0.884293 0.434074
vt 0.934082 0.462494
vt 0.925240 0.507597
vt 0.880605 0.391014
vt 0.851337 0.393350
vt 0.935028 0.431905
vt 0.928704 0.397173
vt 0.596054 0.819362
vt 0.635697 0.790125
vt 0.655525 0.804492
vt 0.631389 0.829015
vt 0.571616 0.769676
vt 0.611915 0.761029
vt 0.659152 0.782111
vt 0.647708 0.757964
vt 0.680343 0.796583
vt 0.664607 0.825351
vt 0.571835 0.736552
vt 0.616449 0.733547
vt 0.675714 0.783687
vt 0.671727 0.750400
vt 0.577246 0.707602
vt 0.624860 0.707651
vt 0.656590 0.726079
vt 0.666997 0.711035
vt 0.605535 0.690443
vt 0.654426 0.699437
vt 0.049163 0.389692
vt 0.091917 0.388522
vt 0.089060 0.419870
vt 0.047907 0.425165
vt 0.050326 0.351461
vt 0.093356 0.353351
vt 0.000000 0.389932
vt 0.009292 0.426858
vt 0.095776 0.321403
vt 0.051388 0.316684
vt 0.004300 0.348891
vt 0.109930 0.320637
vt 0.107688 0.353951
vt 0.003987 0.311497
vt 0.052863 0.273080
vt 0.094043 0.281242
vt 0.008155 0.264069
vt 0.086183 0.233933
vt 0.054768 0.221492
vt 0.021351 0.208896
vt 0.276902 0.556265
vt 0.317379 0.562463
vt 0.313725 0.599582
vt 0.265354 0.604333
vt 0.278336 0.516585
vt 0.318461 0.521721
vt 0.247658 0.590305
vt 0.238149 0.568687
vt 0.319126 0.484604
vt 0.279133 0.480464
vt 0.248554 0.528480
vt 0.235921 0.604781
vt 0.221748 0.569067
vt 0.258708 0.491897
vt 0.283703 0.452743
vt 0.318328 0.447104
vt 0.224401 0.530611
vt 0.228007 0.495594
vt 0.250482 0.453926
vt 0.289222 0.419368
vt 0.315969 0.407356
vt 0.224728 0.458448
vt 0.241196 0.408640
vt 0.225013 0.414237
vt 0.242997 0.396495
vt 0.270951 0.386266
vt 0.231111 0.395689
vt 0.207781 0.215352
vt 0.210828 0.178446
vt 0.262429 0.181056
vt 0.253148 0.217980
vt 0.177013 0.214960
vt 0.177619 0.176953
vt 0.211151 0.136829
vt 0.260914 0.140018
vt 0.142076 0.211469
vt 0.140726 0.174343
vt 0.176663 0.135478
vt 0.211408 0.098926
vt 0.264237 0.102626
vt 0.139113 0.133592
vt 0.176477 0.097611
vt 0.210833 0.055428
vt 0.264967 0.055201
vt 0.137976 0.096467
vt 0.176689 0.056965
vt 0.208857 0.004143
vt 0.255845 0.000031
vt 0.139161 0.058959
vt 0.177533 0.008504
vt 0.150155 0.019203
vt 0.032609 0.024941
vt 0.029252 0.068382
vt 0.000000 0.065142
vt 0.005290 0.017638
vt 0.090706 0.031060
vt 0.085816 0.070211
vt 0.026943 0.104698
vt 0.002389 0.105468
vt 0.131388 0.063066
vt 0.122793 0.018662
vt 0.081026 0.103159
vt 0.076465 0.003853
vt 0.044855 0.004548
vt 0.134617 0.100375
vt 0.113847 0.000032
vt 0.087547 0.136925
vt 0.027265 0.138149
vt 0.130482 0.135545
vt 0.027703 0.174856
vt 0.094395 0.173916
vt 0.124668 0.174170
vt 0.003509 0.137547
vt 0.003039 0.172863
vt 0.088085 0.215527
vt 0.050627 0.216394
vt 0.129081 0.210039
vt 0.010044 0.204339
vn -0.743755 0.078607 0.663814
vn -0.137861 0.139203 0.980621
vn -0.122579 0.251155 0.960154
vn -0.316530 0.191884 0.928972
vn 0.147328 0.718856 0.679368
vn 0.146577 0.212767 0.966046
vn 0.218992 0.238835 0.946045
vn 0.571751 0.603153 0.556154
vn -0.112725 0.993301 0.025414
vn -0.158444 0.840083 -0.518803
vn -0.655787 0.601362 -0.456407
vn -0.744167 0.667650 0.021405
vn 0.311375 0.788686 -0.530114
vn 0.082348 0.840258 -0.535897
vn 0.073678 0.997118 0.018077
vn 0.415900 0.907527 -0.058498
vn -0.103136 0.976017 0.191711
vn -0.281598 0.942493 0.180025
vn -0.001172 0.176456 0.984308
vn 0.003677 0.717733 0.696309
vn -0.012434 0.999562 0.026847
vn -0.037847 0.876314 -0.480251
vn -0.747254 0.101064 -0.656809
vn -0.993540 0.106193 0.040015
vn -0.761943 -0.164369 0.626438
vn -0.135193 -0.180465 0.974246
vn -0.026445 -0.200900 0.979255
vn 0.109845 -0.164874 0.980179
vn 0.163809 -0.132908 0.977498
vn -0.974593 0.139303 0.175394
vn -0.989897 -0.123949 0.068852
vn -0.985852 -0.111632 -0.125037
vn -0.758251 -0.641085 0.118597
vn -0.748832 -0.363208 -0.554374
vn -0.959840 -0.213236 0.182312
vn -0.170633 -0.261856 0.949903
vn -0.122613 -0.745789 0.654802
vn -0.023959 -0.726532 0.686715
vn 0.111495 -0.674519 0.729790
vn 0.145012 -0.259291 0.954851
vn 0.266434 0.219644 -0.938493
vn 0.123657 0.207879 -0.970307
vn 0.790004 0.438432 -0.428569
vn -0.082111 0.193895 -0.977580
vn -0.208799 0.155825 -0.965464
vn -0.213768 -0.113532 -0.970265
vn -0.358006 -0.086767 -0.929679
vn -0.047061 -0.126268 -0.990879
vn 0.200393 -0.106199 -0.973943
vn 0.079354 -0.122252 -0.989322
vn 0.547034 -0.039889 -0.836160
vn 0.521955 0.067633 -0.850287
vn 0.235388 -0.534500 -0.811728
vn 0.661135 -0.221328 -0.716878
vn 0.059970 -0.649248 -0.758209
vn 0.010790 -0.602326 -0.798177
vn -0.181824 -0.460066 -0.869068
vn -0.093365 -0.982135 0.163385
vn -0.161503 -0.962139 0.219556
vn 0.004191 -0.985765 0.168077
vn 0.099967 -0.988336 0.114888
vn 0.328639 -0.925647 0.187549
vn 0.661771 -0.652543 0.369117
vn 0.981967 0.188799 -0.009824
vn 0.831734 0.073384 -0.550303
vn 0.956023 -0.050426 -0.288926
vn 0.923786 -0.120320 -0.363516
vn 0.970936 0.023288 0.238205
vn 0.985286 -0.022904 0.169371
vn 0.947318 -0.284096 0.147912
vn 0.791319 -0.602381 0.104651
vn 0.639086 -0.757561 -0.132931
vn 0.254466 -0.957750 -0.134023
vn 0.101576 -0.987955 -0.116738
vn 0.000266 -0.982448 -0.186536
vn -0.095302 -0.960055 -0.263081
vn -0.203628 -0.969065 -0.139461
vn 0.910149 -0.226237 0.347052
vn 0.049735 -0.988567 0.142341
vn 0.031045 -0.712036 0.701456
vn 0.056303 -0.991500 -0.117295
vn 0.011931 -0.689967 -0.723742
vn -0.000757 -0.123346 -0.992363
vn -0.001591 0.217248 -0.976115
vn -0.032656 0.863360 -0.503531
vn -0.043580 0.998759 0.024117
vn -0.002210 0.720566 0.693383
vn 0.031203 0.196067 0.980094
vn 0.029772 -0.187446 0.981824
s 1
g OBJ_Roche_LD_05
usemtl initialShadingGroup
f 19/80/1 20/81/2 14/82/3 4/83/4
f 67/96/5 68/95/6 22/99/7 6/100/8
f 15/33/9 16/34/10 7/35/11 10/36/12
f 9/50/13 65/48/14 66/47/15 12/51/16
f 14/39/17 15/33/9 10/36/12 4/40/18
f 12/51/16 66/47/15 67/49/5 6/52/8
f 14/82/3 20/81/2 80/86/19 70/87/20
f 70/43/20 71/37/21 15/33/9 14/39/17
f 71/37/21 72/38/22 16/34/10 15/33/9
f 7/1/11 17/2/23 18/3/24 10/4/12
f 27/84/25 28/85/26 20/81/2 19/80/1
f 79/90/27 80/86/19 20/81/2 28/85/26
f 22/99/7 68/95/6 69/98/28 30/102/29
f 10/4/12 18/3/24 19/7/1 4/8/30
f 26/6/31 27/11/25 19/7/1 18/3/24
f 25/5/32 26/6/31 18/3/24 17/2/23
f 23/9/33 26/6/31 25/5/32 24/10/34
f 1/12/35 27/11/25 26/6/31 23/9/33
f 1/88/36 13/89/37 28/85/26 27/84/25
f 78/93/38 79/90/27 28/85/26 13/89/37
f 30/102/29 69/98/28 59/101/39 5/103/40
f 32/104/41 64/105/42 65/106/14 9/107/13
f 33/15/43 32/21/41 9/22/13 12/16/16
f 72/125/22 73/120/44 34/122/45 16/126/10
f 34/122/45 17/128/23 7/130/11 16/126/10
f 35/123/46 25/127/47 17/128/23 34/122/45
f 34/122/45 73/120/44 74/119/48 35/123/46
f 37/108/49 63/109/50 64/105/42 32/104/41
f 39/115/51 37/108/49 32/104/41 38/116/52
f 41/113/53 37/108/49 39/115/51 40/118/54
f 62/112/55 63/109/50 37/108/49 41/113/53
f 35/123/46 74/119/48 75/121/56 43/124/57
f 24/129/34 25/127/47 35/123/46 43/124/57
f 44/53/58 13/54/37 1/55/59 23/56/33
f 77/57/60 78/58/38 13/54/37 44/53/58
f 59/68/39 60/67/61 46/72/62 5/73/63
f 6/13/8 47/14/64 33/15/43 12/16/16
f 48/19/65 38/25/52 32/21/41 33/15/43
f 50/20/66 49/29/67 40/30/54 39/26/51
f 38/25/52 48/19/65 50/20/66 39/26/51
f 48/19/65 33/15/43 47/14/64 50/20/66
f 22/17/68 51/18/69 47/14/64 6/13/8
f 47/14/64 51/18/69 52/24/70 50/20/66
f 53/28/71 49/29/67 50/20/66 52/24/70
f 53/28/71 54/32/72 40/30/54 49/29/67
f 55/75/73 41/76/53 40/79/54 54/77/72
f 61/71/74 62/74/55 41/76/53 55/75/73
f 43/65/57 75/69/56 76/63/75 57/60/76
f 76/63/75 77/57/60 44/53/58 57/60/76
f 57/60/76 58/59/77 24/64/34 43/65/57
f 58/59/77 57/60/76 44/53/58 23/56/33
f 58/59/77 23/56/33 24/64/34
f 46/72/62 60/67/61 61/71/74 55/75/73
f 54/77/72 53/78/71 46/72/62 55/75/73
f 46/31/62 53/28/71 52/24/70 5/27/63
f 5/27/63 52/24/70 51/18/69 30/23/78
f 51/18/69 22/17/68 30/23/78
f 45/62/79 60/67/61 59/68/39 2/61/80
f 61/71/74 60/67/61 45/62/79 56/66/81
f 42/70/82 62/74/55 61/71/74 56/66/81
f 36/114/83 63/109/50 62/112/55 42/117/82
f 64/105/42 63/109/50 36/114/83 31/110/84
f 65/106/14 64/105/42 31/110/84 8/111/85
f 66/47/15 65/48/14 8/41/85 11/42/86
f 67/49/5 66/47/15 11/42/86 3/46/87
f 3/92/87 21/91/88 68/95/6 67/96/5
f 69/98/28 68/95/6 21/91/88 29/94/89
f 59/101/39 69/98/28 29/94/89 2/97/80
f 11/42/86 71/37/21 70/43/20 3/46/87
f 8/41/85 72/38/22 71/37/21 11/42/86
f 31/44/84 73/45/44 72/38/22 8/41/85
f 74/119/48 73/120/44 31/110/84 36/114/83
f 75/121/56 74/119/48 36/114/83 42/117/82
f 76/63/75 75/69/56 42/70/82 56/66/81
f 45/62/79 77/57/60 76/63/75 56/66/81
f 2/61/80 78/58/38 77/57/60 45/62/79
f 29/94/89 79/90/27 78/93/38 2/97/80
f 21/91/88 80/86/19 79/90/27 29/94/89
f 70/87/20 80/86/19 21/91/88 3/92/87
