# This file uses centimeters as units for non-parametric coordinates.

mtllib OBJ_Roche_10.mtl
g default
v 0.033388 3.041934 0.422971
v 0.159801 2.954794 -0.925745
v -1.636932 2.796010 -0.780737
v -1.713542 3.051602 0.219203
v 1.866428 2.903948 0.717717
v 1.834000 2.619721 -0.831608
v -2.252261 2.390178 -0.822438
v -2.464049 2.591318 0.213994
v -2.447147 1.364206 0.669392
v -2.573158 1.231342 -0.686592
v -2.328637 0.375879 0.679492
v -2.483119 0.512995 -0.525212
v -1.698047 -0.070816 -0.731929
v -1.426641 -0.125698 0.521227
v -0.152056 0.013669 -0.826679
v -0.112530 -0.219333 0.414661
v 1.053572 -0.236542 0.356590
v 1.075369 0.133443 -0.844806
v 2.165392 0.212451 -0.514117
v 1.990313 -0.023789 0.316172
v 2.503199 0.894054 -0.705481
v 2.573158 0.789380 0.525002
v 2.380844 2.519975 -0.476496
v 2.520842 2.196255 0.548442
v 1.684313 0.803282 1.164364
v 0.759899 0.553993 1.137881
v 2.059942 1.351199 1.141914
v 1.927547 2.131922 1.031441
v 1.520777 2.408635 1.077572
v 0.067665 2.417595 1.119748
v -1.478327 2.490347 1.122680
v -1.728546 2.133519 1.073753
v -1.662151 1.383607 1.209531
v -1.458900 0.738196 1.115886
v -1.017735 0.490938 1.053162
v -0.123278 0.511343 1.112571
v -0.970539 1.541560 1.263716
v 1.134214 1.534868 1.292285
v -0.006420 1.534671 1.273980
v 0.965395 1.069482 -1.214670
v 1.811478 1.023802 -1.076568
v 2.059309 1.322958 -1.058154
v 2.010820 2.004162 -0.977481
v 1.639919 2.286699 -1.019186
v 0.074911 2.432764 -1.106996
v -1.449216 2.221965 -1.075734
v -1.938791 1.931080 -1.075710
v -2.127166 1.164942 -0.999686
v -2.031318 0.662361 -1.038098
v -1.585988 0.499291 -1.156708
v -0.331341 0.474187 -1.179649
vt 0.857675 0.209151
vt 0.910068 0.214285
vt 0.892472 0.261698
vt 0.852426 0.253927
vt 0.863911 0.181396
vt 0.910458 0.176098
vt 0.925692 0.244010
vt 0.930938 0.215035
vt 0.892673 0.279483
vt 0.854038 0.269607
vt 0.842641 0.236188
vt 0.845578 0.206586
vt 0.904343 0.156718
vt 0.855924 0.158838
vt 0.844094 0.187167
vt 0.927582 0.257797
vt 0.624187 0.428128
vt 0.625062 0.375581
vt 0.671021 0.379490
vt 0.662469 0.440219
vt 0.606147 0.425725
vt 0.602021 0.396565
vt 0.632862 0.345208
vt 0.663874 0.354032
vt 0.684194 0.395510
vt 0.681181 0.420953
vt 0.675732 0.443944
vt 0.617864 0.454560
vt 0.601182 0.376100
vt 0.957508 0.852984
vt 0.950495 0.792857
vt 0.996916 0.788505
vt 0.991925 0.850347
vt 0.926412 0.844888
vt 0.926513 0.791677
vt 0.993676 0.730882
vt 0.940350 0.729765
vt 0.927964 0.741662
vt 0.812317 0.523699
vt 0.816219 0.571816
vt 0.770335 0.581753
vt 0.766866 0.525147
vt 0.837871 0.524093
vt 0.835696 0.556843
vt 0.754781 0.577650
vt 0.753942 0.531711
vt 0.766202 0.480204
vt 0.810191 0.481003
vt 0.837993 0.572997
vt 0.822014 0.604842
vt 0.838798 0.491755
vt 0.759124 0.593956
vt 0.777904 0.610499
vt 0.808711 0.446704
vt 0.778310 0.440293
vt 0.839768 0.457908
vt 0.319507 0.756754
vt 0.321644 0.737044
vt 0.345155 0.758784
vt 0.328700 0.770267
vt 0.299672 0.783109
vt 0.293571 0.752355
vt 0.328997 0.818541
vt 0.299666 0.821002
vt 0.267086 0.795544
vt 0.275368 0.764834
vt 0.331414 0.869901
vt 0.299895 0.853032
vt 0.265670 0.824885
vt 0.319560 0.878213
vt 0.294647 0.876008
vt 0.264992 0.854599
vt 0.273206 0.869255
vt 0.261169 0.898149
vt 0.294003 0.902086
vt 0.734683 0.617204
vt 0.761790 0.605380
vt 0.764430 0.641797
vt 0.733157 0.645471
vt 0.724689 0.608924
vt 0.739018 0.594094
vt 0.768431 0.682804
vt 0.753046 0.688794
vt 0.701930 0.610544
vt 0.687611 0.675221
vt 0.694654 0.726141
vt 0.692491 0.622935
vt 0.752207 0.730711
vt 0.704372 0.742498
vt 0.675475 0.732413
vt 0.670170 0.672385
vt 0.681365 0.616451
vt 0.684697 0.598182
vt 0.746759 0.745589
vt 0.729968 0.748791
vt 0.689034 0.752971
vn -0.199713 0.967641 0.154228
vn 0.036552 0.983874 0.175088
vn 0.057583 0.922335 -0.382077
vn -0.181176 0.887092 -0.424550
vn 0.259390 0.909168 -0.325776
vn 0.242882 0.950022 0.196129
vn -0.841978 0.400609 -0.361366
vn -0.887918 0.429681 0.164246
vn -0.979209 0.007806 -0.202703
vn -0.906708 0.037346 0.420103
vn -0.849607 -0.519574 -0.090612
vn -0.738590 -0.546935 0.394141
vn -0.198021 -0.952523 0.231272
vn -0.251023 -0.924458 -0.286993
vn 0.009703 -0.980700 0.195277
vn 0.029546 -0.882196 -0.469954
vn 0.136710 -0.784743 -0.604556
vn 0.113509 -0.969636 0.216615
vn 0.453746 -0.855497 0.249479
vn 0.527610 -0.742386 -0.412905
vn 0.940236 -0.142247 -0.309391
vn 0.940918 -0.214369 0.262142
vn 0.940665 0.290083 0.176070
vn 0.878489 0.441479 -0.182632
vn 0.261478 -0.445012 0.856501
vn 0.056997 -0.476645 0.877246
vn 0.504187 -0.086559 0.859246
vn 0.487611 0.199086 0.850059
vn 0.088730 0.474585 0.875726
vn -0.008822 0.524139 0.851587
vn -0.145116 0.612052 0.777389
vn -0.504281 0.293787 0.812028
vn -0.416390 0.006699 0.909162
vn -0.243879 -0.318084 0.916158
vn -0.053601 -0.476665 0.877449
vn -0.009873 -0.451138 0.892400
vn -0.030733 0.012066 0.999455
vn 0.044472 0.048291 0.997843
vn -0.009150 0.021951 0.999717
vn 0.235203 -0.273161 -0.932771
vn 0.061700 -0.086573 -0.994333
vn 0.463146 0.016460 -0.886129
vn 0.383593 0.151840 -0.910934
vn 0.133201 0.204584 -0.969744
vn -0.013564 0.162086 -0.986683
vn -0.060550 0.156335 -0.985846
vn -0.195823 0.099125 -0.975617
vn -0.492969 -0.030040 -0.869528
vn -0.488866 -0.280615 -0.825994
vn -0.111817 -0.236865 -0.965086
vn -0.005115 -0.169138 -0.985579
s 1
g OBJ_Roche_LD_10
usemtl initialShadingGroup
f 4/30/1 1/31/2 2/32/3 3/33/4
f 6/36/5 2/32/3 1/31/2 5/37/6
f 4/9/1 3/10/4 7/4/7 8/3/8
f 10/1/9 9/2/10 8/3/8 7/4/7
f 12/5/11 11/6/12 9/2/10 10/1/9
f 14/13/13 11/6/12 12/5/11 13/14/14
f 16/39/15 14/40/13 13/41/14 15/42/16
f 18/47/17 17/48/18 16/39/15 15/42/16
f 20/54/19 17/48/18 18/47/17 19/55/20
f 20/23/19 19/24/20 21/19/21 22/18/22
f 24/17/23 22/18/22 21/19/21 23/20/24
f 24/17/23 23/20/24 6/27/5 5/28/6
f 20/54/19 25/56/25 26/51/26 17/48/18
f 25/29/25 20/23/19 22/18/22 27/22/27
f 28/21/28 27/22/27 22/18/22 24/17/23
f 28/57/28 24/58/23 5/59/6 29/60/29
f 30/35/30 29/38/29 5/37/6 1/31/2
f 1/31/2 4/30/1 31/34/31 30/35/30
f 31/16/31 4/9/1 8/3/8 32/7/32
f 32/7/32 8/3/8 9/2/10 33/8/33
f 11/74/12 34/73/34 33/71/33 9/75/10
f 14/40/13 35/44/35 34/49/34 11/50/12
f 36/43/36 35/44/35 14/40/13 16/39/15
f 36/43/36 16/39/15 17/48/18 26/51/26
f 32/70/32 33/71/33 37/68/37 31/67/31
f 33/71/33 34/73/34 35/72/35 37/68/37
f 26/65/26 25/66/25 27/62/27 38/61/38
f 29/60/29 38/61/38 27/62/27 28/57/28
f 26/65/26 38/61/38 39/64/39 36/69/36
f 37/68/37 35/72/35 36/69/36 39/64/39
f 31/67/31 37/68/37 39/64/39 30/63/30
f 29/60/29 30/63/30 39/64/39 38/61/38
f 41/76/40 19/77/20 18/78/17 40/79/41
f 42/80/42 21/81/21 19/77/20 41/76/40
f 42/25/42 43/26/43 23/20/24 21/19/21
f 6/92/5 23/93/24 43/84/43 44/87/44
f 44/87/44 45/85/45 2/91/3 6/92/5
f 45/85/45 46/86/46 3/90/4 2/91/3
f 47/89/47 7/96/7 3/90/4 46/86/46
f 47/11/47 48/12/48 10/1/9 7/4/7
f 12/5/11 10/1/9 48/12/48 49/15/49
f 49/52/49 50/45/50 13/41/14 12/53/11
f 50/45/50 51/46/51 15/42/16 13/41/14
f 18/78/17 15/82/16 51/83/51 40/79/41
f 41/76/40 40/79/41 43/84/43 42/80/42
f 45/85/45 44/87/44 43/84/43 40/79/41
f 49/94/49 48/95/48 47/89/47 50/88/50
f 50/88/50 47/89/47 46/86/46 51/83/51
f 45/85/45 40/79/41 51/83/51 46/86/46
