# This file uses centimeters as units for non-parametric coordinates.

mtllib OBJ_Roche_06.mtl
g default
v -1.079175 2.776341 0.982444
v -1.520053 2.236475 0.969059
v -0.529396 1.801606 1.238847
v -0.278749 2.727554 0.994121
v 0.548308 1.869591 1.166959
v 0.557986 2.661740 0.993973
v 1.416337 2.012361 1.042773
v 1.227973 2.602324 0.972609
v 0.572360 0.837328 1.188503
v 1.429878 0.889488 0.949060
v -0.587797 0.904318 1.224796
v -1.423078 1.205805 1.033162
v 1.585661 2.608268 -0.023572
v 1.348554 2.810253 0.343251
v 1.671888 1.702414 -0.507488
v 1.648988 0.933008 -0.498057
v 1.464724 0.169494 0.161227
v 0.586987 2.988439 0.197886
v -0.156110 3.027138 0.249704
v -1.149435 2.969908 0.270987
v -1.653593 2.360245 0.202730
v -1.624841 0.790811 0.267393
v -0.685516 0.107760 0.784828
v 0.572340 0.033034 0.690827
v 0.723471 2.887211 -0.372956
v -0.166852 2.883953 -0.510281
v -1.047328 2.893930 -0.597953
v -1.671173 2.148403 -0.491440
v -1.671888 0.844299 -0.493782
v -1.413131 0.044376 -0.166650
v -0.618982 -0.121600 -0.030661
v 0.445321 -0.109386 -0.121253
v 1.146945 0.160766 -0.634329
v 1.432910 0.950460 -0.935779
v 1.392684 1.954080 -0.976384
v 1.245988 2.641141 -0.804756
v 0.616244 2.806396 -0.747340
v -0.149715 2.773788 -0.829010
v -0.996442 2.765287 -0.938362
v -1.515125 1.650928 -0.959804
v -1.394916 0.879112 -0.883058
v -1.414762 0.234333 -0.636635
v -0.530622 0.056327 -0.694163
v 0.222722 0.055023 -0.844259
v 0.286299 0.492477 -1.059087
v 0.818185 1.253827 -1.143669
v 1.141932 1.932304 -1.067434
v 0.819801 2.181688 -1.078500
v 0.517865 2.220752 -1.099010
v -0.131872 2.208080 -1.156974
v -0.512575 2.197933 -1.175389
v -0.839511 1.589205 -1.178366
v -0.769987 0.982769 -1.144276
v -1.176376 0.473813 -0.888092
v -0.719732 0.359930 -1.031630
v -0.353677 1.538800 -1.204525
v -0.151008 1.154657 -1.202940
v 0.361845 1.660272 -1.162402
vt 0.954916 0.726828
vt 0.933704 0.719820
vt 0.931340 0.699936
vt 0.967280 0.720021
vt 0.934498 0.662091
vt 0.983590 0.689490
vt 0.961051 0.637824
vt 0.983272 0.663557
vt 0.999394 0.697972
vt 0.993609 0.721129
vt 0.987865 0.637530
vt 0.998025 0.664146
vt 0.984947 0.142683
vt 0.982589 0.180600
vt 0.954396 0.185153
vt 0.956775 0.127416
vt 0.983081 0.200461
vt 0.956908 0.207582
vt 0.928859 0.177360
vt 0.928773 0.129384
vt 0.975811 0.102288
vt 0.991997 0.131592
vt 0.924941 0.204787
vt 0.911629 0.159059
vt 0.914452 0.130665
vt 0.923518 0.106944
vt 0.940808 0.099956
vt 0.945810 0.093850
vt 0.912417 0.200054
vt 0.914267 0.115754
vt 0.917290 0.012218
vt 0.938754 0.008106
vt 0.943712 0.034079
vt 0.916561 0.035068
vt 0.951265 0.000019
vt 0.963180 0.029424
vt 0.941945 0.059422
vt 0.916556 0.063605
vt 0.977907 0.011604
vt 0.975949 0.033081
vt 0.967864 0.059788
vt 0.941219 0.093299
vt 0.916955 0.090903
vt 0.978734 0.059204
vt 0.970854 0.089817
vt 0.987942 0.036436
vt 0.989919 0.058595
vt 0.982463 0.088081
vt 0.797078 0.969123
vt 0.793712 0.929582
vt 0.823882 0.924863
vt 0.827375 0.971595
vt 0.772427 0.965841
vt 0.766851 0.937852
vt 0.804207 0.891709
vt 0.774650 0.903515
vt 0.842372 0.924863
vt 0.843721 0.967965
vt 0.759889 0.972867
vt 0.758869 0.935490
vt 0.774564 0.998688
vt 0.792025 0.998628
vt 0.833476 0.893004
vt 0.765222 0.989832
vt 0.998396 0.421796
vt 1.000000 0.448105
vt 0.982255 0.462596
vt 0.967962 0.430035
vt 0.938469 0.431954
vt 0.948379 0.459409
vt 0.970196 0.394612
vt 0.996233 0.394294
vt 0.936267 0.393822
vt 0.994280 0.372272
vt 0.974889 0.366081
vt 0.937982 0.365636
vt 0.244288 0.894219
vt 0.270652 0.903766
vt 0.259578 0.932499
vt 0.234160 0.914742
vt 0.237470 0.947099
vt 0.220590 0.929977
vt 0.211508 0.903933
vt 0.210781 0.895562
vt 0.224645 0.953865
vt 0.202301 0.946460
vt 0.203182 0.914688
vt 0.243209 0.967764
vt 0.264003 0.966086
vt 0.187843 0.900459
vt 0.222963 0.970085
vt 0.202640 0.959170
vt 0.201878 0.924768
vt 0.260201 0.981332
vt 0.246670 0.988628
vt 0.182326 0.921484
vt 0.220902 0.992641
vt 0.183698 0.975325
vt 0.183414 0.947056
vn 0.004207 0.620832 0.783932
vn -0.286258 0.645008 0.708535
vn -0.168007 0.112768 0.979315
vn -0.068770 0.088241 0.993722
vn 0.099180 0.077678 0.992033
vn 0.082552 0.611641 0.786817
vn 0.404842 0.587231 0.700901
vn 0.164153 0.048876 0.985223
vn 0.768796 -0.213459 0.602817
vn 0.157069 -0.300457 0.940774
vn -0.176330 -0.293824 0.939455
vn -0.696657 -0.189653 0.691883
vn 0.525571 0.827298 0.198377
vn 0.981505 0.049929 0.184810
vn 0.946690 0.321234 0.024204
vn 0.998309 0.036494 -0.045242
vn 0.757694 -0.610688 0.230131
vn 0.980517 -0.176075 -0.087083
vn 0.124481 0.986879 0.102831
vn 0.020931 0.993835 0.108880
vn -0.410285 0.909837 0.062144
vn -0.956852 0.279565 0.079235
vn -0.954203 0.182106 0.237347
vn -0.895873 -0.314135 0.314215
vn -0.253652 -0.735141 0.628672
vn 0.169444 -0.804641 0.569071
vn 0.193013 0.963790 -0.183999
vn 0.007658 0.979997 -0.198867
vn -0.440192 0.850371 -0.288271
vn -0.948875 0.253478 -0.188111
vn -0.984305 -0.114431 -0.134346
vn -0.609578 -0.781666 0.131958
vn -0.199255 -0.972785 0.118266
vn 0.111709 -0.993007 -0.038188
vn 0.457730 -0.725619 -0.513771
vn 0.585556 -0.287565 -0.757912
vn 0.729987 0.171424 -0.661614
vn 0.604439 0.622771 -0.496799
vn 0.133191 0.807017 -0.575312
vn 0.060103 0.726374 -0.684667
vn -0.390057 0.515837 -0.762737
vn -0.656798 0.066822 -0.751100
vn -0.643616 -0.142908 -0.751888
vn -0.643521 -0.672843 -0.364916
vn -0.091721 -0.883247 -0.459849
vn 0.067026 -0.852024 -0.519194
vn 0.121183 -0.412755 -0.902745
vn 0.188473 -0.162065 -0.968614
vn 0.240886 0.089335 -0.966433
vn 0.122847 0.268667 -0.955367
vn 0.077132 0.348278 -0.934213
vn 0.061980 0.315947 -0.946750
vn -0.112688 0.239481 -0.964339
vn -0.244889 0.032534 -0.969005
vn -0.177358 -0.154944 -0.971873
vn -0.427714 -0.399603 -0.810789
vn -0.135788 -0.421281 -0.896708
vn -0.000627 0.012630 -0.999920
vn 0.017974 -0.105244 -0.994284
vn 0.074155 0.006068 -0.997228
s 1
g OBJ_Roche_LD_06
usemtl initialShadingGroup
f 4/65/1 1/66/2 2/67/3 3/68/4
f 3/68/4 5/71/5 6/72/6 4/65/1
f 8/74/7 6/72/6 5/71/5 7/75/8
f 10/76/9 7/75/8 5/71/5 9/73/10
f 5/71/5 3/68/4 11/69/11 9/73/10
f 11/69/11 3/68/4 2/67/3 12/70/12
f 14/1/13 8/2/7 7/3/14 13/4/15
f 10/5/9 15/6/16 13/4/15 7/3/14
f 17/7/17 16/8/18 15/6/16 10/5/9
f 8/31/7 14/32/13 18/33/19 6/34/6
f 19/37/20 4/38/1 6/34/6 18/33/19
f 19/37/20 20/42/21 1/43/2 4/38/1
f 1/17/2 20/18/21 21/15/22 2/14/23
f 12/13/12 2/14/23 21/15/22 22/16/24
f 12/13/12 22/16/24 23/21/25 11/22/11
f 23/52/25 24/51/26 9/57/10 11/58/11
f 17/55/17 10/63/9 9/57/10 24/51/26
f 18/33/19 14/32/13 13/35/15 25/36/27
f 19/37/20 18/33/19 25/36/27 26/41/28
f 20/42/21 19/37/20 26/41/28 27/45/29
f 28/19/30 21/15/22 20/18/21 27/23/29
f 28/19/30 29/20/31 22/16/24 21/15/22
f 23/21/25 22/16/24 30/27/32 31/28/33
f 31/49/33 32/50/34 24/51/26 23/52/25
f 17/55/17 24/51/26 32/50/34 33/56/35
f 16/8/18 17/7/17 33/11/35 34/12/36
f 34/12/36 35/9/37 15/6/16 16/8/18
f 35/9/37 36/10/38 13/4/15 15/6/16
f 36/39/38 37/40/39 25/36/27 13/35/15
f 37/40/39 38/44/40 26/41/28 25/36/27
f 38/44/40 39/48/41 27/45/29 26/41/28
f 28/19/30 27/23/29 39/29/41 40/24/42
f 40/24/42 41/25/43 29/20/31 28/19/30
f 22/16/24 29/20/31 42/26/44 30/27/32
f 42/61/44 43/53/45 31/49/33 30/62/32
f 43/53/45 44/54/46 32/50/34 31/49/33
f 44/54/46 45/60/47 33/56/35 32/50/34
f 34/77/36 33/78/35 45/79/47 46/80/48
f 46/80/48 47/83/49 35/84/37 34/77/36
f 36/90/38 35/84/37 47/83/49 48/87/50
f 36/90/38 48/87/50 49/93/51 37/96/39
f 49/46/51 50/47/52 38/44/40 37/40/39
f 51/92/53 39/98/41 38/99/40 50/86/52
f 51/92/53 52/91/54 40/97/42 39/98/41
f 52/91/54 53/88/55 41/95/43 40/97/42
f 42/26/44 29/20/31 41/25/43 54/30/56
f 55/89/57 54/94/56 41/95/43 53/88/55
f 54/64/56 55/59/57 43/53/45 42/61/44
f 44/54/46 43/53/45 55/59/57 45/60/47
f 52/91/54 51/92/53 50/86/52 56/85/58
f 53/88/55 52/91/54 56/85/58 57/81/59
f 53/88/55 57/81/59 45/79/47 55/89/57
f 58/82/60 48/87/50 47/83/49 46/80/48
f 57/81/59 58/82/60 46/80/48 45/79/47
f 56/85/58 50/86/52 58/82/60 57/81/59
f 50/86/52 49/93/51 48/87/50 58/82/60
