# This file uses centimeters as units for non-parametric coordinates.

mtllib OBJ_Batonnet_Glace_05.mtl
g default
v 7.930857 2.860474 0.272434
v 8.296385 2.862597 0.273671
v 7.930857 2.860474 0.224404
v 8.296385 2.862597 0.224404
v 7.938092 1.922048 0.317194
v 8.296385 1.921851 0.317194
v 8.296385 1.921851 0.272614
v 7.938092 1.922048 0.252953
v 8.223251 1.941218 0.317194
v 8.203856 2.173635 0.315872
v 8.179276 1.923579 0.317194
v 8.179276 1.923579 0.252953
v 8.203856 2.173616 0.251633
v 8.223251 1.941218 0.268582
v 8.203001 2.106145 0.252953
v 8.202955 2.106156 0.317194
v 8.041694 1.902762 0.317194
v 8.013682 2.231139 0.315861
v 7.980673 1.937734 0.317194
v 7.980673 1.937734 0.234856
v 8.013682 2.231119 0.251621
v 8.041694 1.902761 0.252953
v 8.008913 2.095790 0.317194
v 8.008592 2.095707 0.252953
v 8.084017 1.891778 0.317194
v 8.146217 1.923643 0.317194
v 8.116010 2.252097 0.316290
v 8.146217 1.923643 0.252953
v 8.084017 1.891778 0.252953
v 8.116010 2.252084 0.252051
v 8.117445 2.097656 0.317194
v 8.122499 2.097875 0.252953
v 7.935674 2.216659 0.243414
v 8.296385 2.163332 0.245131
v 8.296385 2.167265 0.309244
v 7.935639 2.220952 0.307515
v 8.013682 2.628816 0.225295
v 7.998787 2.879647 0.224404
v 8.034269 2.946376 0.224404
v 8.013682 2.628834 0.289535
v 8.034269 2.946376 0.288644
v 7.998787 2.879647 0.288644
v 8.203856 2.718788 0.289453
v 8.218823 2.889829 0.288644
v 8.182830 2.990648 0.288644
v 8.182830 2.990648 0.224404
v 8.218823 2.889829 0.230873
v 8.203856 2.718773 0.225213
v 8.116010 2.671830 0.225280
v 8.094405 2.971655 0.224404
v 8.137969 3.007372 0.236857
v 8.116010 2.671848 0.289520
v 8.137969 3.007372 0.288644
v 8.094405 2.971655 0.278603
v 8.014638 2.735266 0.224404
v 8.012109 2.733464 0.288644
v 8.116229 2.774164 0.288644
v 8.115753 2.774154 0.224404
v 8.202885 2.755212 0.224404
v 8.207352 2.752164 0.288644
v 7.932399 2.615830 0.294729
v 8.296385 2.660607 0.293263
v 8.296385 2.651000 0.229334
v 7.932216 2.638110 0.229768
vt 0.529427 0.759291
vt 0.537605 0.759291
vt 0.542647 0.803590
vt 0.530885 0.804312
vt 0.545545 0.893054
vt 0.533817 0.894816
vt 0.546449 0.931872
vt 0.537411 0.931872
vt 0.334779 0.762839
vt 0.346564 0.762839
vt 0.344788 0.817674
vt 0.333029 0.816886
vt 0.342443 0.890116
vt 0.330525 0.894204
vt 0.338352 0.934997
vt 0.329541 0.934997
vt 0.103674 0.908895
vt 0.091839 0.908897
vt 0.091839 0.875263
vt 0.103674 0.875263
vt 0.238726 0.895425
vt 0.238726 0.925797
vt 0.226897 0.925795
vt 0.229775 0.895425
vt 0.984286 0.865122
vt 0.984286 0.900789
vt 0.972416 0.900773
vt 0.972416 0.865122
vt 0.611822 0.147983
vt 0.599657 0.147998
vt 0.599657 0.118066
vt 0.615250 0.118066
vt 0.612075 0.173627
vt 0.390023 0.882578
vt 0.390023 0.914707
vt 0.378162 0.914747
vt 0.378162 0.882578
vt 0.697976 0.382315
vt 0.686094 0.382274
vt 0.686094 0.344192
vt 0.697976 0.344192
vt 0.059425 0.390729
vt 0.059425 0.351900
vt 0.071241 0.351568
vt 0.071241 0.390729
vt 0.912991 0.174843
vt 0.924827 0.174281
vt 0.924827 0.199646
vt 0.914183 0.199646
vt 0.924976 0.168132
vt 0.399771 0.851176
vt 0.411591 0.851174
vt 0.411591 0.887513
vt 0.401619 0.887513
vt 0.086437 0.081618
vt 0.098254 0.081949
vt 0.098254 0.108509
vt 0.086437 0.108509
vt 0.115738 0.388837
vt 0.113449 0.345958
vt 0.125260 0.345959
vt 0.125260 0.388837
vt 0.702301 0.359532
vt 0.702301 0.315662
vt 0.714118 0.316223
vt 0.714118 0.359532
vt 0.691496 0.105601
vt 0.691496 0.095786
vt 0.699998 0.095786
vt 0.699998 0.107961
vt 0.667516 0.184402
vt 0.664484 0.171699
vt 0.676497 0.171699
vt 0.676497 0.184402
vt 0.907694 0.015732
vt 0.896784 0.015732
vt 0.899612 0.001084
vt 0.908916 0.001084
vt 0.632070 0.185175
vt 0.632070 0.172901
vt 0.643560 0.174819
vt 0.643560 0.185175
vt 0.699560 0.053140
vt 0.699560 0.068733
vt 0.691496 0.068733
vt 0.691496 0.056567
vt 0.599657 0.159977
vt 0.599657 0.147998
vt 0.607548 0.147998
vt 0.607548 0.159977
vt 0.383564 0.202851
vt 0.383564 0.191066
vt 0.389629 0.191066
vt 0.389629 0.202851
vt 0.700566 0.082379
vt 0.691496 0.082379
vt 0.692248 0.068733
vt 0.700566 0.068733
vt 0.109593 0.639757
vt 0.093450 0.654176
vt 0.099001 0.593818
vt 0.105076 0.593806
vt 0.109593 0.739936
vt 0.093450 0.731310
vt 0.093713 0.625795
vt 0.109427 0.627357
vt 0.097485 0.792967
vt 0.105729 0.789894
vt 0.074646 0.723406
vt 0.074646 0.650324
vt 0.126596 0.729245
vt 0.126596 0.638587
vt 0.087570 0.587962
vt 0.113157 0.597047
vt 0.093490 0.750112
vt 0.110235 0.746069
vt 0.078429 0.781759
vt 0.089480 0.786404
vt 0.060304 0.648452
vt 0.059709 0.721016
vt 0.079793 0.589980
vt 0.126596 0.593489
vt 0.074357 0.742633
vt 0.060755 0.593525
vt 0.068580 0.596407
vt 0.071908 0.769496
vt 0.059425 0.765973
vt 0.073769 0.625452
vt 0.060312 0.528222
vt 0.074662 0.525562
vt 0.068590 0.579535
vt 0.060756 0.582420
vt 0.059675 0.450689
vt 0.074662 0.452399
vt 0.059425 0.409782
vt 0.071922 0.406255
vt 0.093487 0.521705
vt 0.093487 0.444486
vt 0.074838 0.432816
vt 0.087602 0.587989
vt 0.079816 0.585968
vt 0.078450 0.393979
vt 0.089513 0.389328
vt 0.109648 0.536141
vt 0.109648 0.435850
vt 0.094681 0.550074
vt 0.073726 0.550473
vt 0.093440 0.425662
vt 0.105126 0.582139
vt 0.099044 0.582127
vt 0.097527 0.382758
vt 0.105780 0.385834
vt 0.126670 0.538032
vt 0.126670 0.448318
vt 0.109491 0.548553
vt 0.109469 0.429147
vt 0.126670 0.582457
vt 0.113216 0.578894
vt 0.112401 0.404382
vt 0.126670 0.409391
vt 0.526784 0.233300
vt 0.524024 0.201761
vt 0.541086 0.191033
vt 0.541086 0.228279
vn 0.023270 0.032754 0.999193
vn -0.002070 0.047629 0.998863
vn 0.006157 0.003916 0.999973
vn 0.005858 0.003918 0.999975
vn -0.648230 0.207526 -0.732620
vn -0.595674 0.185943 0.781407
vn 0.535117 0.135699 0.833808
vn 0.457025 0.137490 -0.878763
vn 1.000000 -0.000002 0.000000
vn 1.000000 -0.000002 0.000000
vn 1.000000 0.000000 0.000000
vn 1.000000 0.000000 0.000000
vn -0.999966 -0.008207 -0.000000
vn -0.999966 -0.008207 -0.000000
vn -0.999966 -0.008208 -0.000001
vn -0.999966 -0.008208 -0.000001
vn -0.085880 0.016711 -0.996165
vn -0.085880 0.016711 -0.996165
vn -0.085880 0.016711 -0.996165
vn -0.085880 0.016711 -0.996165
vn -0.135322 0.237864 0.961826
vn 0.382697 0.265983 0.884757
vn 0.866600 0.498575 0.020663
vn -0.271636 0.962400 0.000000
vn -0.073774 0.022341 0.997025
vn -0.073759 0.022313 0.997027
vn -0.025922 0.039687 0.998876
vn -0.045391 0.038604 0.998223
vn 0.033694 0.034728 0.998829
vn 0.043329 0.021133 0.998837
vn 0.043249 0.021136 0.998841
vn -0.802779 0.595051 0.038222
vn -0.361035 0.325163 0.874027
vn 0.165779 0.274297 0.947248
vn 0.331283 0.943532 0.000000
vn -0.085071 -0.297008 -0.951078
vn -0.421768 -0.248213 -0.872068
vn -0.021486 -0.043871 -0.998806
vn -0.030619 -0.057982 -0.997848
vn -0.951089 0.308519 -0.015683
vn -0.376088 0.147256 0.914808
vn 0.487603 0.237794 0.840058
vn 0.903475 0.428620 -0.004173
vn -0.002955 0.003288 0.999990
vn -0.003367 0.003278 0.999989
vn 0.939067 -0.343638 -0.008179
vn 0.926323 -0.376727 -0.001763
vn 0.345676 -0.938354 0.000000
vn 0.345676 -0.938354 0.000000
vn -0.938167 -0.346176 0.002319
vn -0.938166 -0.346177 0.002319
vn 0.927342 -0.372256 0.038247
vn 0.927342 -0.372256 0.038247
vn -0.945976 -0.322068 -0.037444
vn -0.945976 -0.322068 -0.037444
vn 0.525265 -0.168147 -0.834161
vn 0.954886 -0.296973 0.000351
vn -0.913327 -0.407226 -0.000327
vn -0.255990 -0.966679 0.000000
vn -0.006099 -0.003911 -0.999974
vn 0.002094 -0.047610 -0.998864
vn 0.969274 -0.120887 -0.214231
vn 0.991678 -0.128741 0.000365
vn -0.165946 0.021521 0.985900
vn 0.485150 -0.023279 -0.874121
vn -0.992527 -0.122021 -0.000390
vn -0.992527 -0.122021 -0.000390
vn 0.142069 0.017484 0.989702
vn -0.985741 -0.168252 0.002575
vn -0.985741 -0.168252 0.002575
vn 0.004966 0.009670 0.999941
vn -0.046978 -0.008060 -0.998863
vn 0.002794 -0.003302 -0.999991
vn 0.002948 -0.003287 -0.999990
vn 0.971192 -0.151447 -0.183982
vn 0.984593 -0.174849 -0.002060
vn 0.666178 -0.032380 -0.745089
vn 0.003413 -0.003279 -0.999989
vn -0.988074 -0.148929 -0.039125
vn -0.988074 -0.148929 -0.039125
vn -0.002890 0.005821 0.999979
vn 0.002177 -0.005763 -0.999981
vn 0.984377 -0.171826 0.038434
vn 0.984377 -0.171826 0.038434
vn -0.028981 -0.014208 -0.999479
vn -0.029060 -0.014196 -0.999477
vn 0.013275 -0.044459 -0.998923
vn 0.004101 -0.035328 -0.999367
vn 0.000983 -0.002871 -0.999995
vn 0.001162 -0.002865 -0.999995
vn 0.001010 -0.002869 -0.999995
vn -0.097923 0.017788 -0.995035
vn -0.097923 0.017788 -0.995035
vn -0.012470 0.002395 -0.999919
vn -0.012470 0.002395 -0.999919
vn -0.012470 0.002395 -0.999919
vn -0.012470 0.002395 -0.999919
vn 1.000000 0.000001 0.000000
vn 1.000000 0.000001 0.000000
vn 1.000000 0.000000 0.000000
vn 1.000000 0.000000 0.000000
vn -0.045221 0.047439 0.997850
vn -0.022219 0.050728 0.998465
vn -0.999973 -0.007314 0.000174
vn -0.999970 -0.007746 0.000089
vn -0.999981 -0.006185 0.000396
vn -0.999981 -0.006185 0.000396
vn 0.012337 0.043820 0.998963
vn 0.030058 0.037600 0.998841
vn 0.037903 0.042162 0.998392
vn -0.995013 0.098073 -0.018211
vn -0.995013 0.098073 -0.018211
vn -0.994310 0.099171 0.038880
vn -0.994733 0.098994 0.026575
vn 0.994082 0.108556 -0.004004
vn 0.994082 0.108556 -0.004004
vn 0.016500 -0.008521 -0.999828
vn 0.916081 0.095594 0.389433
vn -0.748237 0.062346 -0.660495
vn 0.435916 -0.008348 -0.899949
vn 0.435916 -0.008348 -0.899949
vn 0.435916 -0.008348 -0.899949
vn -0.080861 -0.008740 -0.996687
vn -0.954487 0.086102 0.285555
vn -0.351390 0.008764 0.936188
vn 0.994779 0.099871 0.020984
vn -0.995591 0.093711 0.004076
vn 0.535315 -0.005896 -0.844632
vn 0.535315 -0.005896 -0.844632
vn 0.535315 -0.005896 -0.844632
vn -0.354763 -0.030219 -0.934468
vn -0.354763 -0.030219 -0.934468
vn -0.354763 -0.030219 -0.934468
vn 0.993080 0.093515 0.071041
vn 0.995084 0.093598 -0.032377
vn -0.021256 -0.048011 -0.998621
vn -0.030069 -0.040822 -0.998714
vn -0.000064 -0.058561 -0.998284
vn 0.023616 -0.056734 -0.998110
vn 0.024960 -0.048619 -0.998505
s 1
g OBJ_Batonnet_Glace_LD_05
usemtl initialShadingGroup
f 10/99/1 27/100/2 26/101/3 11/102/4
f 51/67/5 53/68/6 45/69/7 46/70/8
s 3
f 6/1/9 7/2/10 34/3/11 35/4/12
s 4
f 8/9/13 5/10/14 36/11/15 33/12/16
s off
f 33/129/17 21/130/18 20/131/19 8/132/20
s 1
f 1/71/21 42/72/22 38/73/23 3/74/24
f 5/124/25 19/125/26 18/110/27 36/119/28
f 35/112/29 10/99/1 9/114/30 6/122/31
f 47/75/32 44/76/33 2/77/34 4/78/35
s 9
f 7/157/36 14/158/37 13/144/38 34/153/39
s 1
f 39/79/40 41/80/41 54/81/42 50/82/43
f 27/100/2 18/110/27 17/121/44 25/113/45
s 12
f 20/83/46 19/84/47 5/85/48 8/86/49
s 13
f 17/87/50 22/88/51 29/89/52 25/90/53
s 9
f 26/91/54 28/92/55 12/93/56 11/94/57
f 9/95/58 14/96/37 7/97/36 6/98/59
f 13/144/38 12/149/56 28/150/60 30/137/61
f 15/17/62 16/18/63 11/19/57 12/20/56
s 1
f 16/106/64 10/99/1 11/102/4
s 9
f 12/149/56 13/144/38 15/155/62
f 15/155/62 13/144/38 14/158/65
f 9/21/58 16/22/66 15/23/67 14/24/37
s 1
f 9/114/30 10/99/1 16/106/68
s 13
f 17/25/50 23/26/69 24/27/70 22/28/51
s 1
f 17/121/44 18/110/27 23/128/71
s 9
f 24/147/72 21/130/73 22/141/74
s 1
f 23/128/71 18/110/27 19/125/26
s 12
f 24/29/75 23/30/76 19/31/47 20/32/46
f 20/32/46 21/33/77 24/29/75
s 9
f 30/137/61 29/140/78 22/141/74 21/130/73
f 26/34/54 31/35/79 32/36/80 28/37/55
s 1
f 27/100/2 31/105/81 26/101/3
s 9
f 28/150/60 32/146/82 30/137/61
s 1
f 25/113/45 31/105/81 27/100/2
s 13
f 32/38/83 31/39/84 25/40/53 29/41/52
s 9
f 30/137/61 32/146/82 29/140/78
f 3/135/85 38/136/86 37/134/87 64/133/88
f 49/138/89 37/134/87 39/142/90 50/143/91
s 1
f 48/145/92 49/138/93 51/151/5 46/152/8
s off
f 63/154/94 48/145/95 47/159/96 4/160/97
s 3
f 62/6/98 63/5/99 4/7/100 2/8/101
s 1
f 61/120/102 40/109/103 42/126/22 1/127/21
s 4
f 64/14/104 61/13/105 1/15/106 3/16/107
s 1
f 41/117/41 40/109/103 52/104/108 54/118/42
f 44/161/33 43/162/109 62/163/110 2/164/34
f 53/107/6 52/104/108 43/103/109 45/108/7
f 39/42/40 55/43/111 56/44/112 41/45/41
f 59/46/113 60/47/114 44/48/33 47/49/32
f 57/51/115 58/52/116 50/53/43 54/54/42
s 9
f 37/134/87 55/139/117 39/142/90
s 1
f 40/109/103 41/117/41 56/123/118
f 43/50/119 44/48/33 60/47/114
s off
f 48/145/120 59/156/121 47/159/122
s 9
f 49/138/89 50/143/91 58/148/123
s 1
f 52/104/108 57/115/124 54/118/125
s 9
f 37/134/87 38/136/86 55/139/117
s 1
f 56/55/118 55/56/126 38/57/23 42/58/22
f 40/109/103 56/123/118 42/126/22
f 52/104/108 53/107/6 57/115/124
f 51/59/5 58/60/127 57/61/124 53/62/6
s off
f 49/138/128 58/148/129 51/151/130
f 46/152/131 59/156/132 48/145/133
s 1
f 45/63/7 60/64/134 59/65/135 46/66/8
f 43/103/109 60/116/134 45/108/7
f 36/119/28 18/110/27 40/109/103 61/120/102
f 52/104/108 40/109/103 18/110/27 27/100/2
f 43/103/109 52/104/108 27/100/2 10/99/1
f 62/111/110 43/103/109 10/99/1 35/112/29
s 3
f 35/4/12 34/3/11 63/5/99 62/6/98
s 9
f 34/153/39 13/144/38 48/145/136 63/154/137
f 13/144/38 30/137/61 49/138/138 48/145/136
f 30/137/61 21/130/139 37/134/87 49/138/138
f 64/133/88 37/134/87 21/130/139 33/129/140
s 4
f 33/12/16 36/11/15 61/13/105 64/14/104
