# This file uses centimeters as units for non-parametric coordinates.

mtllib OBJ_Allumette_Long_02.mtl
g default
v 1.193658 0.000473 0.299673
v 1.257898 0.000473 0.299673
v 1.193658 1.163892 0.365832
v 1.257898 1.163892 0.365832
v 1.193658 1.178838 0.303355
v 1.193658 0.000473 0.235433
v 1.257898 0.000473 0.235433
v 1.193658 0.655910 0.299902
v 1.257898 0.655910 0.299902
v 1.257898 0.658448 0.235712
v 1.193658 0.658448 0.235712
v 1.193658 0.877869 0.247631
v 1.257898 0.877869 0.247631
v 1.257898 0.871386 0.311544
v 1.193658 0.871386 0.311544
v 1.193658 1.051395 0.271025
v 1.257898 1.051395 0.271025
v 1.257898 1.035555 0.333281
v 1.193658 1.035555 0.333281
v 1.193658 0.513255 0.299281
v 1.257898 0.513255 0.299281
v 1.257898 0.513518 0.235041
v 1.193658 0.513518 0.235041
v 1.230274 1.178838 0.303355
v 1.257898 1.172411 0.330220
v 1.257898 1.124037 0.289453
v 1.244086 1.175624 0.316787
v 1.240417 1.158781 0.298304
v 1.257898 1.152864 0.313747
v 1.248014 1.160952 0.309013
vt 0.935922 0.654640
vt 0.947728 0.655106
vt 0.945535 0.695463
vt 0.933780 0.694271
vt 0.936036 0.628402
vt 0.947851 0.628450
vt 0.941233 0.727379
vt 0.929782 0.724465
vt 0.935964 0.534089
vt 0.947779 0.534089
vt 0.937843 0.740740
vt 0.933375 0.746041
vt 0.934246 0.747529
vt 0.930345 0.749637
vt 0.923795 0.748070
vt 0.932816 0.750228
vt 0.936215 0.747130
vt 0.935287 0.750819
vt 0.718630 0.703936
vt 0.730406 0.703470
vt 0.732542 0.742999
vt 0.720817 0.744189
vt 0.718508 0.677348
vt 0.730292 0.677300
vt 0.736530 0.773116
vt 0.725109 0.776022
vt 0.718579 0.583230
vt 0.730364 0.583230
vt 0.742501 0.796660
vt 0.731040 0.799402
vt 0.718508 0.370875
vt 0.730292 0.370875
vt 0.730292 0.382660
vt 0.718508 0.382660
vt 0.594254 0.380533
vt 0.594254 0.368583
vt 0.600879 0.368583
vt 0.603378 0.371152
vt 0.605876 0.373722
vt 0.605876 0.380533
vt 0.610461 0.904586
vt 0.622276 0.904586
vt 0.622276 0.944214
vt 0.610461 0.944214
vt 0.610461 0.878351
vt 0.622276 0.878351
vt 0.622276 0.974406
vt 0.610461 0.974406
vt 0.610461 0.784045
vt 0.622276 0.784045
vt 0.622276 0.998009
vt 0.610461 0.998009
vt 0.842761 0.825401
vt 0.854574 0.825401
vt 0.854574 0.865750
vt 0.842761 0.865750
vt 0.842761 0.793492
vt 0.854574 0.793492
vt 0.854574 0.892401
vt 0.842761 0.892401
vt 0.851359 0.773745
vt 0.854574 0.780134
vt 0.854574 0.986743
vt 0.842761 0.986743
vt 0.842761 0.770057
vt 0.849494 0.770057
vn 0.000000 -0.034222 0.999414
vn 0.000000 -0.034222 0.999414
vn 0.000000 -0.087586 0.996157
vn 0.000000 -0.087586 0.996157
vn 0.000000 0.089507 -0.995986
vn 0.000000 0.089507 -0.995986
vn 0.000000 0.034535 -0.999404
vn 0.000000 0.034535 -0.999404
vn 0.000000 -1.000000 0.000000
vn 0.000000 -1.000000 0.000000
vn 0.000000 -1.000000 0.000000
vn 0.000000 -1.000000 0.000000
vn 1.000000 -0.000000 0.000000
vn 1.000000 -0.000000 0.000000
vn 1.000000 0.000000 0.000000
vn 1.000000 0.000000 0.000000
vn -1.000000 0.000000 0.000000
vn -1.000000 0.000000 0.000000
vn -1.000000 0.000000 0.000000
vn -1.000000 0.000000 0.000000
vn 0.000000 -0.000349 1.000000
vn 0.000000 -0.000349 1.000000
vn 1.000000 -0.000000 0.000000
vn 1.000000 -0.000000 0.000000
vn 0.000000 0.000424 -1.000000
vn 0.000000 0.000424 -1.000000
vn -1.000000 -0.000000 0.000000
vn -1.000000 -0.000000 0.000000
vn -0.000027 0.163422 -0.986556
vn -0.000088 0.164493 -0.986378
vn 1.000000 0.000000 0.000000
vn 1.000000 0.000000 0.000000
vn 0.000000 -0.182482 0.983209
vn 0.000000 -0.182482 0.983209
vn -1.000000 0.000000 0.000000
vn -1.000000 0.000000 0.000000
vn 0.050660 0.269287 -0.961727
vn 0.666330 0.480524 -0.570176
vn 0.698732 0.179289 -0.692553
vn 0.000000 -0.245851 0.969308
vn 0.000000 -0.245851 0.969308
vn -1.000000 0.000000 0.000000
vn -1.000000 0.000000 0.000000
vn 0.000000 0.000765 1.000000
vn 0.000000 0.000765 1.000000
vn 1.000000 0.000000 0.000000
vn 1.000000 0.000000 0.000000
vn 0.000000 -0.000763 -1.000000
vn 0.000000 -0.000763 -1.000000
vn -1.000000 -0.000000 0.000000
vn -1.000000 -0.000000 0.000000
vn 0.998517 0.035089 -0.041635
vn 0.000693 0.245708 -0.969344
vn 0.031720 0.719279 -0.693997
vn 0.000001 0.972559 0.232656
vn 0.000001 0.972560 0.232651
vn 0.856568 0.508286 0.089087
vn 0.108889 0.986292 0.123980
vn 0.000000 0.972558 0.232660
vn 1.000000 0.000000 0.000000
s 1
g OBJ_Allumette_Long_LD_02
usemtl initialShadingGroup
f 8/41/1 9/42/2 14/43/3 15/44/4
s 2
f 12/53/5 13/54/6 10/55/7 11/56/8
s off
f 6/31/9 7/32/10 2/33/11 1/34/12
s 2
f 9/1/13 10/2/14 13/3/15 14/4/16
s 4
f 11/19/17 8/20/18 15/21/19 12/22/20
s 1
f 20/45/21 21/46/22 9/42/2 8/41/1
s 2
f 21/5/23 22/6/24 10/2/14 9/1/13
f 11/56/8 10/55/7 22/59/25 23/60/26
s 4
f 23/23/27 20/24/28 8/20/18 11/19/17
s 2
f 16/57/29 17/58/30 13/54/6 12/53/5
f 14/4/16 13/3/15 17/7/31 18/8/32
s 1
f 15/44/4 14/43/3 18/47/33 19/48/34
s 4
f 12/22/20 15/21/19 19/25/35 16/26/36
s 2
f 28/17/37 30/13/38 26/11/39
s 1
f 19/48/34 18/47/33 4/51/40 3/52/41
s 4
f 16/26/36 19/25/35 3/29/42 5/30/43
s 1
f 1/49/44 2/50/45 21/46/22 20/45/21
s 2
f 2/9/46 7/10/47 22/6/24 21/5/23
f 23/60/26 22/59/25 7/63/48 6/64/49
s 4
f 6/27/50 1/28/51 20/24/28 23/23/27
s 2
f 18/8/32 17/7/31 26/11/39 29/12/52
f 5/65/53 24/66/54 28/61/37 16/57/29
f 3/35/55 4/36/56 25/37/57 27/38/58
f 3/35/55 27/38/58 24/39/54 5/40/59
f 16/57/29 28/61/37 26/62/39 17/58/30
f 18/8/32 29/12/52 25/14/57 4/15/60
f 30/13/38 29/12/52 26/11/39
f 27/16/58 30/13/38 28/17/37 24/18/54
f 25/14/57 29/12/52 30/13/38 27/16/58
