# This file uses centimeters as units for non-parametric coordinates.

mtllib OBJ_Allumette_Courte_01.mtl
g default
v 0.631255 0.001364 -0.243609
v 0.695495 0.001364 -0.243609
v 0.631255 0.450068 -0.243609
v 0.695495 0.450068 -0.243609
v 0.631255 0.450068 -0.307849
v 0.695495 0.450068 -0.307849
v 0.631255 0.001364 -0.307849
v 0.695495 0.001364 -0.307849
vt 0.291725 0.815085
vt 0.303510 0.815085
vt 0.303510 0.897400
vt 0.291725 0.897400
vt 0.226897 0.813110
vt 0.238682 0.813110
vt 0.238682 0.895425
vt 0.226897 0.895425
vt 0.804945 0.567996
vt 0.816729 0.567996
vt 0.816729 0.579781
vt 0.804945 0.579781
vt 0.108046 0.388837
vt 0.119831 0.388837
vt 0.119831 0.400622
vt 0.108046 0.400622
vt 0.259311 0.815776
vt 0.271096 0.815776
vt 0.271096 0.898091
vt 0.259311 0.898091
vt 0.243104 0.816283
vt 0.254889 0.816283
vt 0.254889 0.898598
vt 0.243104 0.898598
vn 0.000000 0.000000 1.000000
vn 0.000000 0.000000 1.000000
vn 0.000000 0.000000 1.000000
vn 0.000000 0.000000 1.000000
vn 0.000000 1.000000 0.000000
vn 0.000000 1.000000 0.000000
vn 0.000000 1.000000 0.000000
vn 0.000000 1.000000 0.000000
vn 0.000000 0.000000 -1.000000
vn 0.000000 0.000000 -1.000000
vn 0.000000 0.000000 -1.000000
vn 0.000000 0.000000 -1.000000
vn 0.000000 -1.000000 0.000000
vn 0.000000 -1.000000 0.000000
vn 0.000000 -1.000000 0.000000
vn 0.000000 -1.000000 0.000000
vn 1.000000 0.000000 0.000000
vn 1.000000 0.000000 0.000000
vn 1.000000 0.000000 0.000000
vn 1.000000 0.000000 0.000000
vn -1.000000 0.000000 0.000000
vn -1.000000 0.000000 0.000000
vn -1.000000 0.000000 0.000000
vn -1.000000 0.000000 0.000000
s off
g OBJ_Allumette_Courte_LD_01
usemtl initialShadingGroup
f 1/17/1 2/18/2 4/19/3 3/20/4
f 3/9/5 4/10/6 6/11/7 5/12/8
f 5/21/9 6/22/10 8/23/11 7/24/12
f 7/13/13 8/14/14 2/15/15 1/16/16
f 2/1/17 8/2/18 6/3/19 4/4/20
f 7/5/21 1/6/22 3/7/23 5/8/24
