# This file uses centimeters as units for non-parametric coordinates.

mtllib OBJ_Batonnet_Glace_07.mtl
g default
v 9.937251 2.880490 0.271913
v 10.183365 2.830107 0.273255
v 9.936853 2.882855 0.223944
v 10.183712 2.832548 0.224051
v 9.921597 2.014239 0.328225
v 10.196386 2.002766 0.328225
v 10.196386 2.002766 0.283645
v 9.921597 2.014239 0.263985
v 10.141426 1.975579 0.328225
v 10.125341 2.173635 0.326903
v 10.106207 1.923579 0.328225
v 10.106207 1.923579 0.263985
v 10.125341 2.173616 0.262664
v 10.141426 1.975579 0.279613
v 10.124676 2.106145 0.263985
v 10.124640 2.106156 0.328225
v 9.999103 1.902761 0.328225
v 9.977297 2.231139 0.326892
v 9.948456 1.984764 0.328225
v 9.948456 1.984764 0.245887
v 9.977297 2.231119 0.262652
v 9.999103 1.902761 0.263985
v 9.973584 2.095790 0.328225
v 9.973334 2.095707 0.263985
v 10.032050 1.891778 0.328225
v 10.080471 1.923643 0.328225
v 10.056956 2.252097 0.327321
v 10.080471 1.923643 0.263985
v 10.032050 1.891778 0.263985
v 10.056956 2.252084 0.263082
v 10.058073 2.097656 0.328225
v 10.062008 2.097875 0.263985
v 9.916570 2.216659 0.254445
v 10.205150 2.163332 0.256162
v 10.205150 2.167265 0.320275
v 9.916542 2.220952 0.318546
v 9.977297 2.628816 0.214327
v 9.969598 2.915932 0.224909
v 9.996278 2.961915 0.228270
v 9.977297 2.628834 0.278567
v 9.995826 2.958732 0.292429
v 9.970130 2.912769 0.289068
v 10.125341 2.718788 0.278485
v 10.151118 2.870045 0.289581
v 10.115776 2.908217 0.294659
v 10.116227 2.911400 0.230500
v 10.151525 2.872907 0.231883
v 10.125341 2.718773 0.214245
v 10.056956 2.671830 0.214312
v 10.045858 2.975957 0.229544
v 10.084119 2.935268 0.243779
v 10.056956 2.671848 0.278552
v 10.083754 2.932702 0.295501
v 10.045478 2.973271 0.283674
v 9.978041 2.737056 0.217638
v 9.976072 2.732019 0.281706
v 10.057126 2.772668 0.283755
v 10.056755 2.775894 0.219596
v 10.124585 2.756975 0.218642
v 10.128062 2.750696 0.282647
v 9.919950 2.615830 0.283761
v 10.197372 2.660607 0.282295
v 10.197372 2.651000 0.218366
v 9.919808 2.638110 0.218800
vt 0.113449 0.750212
vt 0.121677 0.750212
vt 0.126749 0.779848
vt 0.114916 0.780574
vt 0.133726 0.869858
vt 0.121926 0.871631
vt 0.132676 0.903366
vt 0.123594 0.902916
vt 0.131231 0.910815
vt 0.120581 0.910287
vt 0.494609 0.735837
vt 0.506553 0.735837
vt 0.504753 0.774269
vt 0.492835 0.773471
vt 0.491244 0.730357
vt 0.506553 0.730357
vt 0.498286 0.847685
vt 0.486208 0.851827
vt 0.496083 0.896890
vt 0.487165 0.897330
vt 0.499273 0.902892
vt 0.487344 0.903480
vt 0.357563 0.915017
vt 0.345748 0.915019
vt 0.345748 0.881440
vt 0.357563 0.881440
vt 0.303558 0.897400
vt 0.303558 0.921452
vt 0.291725 0.921450
vt 0.294604 0.897400
vt 0.044251 0.870023
vt 0.044251 0.905589
vt 0.032414 0.905574
vt 0.032414 0.870023
vt 0.584957 0.161294
vt 0.572645 0.161310
vt 0.572645 0.140031
vt 0.588426 0.140031
vt 0.585213 0.187247
vt 0.406200 0.887513
vt 0.406200 0.919562
vt 0.394369 0.919602
vt 0.394369 0.887513
vt 0.903226 0.543392
vt 0.891382 0.543352
vt 0.891382 0.505392
vt 0.903226 0.505392
vt 0.612415 0.357316
vt 0.610461 0.315988
vt 0.622236 0.315062
vt 0.624207 0.356731
vt 0.610461 0.358207
vt 0.622338 0.357041
vt 0.623625 0.379188
vt 0.612918 0.379720
vt 0.415978 0.851162
vt 0.427758 0.851754
vt 0.425931 0.888485
vt 0.415993 0.887992
vt 0.017559 0.264723
vt 0.029318 0.265647
vt 0.027983 0.298480
vt 0.016207 0.297900
vt 0.863435 0.394006
vt 0.858968 0.364563
vt 0.870820 0.363968
vt 0.872990 0.393532
vt 0.000161 0.265722
vt 0.002456 0.235619
vt 0.014688 0.236819
vt 0.012422 0.266330
vt 0.015528 0.229518
vt 0.009884 0.270892
vt 0.000000 0.270401
vt 0.837443 0.012475
vt 0.837358 0.000468
vt 0.846651 0.002106
vt 0.846722 0.012237
vt 0.572645 0.185388
vt 0.572645 0.173288
vt 0.578851 0.173288
vt 0.578851 0.185388
vt 0.696898 0.012260
vt 0.696898 0.000475
vt 0.701620 0.000475
vt 0.701620 0.012260
vt 0.700915 0.118605
vt 0.691496 0.118605
vt 0.692277 0.107956
vt 0.700915 0.107956
vt 0.913670 0.237208
vt 0.901062 0.251674
vt 0.905398 0.191118
vt 0.910142 0.191106
vt 0.913670 0.337716
vt 0.901062 0.329062
vt 0.901268 0.223200
vt 0.913541 0.224767
vt 0.906003 0.377155
vt 0.911907 0.372640
vt 0.886376 0.321131
vt 0.886376 0.247810
vt 0.926950 0.326989
vt 0.928384 0.236033
vt 0.896470 0.185243
vt 0.916636 0.200693
vt 0.901094 0.347650
vt 0.914172 0.343599
vt 0.889792 0.381954
vt 0.898946 0.384634
vt 0.875175 0.245932
vt 0.875803 0.318734
vt 0.890396 0.187268
vt 0.918423 0.365603
vt 0.924368 0.358239
vt 0.926769 0.205705
vt 0.886150 0.340155
vt 0.876107 0.207821
vt 0.881058 0.202386
vt 0.885054 0.373480
vt 0.878993 0.367528
vt 0.885691 0.222856
vt 0.432185 0.854317
vt 0.443387 0.851649
vt 0.438067 0.897094
vt 0.433112 0.891657
vt 0.432782 0.776572
vt 0.443387 0.778287
vt 0.435927 0.731424
vt 0.441967 0.725323
vt 0.458082 0.847782
vt 0.458082 0.770352
vt 0.443524 0.758320
vt 0.453487 0.914247
vt 0.447410 0.912221
vt 0.446889 0.716840
vt 0.456035 0.714250
vt 0.470697 0.862257
vt 0.470697 0.761692
vt 0.459014 0.876229
vt 0.442656 0.876629
vt 0.458045 0.751155
vt 0.467167 0.908381
vt 0.462420 0.908369
vt 0.463093 0.721756
vt 0.469016 0.726159
vt 0.485419 0.864154
vt 0.483984 0.774194
vt 0.470574 0.874703
vt 0.483802 0.893773
vt 0.473664 0.898788
vt 0.475527 0.733259
vt 0.481464 0.740705
vt 0.470557 0.754645
vn 0.037382 0.060776 0.997451
vn -0.005146 0.087912 0.996115
vn 0.007866 0.003913 0.999961
vn 0.007559 0.003915 0.999964
vn -0.736874 0.366406 -0.568123
vn -0.685653 0.258707 0.680405
vn 0.585978 0.065489 0.807676
vn 0.464761 0.206738 -0.860963
vn 0.998559 -0.053629 0.001941
vn 0.998559 -0.053629 0.001941
vn 0.999999 0.001479 -0.000923
vn 1.000000 0.000514 -0.000873
vn -0.999697 -0.024609 0.000600
vn -0.999697 -0.024609 0.000600
vn -0.999995 -0.002738 0.001561
vn -0.999995 -0.002744 0.001560
vn -0.108499 0.021761 -0.993858
vn -0.108499 0.021761 -0.993858
vn -0.108499 0.021761 -0.993858
vn -0.108499 0.021761 -0.993858
vn -0.247136 0.121559 0.961326
vn 0.787849 0.165659 0.593170
vn 0.972865 0.229846 0.026528
vn -0.710683 0.702345 0.040515
vn -0.088492 0.028843 0.995659
vn -0.087787 0.028524 0.995731
vn -0.040804 0.074847 0.996360
vn -0.061209 0.078670 0.995020
vn 0.051650 0.069007 0.996278
vn 0.045220 0.026429 0.998627
vn 0.045032 0.026446 0.998635
vn -0.831785 0.551043 0.066974
vn -0.636387 0.376320 0.673346
vn 0.282283 0.130882 0.950361
vn 0.784724 0.618785 0.036234
vn 0.076749 -0.279183 -0.957166
vn -0.545358 -0.374088 -0.750096
vn -0.034264 -0.072957 -0.996746
vn -0.043978 -0.093845 -0.994615
vn -0.965177 0.261574 -0.003502
vn -0.473701 0.108902 0.873927
vn 0.582532 0.157658 0.797371
vn 0.950337 0.310860 0.015017
vn -0.003867 0.003282 0.999987
vn -0.004289 0.003276 0.999986
vn 0.884433 -0.466191 -0.021079
vn 0.843750 -0.536733 -0.001814
vn -0.739141 -0.673551 -0.000005
vn -0.739141 -0.673551 -0.000005
vn -0.961131 -0.276088 0.001846
vn -0.961130 -0.276088 0.001846
vn 0.954034 -0.298131 0.030631
vn 0.954034 -0.298131 0.030631
vn -0.966197 -0.256081 -0.029773
vn -0.966197 -0.256081 -0.029773
vn 0.626308 -0.156029 -0.763802
vn 0.971918 -0.235319 0.000276
vn -0.866959 -0.498380 -0.000314
vn 0.443377 -0.896335 0.000000
vn -0.007806 -0.003909 -0.999962
vn 0.005170 -0.087885 -0.996117
vn 0.980576 -0.095002 -0.171599
vn 0.994932 -0.100555 0.000282
vn -0.211261 0.021328 0.977197
vn 0.586668 -0.021647 -0.809538
vn -0.991854 -0.127379 -0.000297
vn -0.991854 -0.127379 -0.000297
vn 0.139538 0.017939 0.990054
vn -0.991285 -0.131719 0.002013
vn -0.991285 -0.131719 0.002013
vn 0.015589 0.009417 0.999834
vn -0.060307 -0.008054 -0.998147
vn 0.003718 -0.003292 -0.999988
vn 0.003861 -0.003282 -0.999987
vn 0.957141 -0.178283 -0.228245
vn 0.975576 -0.219658 -0.001538
vn 0.663366 -0.026759 -0.747817
vn 0.004339 -0.003276 -0.999985
vn -0.992722 -0.116478 -0.030602
vn -0.992722 -0.116478 -0.030602
vn -0.003738 0.005821 0.999976
vn 0.003020 -0.005756 -0.999979
vn 0.990445 -0.134585 0.030104
vn 0.990445 -0.134585 0.030104
vn -0.046800 0.030345 -0.998443
vn -0.046956 0.030346 -0.998436
vn 0.026545 -0.073551 -0.996938
vn 0.005771 -0.053976 -0.998526
vn -0.010509 0.045865 -0.998892
vn -0.010389 0.045853 -0.998894
vn -0.010512 0.045865 -0.998892
vn -0.154495 0.104609 -0.982440
vn -0.154495 0.104609 -0.982440
vn 0.035009 0.067970 -0.997073
vn 0.035009 0.067970 -0.997073
vn 0.035009 0.067970 -0.997073
vn 0.035009 0.067970 -0.997073
vn 0.999486 0.032026 -0.001729
vn 0.999579 0.028956 -0.001717
vn 0.996908 0.078554 -0.001916
vn 0.996908 0.078554 -0.001916
vn -0.070667 0.077539 0.994482
vn -0.043140 0.075852 0.996186
vn -0.999286 0.036343 0.010310
vn -0.999713 0.023094 0.006402
vn -0.997528 0.067509 0.019501
vn -0.997528 0.067509 0.019501
vn 0.023485 0.059265 0.997966
vn 0.048809 0.038433 0.998068
vn 0.057918 0.076405 0.995393
vn -0.996337 0.084455 -0.013394
vn -0.996337 0.084455 -0.013394
vn -0.978068 0.204406 0.040025
vn -0.974685 0.201020 0.097874
vn 0.998421 0.056109 0.002885
vn 0.998421 0.056109 0.002885
vn 0.073258 0.029982 -0.996862
vn 0.969415 0.031703 0.243372
vn 0.550291 -0.153951 0.820658
vn -0.003486 0.114253 -0.993446
vn -0.003486 0.114253 -0.993446
vn -0.003486 0.114253 -0.993446
vn 0.020080 0.050744 -0.998510
vn -0.937021 0.121352 0.327514
vn -0.656153 -0.037793 0.753681
vn 0.999129 0.039406 0.013711
vn -0.986131 0.165760 0.008333
vn 0.502168 0.044814 -0.863608
vn 0.502168 0.044814 -0.863608
vn 0.502168 0.044814 -0.863608
vn 0.741664 0.091149 -0.664549
vn 0.741664 0.091149 -0.664549
vn 0.741664 0.091149 -0.664549
vn 0.996260 0.060953 0.061249
vn 0.997550 0.067441 -0.018574
vn -0.042517 -0.091875 -0.994862
vn -0.058515 -0.083480 -0.994790
vn -0.001368 -0.106069 -0.994358
vn 0.042859 -0.109909 -0.993017
vn 0.035867 -0.102049 -0.994133
s 1
g OBJ_Batonnet_Glace_LD_07
usemtl initialShadingGroup
f 10/91/1 27/92/2 26/93/3 11/94/4
f 51/73/5 53/74/6 45/68/7 46/71/8
s 3
f 6/1/9 7/2/10 34/3/11 35/4/12
s 4
f 8/11/13 5/12/14 36/13/15 33/14/16
s off
f 33/123/17 21/124/18 20/125/19 8/126/20
s 1
f 1/19/21 42/21/22 38/22/23 3/20/24
f 5/118/25 19/119/26 18/102/27 36/111/28
f 35/104/29 10/91/1 9/106/30 6/116/31
f 47/9/32 44/10/33 2/8/34 4/7/35
s 9
f 7/150/36 14/151/37 13/138/38 34/147/39
s 1
f 39/75/40 41/76/41 54/77/42 50/78/43
f 27/92/2 18/102/27 17/113/44 25/105/45
s 12
f 20/15/46 19/16/47 5/12/48 8/11/49
s 13
f 17/79/50 22/80/51 29/81/52 25/82/53
s 9
f 26/83/54 28/84/55 12/85/56 11/86/57
f 9/87/58 14/88/37 7/89/36 6/90/59
f 13/138/38 12/143/56 28/144/60 30/131/61
f 15/23/62 16/24/63 11/25/57 12/26/56
s 1
f 16/98/64 10/91/1 11/94/4
s 9
f 12/143/56 13/138/38 15/149/62
f 15/149/62 13/138/38 14/151/65
f 9/27/58 16/28/66 15/29/67 14/30/37
s 1
f 9/106/30 10/91/1 16/98/68
s 13
f 17/31/50 23/32/69 24/33/70 22/34/51
s 1
f 17/113/44 18/102/27 23/122/71
s 9
f 24/141/72 21/124/73 22/135/74
s 1
f 23/122/71 18/102/27 19/119/26
s 12
f 24/35/75 23/36/76 19/37/47 20/38/46
f 20/38/46 21/39/77 24/35/75
s 9
f 30/131/61 29/134/78 22/135/74 21/124/73
f 26/40/54 31/41/79 32/42/80 28/43/55
s 1
f 27/92/2 31/97/81 26/93/3
s 9
f 28/144/60 32/140/82 30/131/61
s 1
f 25/105/45 31/97/81 27/92/2
s 13
f 32/44/83 31/45/84 25/46/53 29/47/52
s 9
f 30/131/61 32/140/82 29/134/78
f 3/129/85 38/130/86 37/128/87 64/127/88
f 49/132/89 37/128/87 39/136/90 50/137/91
s 1
f 48/139/92 49/132/93 51/145/5 46/146/8
s off
f 63/148/94 48/139/95 47/152/96 4/153/97
s 3
f 62/6/98 63/5/99 4/7/100 2/8/101
s 1
f 61/112/102 40/101/103 42/120/22 1/121/21
s 4
f 64/18/104 61/17/105 1/19/106 3/20/107
s 1
f 41/109/41 40/101/103 52/96/108 54/110/42
f 44/114/33 43/95/109 62/103/110 2/115/34
f 53/99/6 52/96/108 43/95/109 45/100/7
f 39/48/40 55/49/111 56/50/112 41/51/41
f 59/52/113 60/53/114 44/54/33 47/55/32
f 57/56/115 58/57/116 50/58/43 54/59/42
s 9
f 37/128/87 55/133/117 39/136/90
s 1
f 40/101/103 41/109/41 56/117/118
f 43/95/119 44/114/33 60/108/114
s off
f 48/139/120 59/154/121 47/152/122
s 9
f 49/132/89 50/137/91 58/142/123
s 1
f 52/96/108 57/107/124 54/110/125
s 9
f 37/128/87 38/130/86 55/133/117
s 1
f 56/60/118 55/61/126 38/62/23 42/63/22
f 40/101/103 56/117/118 42/120/22
f 52/96/108 53/99/6 57/107/124
f 51/64/5 58/65/127 57/66/124 53/67/6
s off
f 49/132/128 58/142/129 51/145/130
f 46/71/131 59/70/132 48/72/133
s 1
f 45/68/7 60/69/134 59/70/135 46/71/8
f 43/95/109 60/108/134 45/100/7
f 36/111/28 18/102/27 40/101/103 61/112/102
f 52/96/108 40/101/103 18/102/27 27/92/2
f 43/95/109 52/96/108 27/92/2 10/91/1
f 62/103/110 43/95/109 10/91/1 35/104/29
s 3
f 35/4/12 34/3/11 63/5/99 62/6/98
s 9
f 34/147/39 13/138/38 48/139/136 63/148/137
f 13/138/38 30/131/61 49/132/138 48/139/136
f 30/131/61 21/124/139 37/128/87 49/132/138
f 64/127/88 37/128/87 21/124/139 33/123/140
s 4
f 33/14/16 36/13/15 61/17/105 64/18/104
