# This file uses centimeters as units for non-parametric coordinates.

mtllib OBJ_Allumette_Souffre_Burn_02.mtl
g default
v 1.816984 1.086462 -0.273659
v 1.814186 1.083800 -0.279971
v 1.803447 1.089299 -0.277449
v 1.792527 1.089957 -0.275191
v 1.792543 1.082580 -0.267783
v 1.794553 1.078873 -0.254586
v 1.794541 1.091004 -0.249142
v 1.810464 1.091225 -0.249981
v 1.820846 1.080108 -0.251571
v 1.818695 1.085342 -0.261799
v 1.835773 1.112890 -0.291089
v 1.815087 1.113732 -0.302473
v 1.795440 1.113301 -0.302312
v 1.780316 1.112018 -0.285943
v 1.772877 1.110427 -0.261389
v 1.777768 1.109080 -0.236351
v 1.798740 1.108895 -0.225267
v 1.826383 1.109409 -0.223718
v 1.845622 1.110817 -0.240741
v 1.847974 1.112522 -0.269251
v 1.842147 1.140269 -0.299594
v 1.816198 1.140418 -0.311890
v 1.788704 1.139502 -0.303510
v 1.767394 1.137807 -0.282683
v 1.761868 1.136198 -0.253295
v 1.773331 1.134590 -0.226694
v 1.801395 1.134451 -0.211912
v 1.831550 1.135333 -0.216200
v 1.849217 1.136451 -0.239100
v 1.855312 1.138876 -0.270984
v 1.838251 1.163409 -0.303678
v 1.812890 1.163432 -0.311014
v 1.784523 1.162240 -0.295527
v 1.760180 1.160289 -0.277225
v 1.757931 1.158649 -0.247424
v 1.773819 1.157095 -0.220807
v 1.804131 1.157073 -0.210373
v 1.832369 1.158006 -0.221533
v 1.850982 1.159621 -0.242003
v 1.850397 1.161984 -0.274476
v 1.830606 1.186170 -0.302589
v 1.806948 1.185999 -0.309508
v 1.779346 1.184712 -0.292749
v 1.762260 1.183290 -0.271102
v 1.764952 1.181847 -0.241073
v 1.778935 1.179988 -0.218251
v 1.807169 1.180155 -0.218212
v 1.833540 1.181298 -0.226034
v 1.847092 1.183021 -0.247153
v 1.842183 1.185104 -0.276990
v 1.824079 1.204030 -0.292558
v 1.801342 1.203824 -0.297610
v 1.777263 1.202560 -0.286921
v 1.763946 1.200554 -0.264193
v 1.767925 1.198964 -0.237376
v 1.786751 1.198329 -0.222463
v 1.811255 1.198691 -0.225474
v 1.833942 1.199747 -0.232798
v 1.843294 1.201287 -0.251187
v 1.834111 1.202190 -0.274620
v 1.817824 1.213264 -0.278149
v 1.799214 1.212951 -0.280477
v 1.782281 1.212086 -0.272925
v 1.774963 1.210738 -0.257072
v 1.779954 1.209679 -0.239752
v 1.795041 1.209363 -0.231086
v 1.813527 1.209708 -0.232647
v 1.829341 1.210534 -0.239747
v 1.835167 1.211821 -0.253232
v 1.830081 1.212963 -0.267979
v 1.811180 1.220137 -0.265841
v 1.800756 1.219848 -0.265980
v 1.792569 1.219251 -0.261296
v 1.789826 1.218586 -0.253172
v 1.793542 1.218102 -0.245072
v 1.802202 1.217970 -0.240721
v 1.812304 1.218237 -0.241407
v 1.820282 1.218809 -0.246276
v 1.823026 1.219480 -0.253774
v 1.819540 1.219994 -0.261235
v 1.806514 1.222652 -0.253051
vt 0.792977 0.194664
vt 0.762658 0.201758
vt 0.765410 0.202104
vt 0.768396 0.202094
vt 0.770839 0.200043
vt 0.774645 0.198301
vt 0.777498 0.199613
vt 0.782903 0.197856
vt 0.787132 0.196283
vt 0.790246 0.195538
vt 0.756894 0.209226
vt 0.761062 0.209803
vt 0.764398 0.209340
vt 0.768206 0.207517
vt 0.772703 0.205667
vt 0.777705 0.204426
vt 0.781898 0.203421
vt 0.787009 0.203176
vt 0.791702 0.203028
vt 0.796771 0.202486
vt 0.756324 0.216950
vt 0.761388 0.216108
vt 0.765796 0.214133
vt 0.770158 0.212004
vt 0.774623 0.210045
vt 0.779096 0.208647
vt 0.783952 0.207858
vt 0.788676 0.207639
vt 0.793300 0.207661
vt 0.798763 0.208159
vt 0.759240 0.222772
vt 0.763565 0.220744
vt 0.768200 0.217883
vt 0.772218 0.215372
vt 0.776230 0.213467
vt 0.780565 0.212093
vt 0.785248 0.211440
vt 0.789891 0.211489
vt 0.794264 0.211990
vt 0.799485 0.213414
vt 0.764313 0.227447
vt 0.767128 0.224341
vt 0.771093 0.221185
vt 0.774453 0.218679
vt 0.778478 0.216738
vt 0.782158 0.215466
vt 0.786273 0.215390
vt 0.790393 0.215578
vt 0.794241 0.216560
vt 0.798583 0.219036
vt 0.770152 0.230175
vt 0.771468 0.226384
vt 0.773942 0.223271
vt 0.776737 0.220822
vt 0.780061 0.219120
vt 0.783357 0.218468
vt 0.786852 0.218807
vt 0.790430 0.218932
vt 0.793285 0.220069
vt 0.796039 0.222824
vt 0.775691 0.230540
vt 0.775913 0.227214
vt 0.777024 0.224451
vt 0.778955 0.222509
vt 0.781483 0.221262
vt 0.784181 0.220904
vt 0.787035 0.221104
vt 0.789823 0.221266
vt 0.791859 0.222247
vt 0.793220 0.224152
vt 0.780412 0.228960
vt 0.780048 0.227095
vt 0.780369 0.225505
vt 0.781421 0.224310
vt 0.782998 0.223556
vt 0.784808 0.223276
vt 0.786647 0.223265
vt 0.788353 0.223551
vt 0.789528 0.224306
vt 0.789884 0.225541
vt 0.784892 0.226119
vt 0.789224 0.227161
vt 0.793833 0.226967
vt 0.798630 0.225500
vt 0.802730 0.221590
vt 0.804808 0.215412
vt 0.804361 0.208619
vt 0.801021 0.200763
vt 0.761296 0.201238
vn 0.598393 -0.682422 -0.419793
vn 0.219255 -0.674061 -0.705386
vn 0.156796 -0.454767 -0.876699
vn 0.658002 -0.481833 -0.578679
vn -0.277737 -0.668839 -0.689577
vn -0.387989 -0.410051 -0.825423
vn -0.646113 -0.603735 -0.466950
vn -0.744496 -0.426707 -0.513466
vn -0.829715 -0.555618 -0.053494
vn -0.891029 -0.451545 -0.046630
vn -0.783232 -0.598501 0.168357
vn -0.708859 -0.499950 0.497563
vn -0.092611 -0.747262 0.658044
vn -0.158592 -0.562398 0.811515
vn 0.098155 -0.764193 0.637475
vn 0.278764 -0.527058 0.802808
vn 0.570942 -0.776900 0.265426
vn 0.797252 -0.483008 0.362066
vn 0.696620 -0.691995 -0.189376
vn 0.866828 -0.463948 -0.182654
vn 0.075493 -0.121065 -0.989770
vn 0.720819 -0.139830 -0.678873
vn -0.501586 -0.065504 -0.862625
vn -0.851788 -0.191841 -0.487498
vn -0.953229 -0.290556 0.083259
vn -0.699117 -0.283351 0.656466
vn -0.140095 -0.228010 0.963527
vn 0.460833 -0.143535 0.875803
vn 0.915293 -0.084353 0.393857
vn 0.984380 -0.089814 -0.151423
vn -0.089739 0.059860 -0.994165
vn 0.693351 0.150134 -0.704787
vn -0.568488 0.048213 -0.821277
vn -0.910601 0.021705 -0.412715
vn -0.977294 -0.015780 0.211300
vn -0.632839 -0.012134 0.774188
vn -0.007124 0.074297 0.997211
vn 0.542456 0.136631 0.828899
vn 0.936727 0.145788 0.318260
vn 0.963819 0.182254 -0.194517
vn -0.168103 0.226886 -0.959304
vn 0.595062 0.369518 -0.713693
vn -0.616518 0.135682 -0.775561
vn -0.937573 0.159727 -0.308940
vn -0.929904 0.157593 0.332329
vn -0.477034 0.195828 0.856790
vn 0.115864 0.233928 0.965325
vn 0.555139 0.238960 0.796693
vn 0.949254 0.247567 0.193976
vn 0.910812 0.317450 -0.263906
vn -0.161986 0.623649 -0.764737
vn 0.448478 0.666000 -0.596080
vn -0.599123 0.499837 -0.625471
vn -0.909261 0.391498 -0.141331
vn -0.817625 0.391651 0.422018
vn -0.272559 0.419267 0.865983
vn 0.171931 0.391239 0.904086
vn 0.580662 0.381319 0.719324
vn 0.920954 0.384057 0.065916
vn 0.814963 0.480171 -0.324455
vn -0.111269 0.876306 -0.468729
vn 0.244200 0.856735 -0.454282
vn -0.425354 0.841741 -0.332484
vn -0.608890 0.793180 0.010917
vn -0.504354 0.761094 0.407877
vn -0.140326 0.686418 0.713540
vn 0.175995 0.619342 0.765141
vn 0.487220 0.661625 0.569972
vn 0.732234 0.680326 0.031456
vn 0.616900 0.720694 -0.316281
vn -0.113932 0.920923 -0.372720
vn 0.112123 0.917652 -0.381239
vn -0.329985 0.919275 -0.214579
vn -0.434924 0.897513 0.072879
vn -0.340296 0.865199 0.368279
vn -0.093747 0.813931 0.573348
vn 0.141960 0.792818 0.592694
vn 0.351134 0.835633 0.422400
vn 0.462118 0.884683 0.061501
vn 0.344200 0.907633 -0.240268
vn -0.025568 0.996660 0.077557
s 1
g OBJ_Allumette_Souffre_Burn_02
usemtl initialShadingGroup
f 1/89/1 2/2/2 12/12/3 11/11/4
f 2/2/2 3/3/5 13/13/6 12/12/3
f 3/3/5 4/4/7 14/14/8 13/13/6
f 4/4/7 5/5/9 15/15/10 14/14/8
f 5/5/9 6/6/11 16/16/12 15/15/10
f 6/6/11 7/7/13 17/17/14 16/16/12
f 7/7/13 8/8/15 18/18/16 17/17/14
f 8/8/15 9/9/17 19/19/18 18/18/16
f 9/9/17 10/10/19 20/20/20 19/19/18
f 10/10/19 1/1/1 11/88/4 20/20/20
f 11/11/4 12/12/3 22/22/21 21/21/22
f 12/12/3 13/13/6 23/23/23 22/22/21
f 13/13/6 14/14/8 24/24/24 23/23/23
f 14/14/8 15/15/10 25/25/25 24/24/24
f 15/15/10 16/16/12 26/26/26 25/25/25
f 16/16/12 17/17/14 27/27/27 26/26/26
f 17/17/14 18/18/16 28/28/28 27/27/27
f 18/18/16 19/19/18 29/29/29 28/28/28
f 19/19/18 20/20/20 30/30/30 29/29/29
f 20/20/20 11/88/4 21/87/22 30/30/30
f 21/21/22 22/22/21 32/32/31 31/31/32
f 22/22/21 23/23/23 33/33/33 32/32/31
f 23/23/23 24/24/24 34/34/34 33/33/33
f 24/24/24 25/25/25 35/35/35 34/34/34
f 25/25/25 26/26/26 36/36/36 35/35/35
f 26/26/26 27/27/27 37/37/37 36/36/36
f 27/27/27 28/28/28 38/38/38 37/37/37
f 28/28/28 29/29/29 39/39/39 38/38/38
f 29/29/29 30/30/30 40/40/40 39/39/39
f 30/30/30 21/87/22 31/86/32 40/40/40
f 31/31/32 32/32/31 42/42/41 41/41/42
f 32/32/31 33/33/33 43/43/43 42/42/41
f 33/33/33 34/34/34 44/44/44 43/43/43
f 34/34/34 35/35/35 45/45/45 44/44/44
f 35/35/35 36/36/36 46/46/46 45/45/45
f 36/36/36 37/37/37 47/47/47 46/46/46
f 37/37/37 38/38/38 48/48/48 47/47/47
f 38/38/38 39/39/39 49/49/49 48/48/48
f 39/39/39 40/40/40 50/50/50 49/49/49
f 40/40/40 31/86/32 41/85/42 50/50/50
f 41/41/42 42/42/41 52/52/51 51/51/52
f 42/42/41 43/43/43 53/53/53 52/52/51
f 43/43/43 44/44/44 54/54/54 53/53/53
f 44/44/44 45/45/45 55/55/55 54/54/54
f 45/45/45 46/46/46 56/56/56 55/55/55
f 46/46/46 47/47/47 57/57/57 56/56/56
f 47/47/47 48/48/48 58/58/58 57/57/57
f 48/48/48 49/49/49 59/59/59 58/58/58
f 49/49/49 50/50/50 60/60/60 59/59/59
f 50/50/50 41/85/42 51/84/52 60/60/60
f 51/51/52 52/52/51 62/62/61 61/61/62
f 52/52/51 53/53/53 63/63/63 62/62/61
f 53/53/53 54/54/54 64/64/64 63/63/63
f 54/54/54 55/55/55 65/65/65 64/64/64
f 55/55/55 56/56/56 66/66/66 65/65/65
f 56/56/56 57/57/57 67/67/67 66/66/66
f 57/57/57 58/58/58 68/68/68 67/67/67
f 58/58/58 59/59/59 69/69/69 68/68/68
f 59/59/59 60/60/60 70/70/70 69/69/69
f 60/60/60 51/84/52 61/83/62 70/70/70
f 61/61/62 62/62/61 72/72/71 71/71/72
f 62/62/61 63/63/63 73/73/73 72/72/71
f 63/63/63 64/64/64 74/74/74 73/73/73
f 64/64/64 65/65/65 75/75/75 74/74/74
f 65/65/65 66/66/66 76/76/76 75/75/75
f 66/66/66 67/67/67 77/77/77 76/76/76
f 67/67/67 68/68/68 78/78/78 77/77/77
f 68/68/68 69/69/69 79/79/79 78/78/78
f 69/69/69 70/70/70 80/80/80 79/79/79
f 70/70/70 61/83/62 71/82/72 80/80/80
f 71/71/72 72/72/71 81/81/81
f 72/72/71 73/73/73 81/81/81
f 73/73/73 74/74/74 81/81/81
f 74/74/74 75/75/75 81/81/81
f 75/75/75 76/76/76 81/81/81
f 76/76/76 77/77/77 81/81/81
f 77/77/77 78/78/78 81/81/81
f 78/78/78 79/79/79 81/81/81
f 79/79/79 80/80/80 81/81/81
f 80/80/80 71/82/72 81/81/81
