# This file uses centimeters as units for non-parametric coordinates.

mtllib OBJ_Origami_Cube_01.mtl
g default
v 10.374189 -0.518810 0.512836
v 11.418191 -0.518978 0.500000
v 10.366389 0.521541 0.512507
v 11.418191 0.521823 0.512698
v 10.352608 0.521330 -0.522095
v 11.418191 0.500000 -0.522754
v 10.360409 -0.519022 -0.521767
v 11.400775 -0.500000 -0.500000
v 10.905091 -0.004316 -0.603550
v 10.909483 0.566107 -0.005028
v 10.900775 0.000000 0.583134
v 11.461727 -0.003155 0.003154
v 10.897270 -0.556372 -0.003184
v 10.355958 0.086984 0.072249
v 10.352351 -0.066712 -0.081369
v 10.352865 0.087548 -0.082687
v 10.368466 -0.064825 0.073288
vt 0.190591 0.000475
vt 0.381182 0.000475
vt 0.190591 0.191066
vt 0.381182 0.191066
vt 0.190591 0.381657
vt 0.381182 0.381657
vt 0.190591 0.572248
vt 0.381182 0.572248
vt 0.190591 0.762839
vt 0.381182 0.762839
vt 0.571773 0.000475
vt 0.571773 0.191066
vt 0.000000 0.000475
vt 0.000000 0.191066
vt 0.285886 0.476953
vt 0.286490 0.286965
vt 0.287479 0.094178
vt 0.478082 0.097375
vt 0.287021 0.668677
vt 0.109447 0.109922
vt 0.081144 0.081619
vt 0.081144 0.109922
vt 0.109447 0.081619
vn 0.072774 0.062201 0.995407
vn 0.006554 -0.005857 0.999961
vn 0.079520 -0.079887 0.993627
vn -0.043127 0.998240 0.040704
vn 0.052579 0.998048 0.033705
vn 0.011109 0.999878 -0.011030
vn -0.077201 0.072942 -0.994344
vn 0.011101 -0.011149 -0.999876
vn -0.069683 -0.084201 -0.994009
vn -0.027251 -0.998672 -0.043718
vn 0.009085 -0.999915 -0.009341
vn -0.036345 -0.998696 0.035855
vn 0.999938 -0.008167 -0.007561
vn 0.996306 -0.060421 -0.061029
vn 0.998154 0.033236 -0.050832
vn 0.100874 -0.105786 -0.989259
vn 0.087507 0.070167 -0.993690
vn -0.033248 0.998164 -0.050632
vn 0.062480 0.995877 -0.065770
vn -0.061601 -0.072363 0.995474
vn -0.067106 0.066059 0.995557
vn 0.998234 0.042664 0.041333
vn 0.998097 -0.051362 0.034134
vn 0.055446 -0.996838 -0.056916
vn 0.045460 -0.998597 0.027148
vn -0.999904 -0.010804 0.008713
vn -0.999908 -0.010715 0.008379
vn -0.999993 0.002734 0.002645
vn -0.999993 0.002650 0.002536
vn -0.999635 -0.016084 0.021691
vn -0.999637 -0.016113 0.021576
vn -0.999867 -0.002696 0.016091
vn -0.999866 -0.002890 0.016117
s 1
g OBJ_Origami_LD_01
usemtl initialShadingGroup
f 4/4/1 11/17/2 2/2/3
s 2
f 3/3/4 4/4/5 10/16/6
s 3
f 5/5/7 9/15/8 7/7/9
s 4
f 7/7/10 13/19/11 1/9/12
s 5
f 12/18/13 8/11/14 6/12/15
s 3
f 7/7/9 9/15/8 8/8/16
f 5/5/7 6/6/17 9/15/8
f 8/8/16 9/15/8 6/6/17
s 2
f 3/3/4 10/16/6 5/5/18
f 10/16/6 4/4/5 6/6/19
f 5/5/18 10/16/6 6/6/19
s 1
f 1/1/20 2/2/3 11/17/2
f 3/3/21 11/17/2 4/4/1
f 1/1/20 11/17/2 3/3/21
s 5
f 4/4/22 12/18/13 6/12/15
f 2/2/23 12/18/13 4/4/22
f 2/2/23 8/11/14 12/18/13
s 4
f 7/7/10 8/8/24 13/19/11
f 13/19/11 8/8/24 2/10/25
f 1/9/12 13/19/11 2/10/25
s 6
f 7/13/26 15/21/27 16/22/28 5/14/29
f 7/13/26 1/1/30 17/23/31 15/21/27
f 14/20/32 17/23/31 1/1/30 3/3/33
f 5/14/29 16/22/28 14/20/32 3/3/33
