# This file uses centimeters as units for non-parametric coordinates.

mtllib OBJ_Allumette_Courte_06.mtl
g default
v 2.314110 0.001364 -0.243609
v 2.378350 0.001364 -0.243609
v 2.314110 0.450068 -0.243609
v 2.378350 0.450068 -0.243609
v 2.314110 0.454833 -0.307849
v 2.376743 0.445089 -0.307849
v 2.314110 0.011046 -0.307849
v 2.378350 0.001364 -0.307849
v 2.307717 0.201329 -0.240989
v 2.378350 0.201329 -0.243609
v 2.372958 0.201329 -0.306750
v 2.314110 0.335689 -0.307849
v 2.314110 0.079162 -0.307849
v 2.330170 0.201329 -0.307849
v 2.314110 0.201329 -0.291789
v 2.320668 0.201329 -0.298347
v 2.323654 0.226558 -0.307849
v 2.323645 0.181020 -0.307849
v 2.314110 0.176333 -0.299819
v 2.314110 0.232421 -0.299819
vt 0.075632 0.823105
vt 0.087227 0.823105
vt 0.087429 0.867868
vt 0.075632 0.868782
vt 0.075632 0.786385
vt 0.087429 0.786385
vt 0.595729 0.317424
vt 0.606056 0.285282
vt 0.606537 0.322016
vt 0.597205 0.322016
vt 0.594254 0.287060
vt 0.594254 0.299574
vt 0.606056 0.367711
vt 0.595729 0.327728
vt 0.594254 0.346699
vt 0.594254 0.368586
vt 0.648277 0.186148
vt 0.648277 0.174311
vt 0.660114 0.174607
vt 0.660114 0.186148
vt 0.821151 0.180174
vt 0.821151 0.168324
vt 0.833002 0.168324
vt 0.833002 0.180174
vt 0.821151 0.037166
vt 0.834112 0.037166
vt 0.834112 0.082806
vt 0.822324 0.082806
vt 0.822324 0.000475
vt 0.834112 0.000475
vt 0.718508 0.308653
vt 0.719728 0.333660
vt 0.718508 0.333660
vt 0.718508 0.327873
vt 0.721497 0.333660
vt 0.720284 0.328964
vt 0.718508 0.356397
vt 0.718508 0.338312
vt 0.720282 0.337439
vt 0.718508 0.286478
vt 0.730165 0.288292
vt 0.729460 0.333660
vt 0.730464 0.370876
vt 0.718508 0.369075
vn 0.019421 0.000011 0.999811
vn 0.019421 0.000000 0.999811
vn 0.019421 0.005016 0.999799
vn 0.019421 0.005016 0.999799
vn 0.076580 0.997060 -0.002612
vn 0.076580 0.997060 -0.002612
vn 0.076580 0.997060 -0.002612
vn 0.076580 0.997060 -0.002612
vn -0.074928 -0.994370 -0.074928
vn -0.074928 -0.994370 -0.074928
vn -0.074928 -0.994370 -0.074928
vn -0.074928 -0.994370 -0.074928
vn 0.998794 0.001784 -0.049066
vn 0.998794 0.001784 -0.049066
vn 0.998480 -0.007794 -0.054559
vn 0.998480 -0.007794 -0.054559
vn -0.705156 -0.000263 -0.709052
vn -0.678904 -0.000010 -0.734227
vn -0.990382 -0.000400 -0.138357
vn -0.990224 0.010211 -0.139115
vn 0.019421 -0.006239 0.999792
vn 0.019421 -0.006239 0.999792
vn 0.999013 0.013586 -0.042289
vn 0.999013 0.013586 -0.042289
vn -0.695498 0.000382 -0.718528
vn -0.083061 0.016997 -0.996400
vn 0.003684 0.000888 -0.999993
vn 0.000000 0.000000 -1.000000
vn -0.989268 -0.012302 -0.145593
vn -0.999672 -0.005999 -0.024898
vn -0.995177 0.000022 -0.098097
vn -0.999858 0.003202 -0.016533
vn -1.000000 0.000000 0.000000
vn -0.072719 -0.013887 -0.997256
vn 0.002320 -0.000443 -0.999997
vn 0.020300 0.000089 -0.999794
vn -0.052528 0.000003 -0.998619
vn 0.000000 0.000000 -1.000000
vn -1.000000 0.000001 0.000000
s 1
g OBJ_Allumette_Courte_LD_06
usemtl initialShadingGroup
f 9/25/1 10/26/2 4/27/3 3/28/4
s off
f 3/17/5 4/18/6 6/19/7 5/20/8
f 7/21/9 8/22/10 2/23/11 1/24/12
s 2
f 10/1/13 11/2/14 6/3/15 4/4/16
s 3
f 12/31/17 16/32/18 15/33/19 20/34/20
s 1
f 1/29/21 2/30/22 10/26/2 9/25/1
s 2
f 2/5/23 8/6/24 11/2/14 10/1/13
s 3
f 13/37/25 18/39/26 8/43/27 7/44/28
f 19/7/29 1/8/30 9/9/31 15/10/19
f 12/15/17 20/14/20 3/13/32 5/16/33
f 17/36/34 6/41/35 11/42/36 14/35/37
f 16/32/18 13/37/25 19/38/29 15/33/19
f 14/35/37 16/32/18 12/31/17 17/36/34
f 14/35/37 18/39/26 13/37/25 16/32/18
f 5/40/38 6/41/35 17/36/34 12/31/17
f 8/43/27 18/39/26 14/35/37 11/42/36
f 7/11/39 1/8/30 19/7/29 13/12/25
f 3/13/32 20/14/20 15/10/19 9/9/31
