# This file uses centimeters as units for non-parametric coordinates.

mtllib OBJ_Batonnet_Glace_06.mtl
g default
v 8.961931 2.880490 0.271913
v 9.278082 2.830107 0.273255
v 8.961419 2.882855 0.223944
v 9.278527 2.832548 0.224051
v 8.941821 2.014239 0.328225
v 9.294808 2.002766 0.328225
v 9.294808 2.002766 0.283645
v 8.941822 2.014239 0.263985
v 9.224208 1.975579 0.328225
v 9.203547 2.173635 0.326903
v 9.178967 1.923579 0.328225
v 9.178967 1.923579 0.263985
v 9.203547 2.173616 0.262664
v 9.224208 1.975579 0.279613
v 9.202691 2.106145 0.263985
v 9.202646 2.106156 0.328225
v 9.041384 1.902761 0.328225
v 9.013372 2.231139 0.326892
v 8.976324 1.984764 0.328225
v 8.976324 1.984764 0.245887
v 9.013372 2.231119 0.262652
v 9.041384 1.902761 0.263985
v 9.008603 2.095790 0.328225
v 9.008282 2.095707 0.263985
v 9.083707 1.891778 0.328225
v 9.145907 1.923643 0.328225
v 9.115700 2.252097 0.327321
v 9.145907 1.923643 0.263985
v 9.083707 1.891778 0.263985
v 9.115700 2.252084 0.263082
v 9.117135 2.097656 0.328225
v 9.122190 2.097875 0.263985
v 8.935365 2.216659 0.254445
v 9.306066 2.163332 0.256162
v 9.306066 2.167265 0.320275
v 8.935328 2.220952 0.318546
v 9.013372 2.628816 0.214327
v 9.003482 2.915932 0.224909
v 9.037754 2.961915 0.228270
v 9.013372 2.628834 0.278567
v 9.037174 2.958732 0.292429
v 9.004166 2.912769 0.289068
v 9.203547 2.718788 0.278485
v 9.236659 2.870045 0.289581
v 9.191258 2.908217 0.294659
v 9.191839 2.911400 0.230500
v 9.237182 2.872907 0.231883
v 9.203547 2.718773 0.214245
v 9.115700 2.671830 0.214312
v 9.101445 2.975957 0.229544
v 9.150593 2.935268 0.243779
v 9.115700 2.671848 0.278552
v 9.150125 2.932702 0.295501
v 9.100955 2.973271 0.283674
v 9.014328 2.737056 0.217638
v 9.011799 2.732019 0.281706
v 9.115918 2.772668 0.283755
v 9.115442 2.775894 0.219596
v 9.202575 2.756975 0.218642
v 9.207042 2.750696 0.282647
v 8.939707 2.615830 0.283761
v 9.296075 2.660607 0.282295
v 9.296075 2.651000 0.218366
v 8.939524 2.638110 0.218800
vt 0.923795 0.750665
vt 0.932051 0.750665
vt 0.937141 0.780400
vt 0.925268 0.781129
vt 0.944140 0.870713
vt 0.932301 0.872492
vt 0.943088 0.904334
vt 0.933975 0.903882
vt 0.941637 0.911809
vt 0.930952 0.911279
vt 0.916047 0.005993
vt 0.928074 0.005993
vt 0.926262 0.044691
vt 0.914262 0.043888
vt 0.912659 0.000475
vt 0.928074 0.000475
vt 0.919750 0.118615
vt 0.907588 0.122786
vt 0.917532 0.168162
vt 0.908551 0.168604
vt 0.920743 0.174204
vt 0.908732 0.174797
vt 0.028041 0.909616
vt 0.016207 0.909618
vt 0.016207 0.875984
vt 0.028041 0.875984
vt 0.865430 0.560155
vt 0.865430 0.584270
vt 0.853565 0.584268
vt 0.856452 0.560155
vt 0.087502 0.868779
vt 0.087502 0.904446
vt 0.075632 0.904431
vt 0.075632 0.868779
vt 0.596033 0.140015
vt 0.583450 0.140031
vt 0.583450 0.118283
vt 0.599578 0.118283
vt 0.596294 0.166539
vt 0.373816 0.882152
vt 0.373816 0.914281
vt 0.361955 0.914321
vt 0.361955 0.882152
vt 0.638551 0.382392
vt 0.626668 0.382352
vt 0.626668 0.344270
vt 0.638551 0.344270
vt 0.174831 0.301593
vt 0.172874 0.260215
vt 0.184664 0.259289
vt 0.186637 0.301007
vt 0.594254 0.166656
vt 0.606217 0.165482
vt 0.607513 0.187788
vt 0.596729 0.188323
vt 0.000000 0.270669
vt 0.011786 0.271262
vt 0.009958 0.308012
vt 0.000015 0.307519
vt 0.546985 0.191063
vt 0.558749 0.191988
vt 0.557414 0.224832
vt 0.545633 0.224251
vt 0.809432 0.392983
vt 0.804945 0.363409
vt 0.816850 0.362811
vt 0.819029 0.392507
vt 0.173038 0.254099
vt 0.175377 0.223429
vt 0.187839 0.224651
vt 0.185530 0.254719
vt 0.188695 0.217213
vt 0.182944 0.259366
vt 0.172874 0.258867
vt 0.627782 0.129624
vt 0.615864 0.129731
vt 0.617490 0.117883
vt 0.627545 0.117792
vt 0.572645 0.173288
vt 0.572645 0.161310
vt 0.580537 0.161310
vt 0.580537 0.173288
vt 0.513220 0.202851
vt 0.513220 0.191066
vt 0.519284 0.191066
vt 0.519284 0.202851
vt 0.700727 0.095786
vt 0.691496 0.095786
vt 0.692261 0.082379
vt 0.700727 0.082379
vt 0.854330 0.431945
vt 0.838155 0.446392
vt 0.843717 0.385916
vt 0.849804 0.385904
vt 0.854330 0.532322
vt 0.838155 0.523679
vt 0.838420 0.417956
vt 0.854164 0.419521
vt 0.844494 0.571709
vt 0.852068 0.567200
vt 0.819314 0.515759
vt 0.819314 0.442533
vt 0.871367 0.521609
vt 0.873207 0.430772
vt 0.832265 0.380049
vt 0.858134 0.395478
vt 0.838195 0.542242
vt 0.854974 0.538197
vt 0.823697 0.576501
vt 0.835441 0.579178
vt 0.804945 0.440658
vt 0.805751 0.513364
vt 0.824472 0.382071
vt 0.860427 0.560172
vt 0.868054 0.552818
vt 0.871134 0.400484
vt 0.819025 0.534758
vt 0.806140 0.402597
vt 0.812493 0.397169
vt 0.817619 0.568038
vt 0.809843 0.562095
vt 0.818436 0.417612
vt 0.804945 0.320210
vt 0.819314 0.317547
vt 0.812490 0.362928
vt 0.806134 0.357498
vt 0.805711 0.242574
vt 0.819314 0.244286
vt 0.809744 0.197490
vt 0.817492 0.191396
vt 0.838164 0.313685
vt 0.838164 0.236363
vt 0.819490 0.224347
vt 0.832271 0.380057
vt 0.824474 0.378034
vt 0.823806 0.182926
vt 0.835538 0.180339
vt 0.854347 0.328139
vt 0.854347 0.227715
vt 0.839360 0.342092
vt 0.818377 0.342491
vt 0.838117 0.217193
vt 0.849819 0.374199
vt 0.843729 0.374187
vt 0.844592 0.187834
vt 0.852190 0.192231
vt 0.873232 0.330034
vt 0.871391 0.240200
vt 0.854189 0.340568
vt 0.871158 0.359612
vt 0.858153 0.364620
vt 0.860543 0.199322
vt 0.868159 0.206756
vt 0.854168 0.220678
vn 0.029125 0.062672 0.997609
vn -0.004147 0.086216 0.996268
vn 0.006157 0.003916 0.999973
vn 0.005858 0.003918 0.999975
vn -0.617737 0.391487 -0.682011
vn -0.547141 0.258212 0.796218
vn 0.506862 0.076102 0.858661
vn 0.396347 0.221737 -0.890922
vn 0.997626 -0.068823 0.002490
vn 0.997626 -0.068823 0.002490
vn 0.999998 0.001901 -0.001186
vn 0.999999 0.000662 -0.001121
vn -0.999500 -0.031599 0.000767
vn -0.999500 -0.031599 0.000767
vn -0.999992 -0.003521 0.002003
vn -0.999992 -0.003529 0.002002
vn -0.084660 0.021811 -0.996171
vn -0.084660 0.021811 -0.996171
vn -0.084660 0.021811 -0.996171
vn -0.084660 0.021811 -0.996171
vn -0.195922 0.124606 0.972671
vn 0.658780 0.185499 0.729109
vn 0.956126 0.291028 0.033555
vn -0.618161 0.784747 0.045274
vn -0.068995 0.028886 0.997199
vn -0.068409 0.028546 0.997249
vn -0.032133 0.076024 0.996588
vn -0.047353 0.079499 0.995710
vn 0.040265 0.069337 0.996780
vn 0.035240 0.026437 0.999029
vn 0.035070 0.026456 0.999035
vn -0.760643 0.644416 0.078425
vn -0.482939 0.379281 0.789250
vn 0.225475 0.135306 0.964807
vn 0.701932 0.711027 0.041629
vn 0.061472 -0.283639 -0.956959
vn -0.423806 -0.384337 -0.820167
vn -0.026581 -0.074679 -0.996853
vn -0.034580 -0.093580 -0.995011
vn -0.944195 0.329357 -0.004364
vn -0.394723 0.119127 0.911045
vn 0.472410 0.158648 0.866983
vn 0.922121 0.386450 0.018687
vn -0.002955 0.003288 0.999990
vn -0.003367 0.003278 0.999989
vn 0.820891 -0.570364 -0.028691
vn 0.774353 -0.632750 -0.002141
vn -0.649537 -0.760330 -0.000007
vn -0.649537 -0.760330 -0.000007
vn -0.938164 -0.346184 0.002319
vn -0.938164 -0.346184 0.002319
vn 0.927342 -0.372256 0.038247
vn 0.927342 -0.372256 0.038247
vn -0.945976 -0.322068 -0.037444
vn -0.945976 -0.322068 -0.037444
vn 0.525263 -0.168149 -0.834161
vn 0.954884 -0.296978 0.000344
vn -0.804437 -0.594038 -0.000369
vn 0.359356 -0.933200 0.000000
vn -0.006099 -0.003911 -0.999974
vn 0.004171 -0.086180 -0.996271
vn 0.968931 -0.120637 -0.215917
vn 0.991678 -0.128746 0.000358
vn -0.165919 0.021519 0.985905
vn 0.491213 -0.023270 -0.870728
vn -0.986662 -0.162780 -0.000375
vn -0.986662 -0.162780 -0.000375
vn 0.109051 0.018007 0.993873
vn -0.985739 -0.168261 0.002575
vn -0.985739 -0.168261 0.002575
vn 0.012198 0.009415 0.999881
vn -0.046979 -0.008060 -0.998863
vn 0.002794 -0.003302 -0.999991
vn 0.002948 -0.003287 -0.999990
vn 0.932716 -0.223630 -0.282895
vn 0.960628 -0.277832 -0.001948
vn 0.568004 -0.029446 -0.822499
vn 0.003413 -0.003279 -0.999989
vn -0.988074 -0.148929 -0.039125
vn -0.988074 -0.148929 -0.039125
vn -0.002889 0.005822 0.999979
vn 0.002177 -0.005764 -0.999981
vn 0.984377 -0.171826 0.038434
vn 0.984377 -0.171826 0.038434
vn -0.036448 0.030358 -0.998874
vn -0.036581 0.030360 -0.998869
vn 0.019777 -0.070822 -0.997293
vn 0.005354 -0.055747 -0.998431
vn -0.008177 0.045866 -0.998914
vn -0.008057 0.045851 -0.998916
vn -0.008181 0.045865 -0.998914
vn -0.120837 0.105102 -0.987093
vn -0.120837 0.105102 -0.987093
vn 0.027260 0.067987 -0.997314
vn 0.027260 0.067987 -0.997314
vn 0.027260 0.067987 -0.997314
vn 0.027260 0.067987 -0.997314
vn 0.999152 0.041123 -0.002222
vn 0.999306 0.037188 -0.002206
vn 0.994914 0.100698 -0.002461
vn 0.994914 0.100698 -0.002461
vn -0.055741 0.076634 0.995500
vn -0.032039 0.074243 0.996725
vn -0.998823 0.046657 0.013242
vn -0.999526 0.029664 0.008228
vn -0.995930 0.086591 0.025027
vn -0.995930 0.086591 0.025027
vn 0.016395 0.059959 0.998066
vn 0.037215 0.044211 0.998329
vn 0.045631 0.075358 0.996112
vn -0.993978 0.108231 -0.017163
vn -0.993978 0.108231 -0.017163
vn -0.964560 0.258945 0.050711
vn -0.959325 0.254196 0.122800
vn 0.997398 0.072002 0.003719
vn 0.997398 0.072002 0.003719
vn 0.056957 0.030029 -0.997925
vn 0.951704 0.040048 0.304395
vn 0.456477 -0.164054 0.874480
vn -0.002714 0.114281 -0.993445
vn -0.002714 0.114281 -0.993445
vn -0.002714 0.114281 -0.993445
vn 0.015631 0.050759 -0.998589
vn -0.903465 0.150672 0.401308
vn -0.560521 -0.041470 0.827102
vn 0.998564 0.050590 0.017606
vn -0.977420 0.211038 0.010611
vn 0.411938 0.047231 -0.909987
vn 0.411938 0.047231 -0.909987
vn 0.411938 0.047231 -0.909987
vn 0.652478 0.102989 -0.750777
vn 0.652478 0.102989 -0.750777
vn 0.652478 0.102989 -0.750777
vn 0.993948 0.078224 0.077132
vn 0.995968 0.086488 -0.023815
vn -0.033314 -0.091771 -0.995223
vn -0.045583 -0.083537 -0.995462
vn 0.000788 -0.106621 -0.994299
vn 0.033558 -0.110212 -0.993341
vn 0.027929 -0.102075 -0.994385
s 1
g OBJ_Batonnet_Glace_LD_06
usemtl initialShadingGroup
f 10/91/1 27/92/2 26/93/3 11/94/4
f 51/73/5 53/74/6 45/68/7 46/71/8
s 3
f 6/1/9 7/2/10 34/3/11 35/4/12
s 4
f 8/11/13 5/12/14 36/13/15 33/14/16
s off
f 33/123/17 21/124/18 20/125/19 8/126/20
s 1
f 1/19/21 42/21/22 38/22/23 3/20/24
f 5/118/25 19/119/26 18/102/27 36/111/28
f 35/104/29 10/91/1 9/106/30 6/116/31
f 47/9/32 44/10/33 2/8/34 4/7/35
s 9
f 7/150/36 14/151/37 13/138/38 34/147/39
s 1
f 39/75/40 41/76/41 54/77/42 50/78/43
f 27/92/2 18/102/27 17/113/44 25/105/45
s 12
f 20/15/46 19/16/47 5/12/48 8/11/49
s 13
f 17/79/50 22/80/51 29/81/52 25/82/53
s 9
f 26/83/54 28/84/55 12/85/56 11/86/57
f 9/87/58 14/88/37 7/89/36 6/90/59
f 13/138/38 12/143/56 28/144/60 30/131/61
f 15/23/62 16/24/63 11/25/57 12/26/56
s 1
f 16/98/64 10/91/1 11/94/4
s 9
f 12/143/56 13/138/38 15/149/62
f 15/149/62 13/138/38 14/151/65
f 9/27/58 16/28/66 15/29/67 14/30/37
s 1
f 9/106/30 10/91/1 16/98/68
s 13
f 17/31/50 23/32/69 24/33/70 22/34/51
s 1
f 17/113/44 18/102/27 23/122/71
s 9
f 24/141/72 21/124/73 22/135/74
s 1
f 23/122/71 18/102/27 19/119/26
s 12
f 24/35/75 23/36/76 19/37/47 20/38/46
f 20/38/46 21/39/77 24/35/75
s 9
f 30/131/61 29/134/78 22/135/74 21/124/73
f 26/40/54 31/41/79 32/42/80 28/43/55
s 1
f 27/92/2 31/97/81 26/93/3
s 9
f 28/144/60 32/140/82 30/131/61
s 1
f 25/105/45 31/97/81 27/92/2
s 13
f 32/44/83 31/45/84 25/46/53 29/47/52
s 9
f 30/131/61 32/140/82 29/134/78
f 3/129/85 38/130/86 37/128/87 64/127/88
f 49/132/89 37/128/87 39/136/90 50/137/91
s 1
f 48/139/92 49/132/93 51/145/5 46/146/8
s off
f 63/148/94 48/139/95 47/152/96 4/153/97
s 3
f 62/6/98 63/5/99 4/7/100 2/8/101
s 1
f 61/112/102 40/101/103 42/120/22 1/121/21
s 4
f 64/18/104 61/17/105 1/19/106 3/20/107
s 1
f 41/109/41 40/101/103 52/96/108 54/110/42
f 44/114/33 43/95/109 62/103/110 2/115/34
f 53/99/6 52/96/108 43/95/109 45/100/7
f 39/48/40 55/49/111 56/50/112 41/51/41
f 59/52/113 60/53/114 44/54/33 47/55/32
f 57/56/115 58/57/116 50/58/43 54/59/42
s 9
f 37/128/87 55/133/117 39/136/90
s 1
f 40/101/103 41/109/41 56/117/118
f 43/95/119 44/114/33 60/108/114
s off
f 48/139/120 59/154/121 47/152/122
s 9
f 49/132/89 50/137/91 58/142/123
s 1
f 52/96/108 57/107/124 54/110/125
s 9
f 37/128/87 38/130/86 55/133/117
s 1
f 56/60/118 55/61/126 38/62/23 42/63/22
f 40/101/103 56/117/118 42/120/22
f 52/96/108 53/99/6 57/107/124
f 51/64/5 58/65/127 57/66/124 53/67/6
s off
f 49/132/128 58/142/129 51/145/130
f 46/71/131 59/70/132 48/72/133
s 1
f 45/68/7 60/69/134 59/70/135 46/71/8
f 43/95/109 60/108/134 45/100/7
f 36/111/28 18/102/27 40/101/103 61/112/102
f 52/96/108 40/101/103 18/102/27 27/92/2
f 43/95/109 52/96/108 27/92/2 10/91/1
f 62/103/110 43/95/109 10/91/1 35/104/29
s 3
f 35/4/12 34/3/11 63/5/99 62/6/98
s 9
f 34/147/39 13/138/38 48/139/136 63/148/137
f 13/138/38 30/131/61 49/132/138 48/139/136
f 30/131/61 21/124/139 37/128/87 49/132/138
f 64/127/88 37/128/87 21/124/139 33/123/140
s 4
f 33/14/16 36/13/15 61/17/105 64/18/104
