# This file uses centimeters as units for non-parametric coordinates.

mtllib OBJ_Allumette_Long_05.mtl
g default
v 2.801272 -0.000592 0.286260
v 2.871801 -0.000592 0.286260
v 2.807560 1.165329 0.286260
v 2.869340 1.165329 0.282011
v 2.807560 1.165329 0.222020
v 2.868703 1.165329 0.225993
v 2.807560 -0.000592 0.222020
v 2.867907 -0.000592 0.229653
v 2.828686 -0.000592 0.286260
v 2.828686 -0.000592 0.218515
v 2.828686 1.165329 0.286260
v 2.807560 0.752220 0.286260
v 2.828686 0.752220 0.286260
v 2.871801 0.752220 0.286260
v 2.865759 0.752220 0.222020
v 2.828686 0.752220 0.222020
v 2.807560 0.752220 0.222020
v 2.823404 1.165329 0.222020
v 2.839464 1.165329 0.222020
v 2.828686 1.165329 0.238080
v 2.828686 0.877109 0.222020
v 2.835922 1.070603 0.222020
v 2.825213 1.066640 0.222020
v 2.825622 1.165329 0.228763
v 2.834320 1.165329 0.229685
vt 0.761726 0.908671
vt 0.773529 0.908671
vt 0.772799 0.984573
vt 0.762507 0.984573
vt 0.761726 0.770355
vt 0.772127 0.770355
vt 0.642875 0.922263
vt 0.654669 0.922263
vt 0.654669 0.998107
vt 0.642875 0.998107
vt 0.642875 0.784052
vt 0.654669 0.784052
vt 0.694519 0.000000
vt 0.694519 0.035676
vt 0.694519 0.054253
vt 0.693250 0.054253
vt 0.691496 0.054253
vt 0.628291 0.178331
vt 0.615864 0.178331
vt 0.617907 0.171135
vt 0.628291 0.170421
vt 0.616507 0.182206
vt 0.628291 0.183360
vt 0.837358 0.374032
vt 0.841234 0.374032
vt 0.841234 0.382871
vt 0.840672 0.384580
vt 0.848692 0.374811
vt 0.842267 0.384411
vt 0.840265 0.385817
vt 0.837358 0.385817
vt 0.843211 0.385817
vt 0.848575 0.385088
vt 0.566871 0.979241
vt 0.566871 0.903433
vt 0.574783 0.903433
vt 0.574331 0.979241
vt 0.562994 0.903433
vt 0.562994 0.979241
vt 0.566871 0.765288
vt 0.574783 0.765288
vt 0.561840 0.765288
vt 0.992554 0.962039
vt 0.992554 0.821962
vt 0.999452 0.821962
vt 0.999852 0.962039
vt 0.988623 0.821962
vt 0.988623 0.962039
vt 0.992554 0.798723
vt 0.993900 0.762720
vt 0.991908 0.763457
vt 0.992554 0.745094
vt 0.993602 0.745094
vt 0.994560 0.745094
vt 1.000000 0.745094
vt 0.988623 0.745094
vt 0.991571 0.745094
vn 0.033694 0.003517 0.999426
vn 0.011432 0.001193 0.999934
vn 0.017589 0.001836 0.999844
vn 0.050651 0.005286 0.998702
vn 0.000000 -1.000000 0.000000
vn 0.000000 -1.000000 0.000000
vn 0.000000 -1.000000 0.000000
vn 0.000000 -1.000000 0.000000
vn 0.997358 0.000441 -0.072643
vn 0.997361 0.000439 -0.072601
vn 0.998461 -0.000601 -0.055449
vn 0.998461 -0.000601 -0.055449
vn -0.999497 0.002695 -0.031586
vn -0.999497 0.002695 -0.031586
vn -1.000000 0.000000 0.000000
vn -1.000000 0.000000 0.000000
vn 0.000000 -1.000000 0.000000
vn 0.000000 -1.000000 0.000000
vn 0.949807 0.017406 -0.312350
vn 0.949807 0.017406 -0.312350
vn 0.949808 0.017406 -0.312350
vn 0.949807 0.017406 -0.312350
vn 0.949808 0.017406 -0.312350
vn 0.000000 0.000000 1.000000
vn 0.000000 0.000000 1.000000
vn 0.000000 0.000000 1.000000
vn 0.000000 0.000000 1.000000
vn 0.000000 0.000000 1.000000
vn 0.996637 0.001006 -0.081942
vn 0.996637 0.001006 -0.081942
vn 0.064241 -0.000799 -0.997934
vn 0.052634 -0.000655 -0.998614
vn 0.119740 -0.001958 -0.992803
vn 0.144455 -0.002507 -0.989508
vn -0.067590 0.001897 -0.997711
vn -0.082668 0.002320 -0.996574
vn -0.998796 0.004172 -0.048885
vn -0.998796 0.004172 -0.048885
vn 0.000000 0.000000 -1.000000
vn 0.000000 0.000000 -1.000000
vn 0.000000 0.000000 -1.000000
vn 0.000000 1.000000 0.000001
vn 0.000000 1.000000 0.000000
vn 0.000000 1.000000 0.000000
vn 0.000000 1.000000 0.000002
vn 0.000000 1.000000 0.000000
vn 0.000000 1.000000 0.000000
vn 0.000000 1.000000 0.000000
vn 0.000000 1.000000 0.000000
vn 0.000000 0.000000 -1.000000
vn 0.098477 0.006268 -0.995120
vn 0.101834 0.006482 -0.994780
vn 0.101834 0.006482 -0.994780
vn -0.829928 0.031037 -0.557007
vn -0.829928 0.031037 -0.557007
vn -0.829928 0.031037 -0.557007
vn -0.829928 0.031037 -0.557007
vn -0.829928 0.031037 -0.557007
vn 0.000000 1.000000 0.000003
vn 0.000000 1.000000 0.000003
s 1
g OBJ_Allumette_Long_LD_05
usemtl initialShadingGroup
f 11/34/1 13/35/2 14/36/3 4/37/4
s 2
f 9/18/5 10/19/6 8/20/7 2/21/8
s 3
f 14/1/9 15/2/10 6/3/11 4/4/12
s 4
f 17/7/13 12/8/14 3/9/15 5/10/16
s 2
f 7/22/17 10/19/6 9/18/5 1/23/18
s off
f 21/13/19 23/14/20 18/15/21 24/16/22 20/17/23
s 1
f 12/38/24 13/35/2 11/34/1 3/39/25
f 1/42/26 9/40/27 13/35/2 12/38/24
f 14/36/3 13/35/2 9/40/27 2/41/28
s 3
f 2/5/29 8/6/30 15/2/10 14/1/9
s 5
f 10/43/31 16/44/32 15/45/33 8/46/34
f 17/47/35 16/44/32 10/43/31 7/48/36
s 4
f 7/11/37 1/12/38 12/8/14 17/7/13
s 5
f 5/56/39 18/57/40 23/51/41 17/47/35
s 6
f 3/24/42 11/25/43 20/26/44 24/27/45
f 19/32/46 25/29/47 4/28/48 6/33/49
s 5
f 15/45/33 16/44/32 21/49/50 22/50/51
f 15/45/33 22/50/51 19/54/52 6/55/53
f 17/47/35 23/51/41 21/49/50 16/44/32
s off
f 21/49/54 20/52/55 25/53/56 19/54/57 22/50/58
s 6
f 3/24/42 24/27/45 18/30/59 5/31/60
f 4/28/48 25/29/47 20/26/44 11/25/43
