# This file uses centimeters as units for non-parametric coordinates.

mtllib OBJ_Batonnet_Glace_01.mtl
g default
v 3.807879 0.135728 0.288644
v 4.173407 0.136309 0.288644
v 3.807879 2.803765 0.288644
v 4.173407 2.803185 0.288644
v 3.807879 2.803765 0.224404
v 4.173407 2.803185 0.224404
v 3.807879 0.135728 0.224404
v 4.173407 0.136309 0.224404
v 3.890707 0.043208 0.288644
v 3.890707 0.043208 0.224404
v 3.890707 2.896285 0.224404
v 3.890707 2.896285 0.288644
v 4.080878 0.032944 0.288644
v 4.080878 2.906549 0.288644
v 4.080878 2.906549 0.224404
v 4.080878 0.032944 0.224404
v 3.993035 0.000194 0.288644
v 3.993035 0.000194 0.224404
v 3.993035 2.939300 0.224404
v 3.993035 2.939300 0.288644
vt 0.929198 0.019670
vt 0.941127 0.019670
vt 0.941127 0.514894
vt 0.929198 0.514894
vt 0.929198 0.000475
vt 0.941127 0.000475
vt 0.941127 0.534089
vt 0.929198 0.534089
vt 0.961612 0.017636
vt 0.973527 0.017636
vt 0.973527 0.512490
vt 0.961612 0.512490
vt 0.961612 0.000475
vt 0.973527 0.000475
vt 0.973527 0.529650
vt 0.961612 0.529650
vt 0.055447 0.850544
vt 0.043218 0.850544
vt 0.043218 0.833823
vt 0.055447 0.833823
vt 0.055447 0.870023
vt 0.043218 0.870023
vt 0.163493 0.852445
vt 0.151265 0.852445
vt 0.151265 0.835724
vt 0.163493 0.835724
vt 0.163493 0.871924
vt 0.151265 0.871924
vt 0.768681 0.770358
vt 0.768681 0.231176
vt 0.784796 0.237184
vt 0.784796 0.764350
vt 0.749909 0.762467
vt 0.749909 0.239067
vt 0.801771 0.256147
vt 0.801771 0.745387
vt 0.734714 0.256040
vt 0.734714 0.745494
vt 0.557991 0.766738
vt 0.557991 0.227557
vt 0.574106 0.233565
vt 0.574106 0.760730
vt 0.539219 0.758847
vt 0.539219 0.235448
vt 0.591081 0.252527
vt 0.591081 0.741768
vt 0.524024 0.252421
vt 0.524024 0.741875
vn 0.000000 0.000000 1.000000
vn 0.000000 0.000000 1.000000
vn 0.000000 0.000000 1.000000
vn 0.000000 0.000000 1.000000
vn -0.053894 0.998547 0.000000
vn -0.053894 0.998547 0.000000
vn 0.602365 0.798221 0.000000
vn 0.602365 0.798221 0.000000
vn 0.000000 0.000000 -1.000000
vn 0.000000 0.000000 -1.000000
vn 0.000000 0.000000 -1.000000
vn 0.000000 0.000000 -1.000000
vn -0.053894 -0.998547 0.000000
vn -0.053894 -0.998547 0.000000
vn 0.602365 -0.798221 0.000000
vn 0.602365 -0.798221 0.000000
vn 1.000000 0.000000 0.000000
vn 1.000000 0.000000 0.000000
vn 1.000000 0.000000 0.000000
vn 1.000000 0.000000 0.000000
vn -1.000000 0.000000 0.000000
vn -1.000000 0.000000 0.000000
vn -1.000000 0.000000 0.000000
vn -1.000000 0.000000 0.000000
vn -0.745052 -0.667007 0.000000
vn -0.590665 -0.806917 0.000000
vn -0.590665 -0.806917 0.000000
vn -0.745052 -0.667007 0.000000
vn 0.000000 0.000000 -1.000000
vn 0.000000 0.000000 -1.000000
vn 0.000000 0.000000 -1.000000
vn 0.000000 0.000000 -1.000000
vn -0.745052 0.667007 0.000000
vn -0.590665 0.806917 0.000000
vn -0.590665 0.806917 0.000000
vn -0.745052 0.667007 0.000000
vn -0.000000 0.000000 1.000000
vn -0.000000 0.000000 1.000000
vn -0.000000 0.000000 1.000000
vn -0.000000 0.000000 1.000000
vn -0.000000 0.000000 1.000000
vn -0.000000 0.000000 1.000000
vn 0.745079 0.666976 0.000000
vn 0.745079 0.666976 0.000000
vn 0.000000 0.000000 -1.000000
vn 0.000000 0.000000 -1.000000
vn 0.745080 -0.666975 0.000000
vn 0.745080 -0.666975 0.000000
s 1
g OBJ_Batonnet_Glace_LD_01
usemtl initialShadingGroup
f 20/29/1 17/30/2 13/31/3 14/32/4
s 2
f 19/17/5 20/18/6 14/19/7 15/20/8
s 3
f 18/39/9 19/40/10 15/41/11 16/42/12
s 4
f 17/23/13 18/24/14 16/25/15 13/26/16
s off
f 2/1/17 8/2/18 6/3/19 4/4/20
f 7/9/21 1/10/22 3/11/23 5/12/24
s 4
f 7/9/25 10/13/26 9/14/27 1/10/28
s 3
f 5/47/29 11/44/30 10/43/31 7/48/32
s 2
f 3/11/33 12/15/34 11/16/35 5/12/36
s 1
f 1/37/37 9/34/38 12/33/39 3/38/40
f 14/32/4 13/31/3 2/35/41 4/36/42
s 2
f 15/7/8 14/8/7 4/4/43 6/3/44
s 3
f 16/42/12 15/41/11 6/45/45 8/46/46
s 4
f 13/5/16 16/6/15 8/2/47 2/1/48
f 9/27/27 10/28/26 18/24/14 17/23/13
s 3
f 10/43/31 11/44/30 19/40/10 18/39/9
s 2
f 11/21/35 12/22/34 20/18/6 19/17/5
s 1
f 12/33/39 9/34/38 17/30/2 20/29/1
