# This file uses centimeters as units for non-parametric coordinates.

mtllib OBJ_Allumette_Souffre_Burn_01.mtl
g default
v 2.345911 1.076090 -0.273659
v 2.342640 1.073557 -0.279971
v 2.333129 1.081667 -0.277449
v 2.322502 1.084316 -0.275191
v 2.321091 1.075944 -0.267783
v 2.322352 1.071387 -0.254586
v 2.324688 1.085154 -0.249142
v 2.340412 1.082630 -0.249981
v 2.348485 1.068207 -0.251571
v 2.347379 1.074521 -0.261799
v 2.369528 1.102802 -0.291089
v 2.349320 1.107361 -0.302473
v 2.329768 1.110316 -0.302475
v 2.314683 1.111484 -0.286029
v 2.307112 1.110964 -0.261389
v 2.311669 1.108585 -0.236351
v 2.332286 1.104721 -0.225267
v 2.359608 1.100487 -0.223718
v 2.378826 1.098733 -0.240741
v 2.381472 1.100259 -0.269251
v 2.381360 1.132710 -0.299594
v 2.354856 1.137573 -0.312866
v 2.324765 1.141826 -0.308321
v 2.304851 1.143367 -0.285604
v 2.301259 1.142123 -0.253295
v 2.312235 1.138301 -0.226694
v 2.339845 1.133253 -0.211912
v 2.370070 1.128937 -0.215754
v 2.387501 1.127162 -0.238884
v 2.394795 1.128705 -0.270984
v 2.385250 1.159068 -0.303678
v 2.354732 1.164494 -0.313774
v 2.322850 1.168741 -0.303310
v 2.301781 1.170188 -0.280572
v 2.301726 1.168281 -0.247424
v 2.317072 1.163750 -0.220807
v 2.347590 1.158324 -0.207916
v 2.377768 1.154077 -0.217275
v 2.396610 1.152631 -0.239819
v 2.401452 1.154537 -0.274476
v 2.383702 1.185946 -0.302589
v 2.353666 1.191060 -0.311702
v 2.324177 1.194772 -0.297724
v 2.309738 1.195664 -0.272480
v 2.313133 1.193396 -0.241071
v 2.326540 1.188833 -0.216331
v 2.356547 1.183719 -0.207185
v 2.385087 1.180007 -0.216556
v 2.401513 1.179115 -0.244000
v 2.402450 1.181383 -0.276990
v 2.379663 1.210363 -0.293748
v 2.353272 1.214621 -0.299407
v 2.328907 1.217430 -0.288968
v 2.316260 1.217717 -0.264553
v 2.319897 1.215372 -0.236780
v 2.338327 1.211291 -0.216793
v 2.364512 1.207033 -0.212053
v 2.388440 1.204224 -0.224555
v 2.400941 1.203937 -0.249391
v 2.394622 1.206282 -0.275441
v 2.374167 1.229662 -0.281163
v 2.354587 1.232650 -0.283732
v 2.337708 1.234407 -0.275226
v 2.330258 1.234261 -0.257541
v 2.334983 1.232269 -0.237919
v 2.349834 1.229191 -0.225021
v 2.369119 1.226203 -0.223880
v 2.385480 1.224447 -0.234879
v 2.392911 1.224592 -0.252655
v 2.388713 1.226585 -0.269741
v 2.368289 1.241817 -0.267905
v 2.357968 1.243305 -0.268067
v 2.349790 1.244054 -0.262625
v 2.346961 1.243777 -0.253273
v 2.350526 1.242580 -0.243747
v 2.359039 1.240921 -0.238094
v 2.369216 1.239432 -0.238631
v 2.377226 1.238683 -0.244877
v 2.380097 1.238960 -0.254029
v 2.376726 1.240157 -0.262623
v 2.364181 1.245484 -0.253241
vt 0.708353 0.784055
vt 0.673937 0.786884
vt 0.677544 0.786884
vt 0.681151 0.786884
vt 0.684758 0.786884
vt 0.688365 0.786884
vt 0.691972 0.786884
vt 0.695579 0.786884
vt 0.699186 0.786884
vt 0.702794 0.786884
vt 0.663627 0.787018
vt 0.673937 0.790491
vt 0.677544 0.790491
vt 0.681151 0.790491
vt 0.684758 0.790491
vt 0.688365 0.790491
vt 0.691972 0.790491
vt 0.695579 0.790491
vt 0.699186 0.790491
vt 0.702794 0.790491
vt 0.660204 0.791316
vt 0.673937 0.794098
vt 0.677544 0.794098
vt 0.681151 0.794098
vt 0.684758 0.794098
vt 0.688365 0.794098
vt 0.691972 0.794098
vt 0.695579 0.794098
vt 0.699186 0.794098
vt 0.702794 0.794098
vt 0.659082 0.795734
vt 0.673937 0.797705
vt 0.677544 0.797705
vt 0.681151 0.797705
vt 0.684758 0.797705
vt 0.688365 0.797705
vt 0.691972 0.797705
vt 0.695579 0.797705
vt 0.699186 0.797705
vt 0.702794 0.797705
vt 0.659447 0.800686
vt 0.673937 0.801312
vt 0.677544 0.801312
vt 0.681151 0.801312
vt 0.684758 0.801312
vt 0.688365 0.801312
vt 0.691972 0.801312
vt 0.695579 0.801312
vt 0.699186 0.801312
vt 0.702794 0.801312
vt 0.660858 0.806426
vt 0.673937 0.804919
vt 0.677544 0.804919
vt 0.681151 0.804919
vt 0.684758 0.804919
vt 0.688365 0.804919
vt 0.691972 0.804919
vt 0.695579 0.804919
vt 0.699186 0.804919
vt 0.702794 0.804919
vt 0.664628 0.812700
vt 0.673937 0.808526
vt 0.677544 0.808526
vt 0.681151 0.808526
vt 0.684758 0.808526
vt 0.688365 0.808526
vt 0.691972 0.808526
vt 0.695579 0.808526
vt 0.699186 0.808526
vt 0.702794 0.808526
vt 0.672254 0.817450
vt 0.673937 0.812133
vt 0.677544 0.812133
vt 0.681151 0.812133
vt 0.684758 0.812133
vt 0.688365 0.812133
vt 0.691972 0.812133
vt 0.695579 0.812133
vt 0.699186 0.812133
vt 0.702794 0.812133
vt 0.688039 0.818024
vt 0.703442 0.816773
vt 0.711219 0.812424
vt 0.714466 0.807319
vt 0.717444 0.802752
vt 0.718209 0.797584
vt 0.717299 0.792815
vt 0.714304 0.788002
vt 0.670680 0.784845
vn 0.516775 -0.727641 -0.451090
vn 0.122679 -0.651990 -0.748237
vn 0.112004 -0.451482 -0.885223
vn 0.587319 -0.545440 -0.597956
vn -0.392426 -0.559500 -0.730042
vn -0.430371 -0.366721 -0.824801
vn -0.764167 -0.427001 -0.483446
vn -0.823816 -0.308275 -0.475704
vn -0.936177 -0.348801 -0.043700
vn -0.965643 -0.257837 -0.032448
vn -0.902507 -0.395028 0.171564
vn -0.796887 -0.319991 0.512422
vn -0.220008 -0.670998 0.708066
vn -0.250650 -0.474587 0.843767
vn -0.016815 -0.723103 0.690536
vn 0.197491 -0.523044 0.829109
vn 0.488452 -0.826422 0.280074
vn 0.728851 -0.574418 0.372585
vn 0.622120 -0.756843 -0.200388
vn 0.800878 -0.568728 -0.187463
vn 0.116465 -0.175369 -0.977590
vn 0.641317 -0.303602 -0.704655
vn -0.483770 -0.086362 -0.870924
vn -0.905815 -0.104616 -0.410554
vn -0.988369 -0.107386 0.107676
vn -0.741646 -0.132755 0.657523
vn -0.200467 -0.206082 0.957780
vn 0.413313 -0.270931 0.869350
vn 0.864109 -0.312704 0.394376
vn 0.927645 -0.341333 -0.151548
vn 0.025648 0.047114 -0.998560
vn 0.640189 -0.075388 -0.764509
vn -0.546500 0.138141 -0.825987
vn -0.934334 0.167487 -0.314591
vn -0.961504 0.145972 0.232814
vn -0.665807 0.053871 0.744177
vn -0.087660 -0.065611 0.993987
vn 0.543170 -0.159533 0.824328
vn 0.912319 -0.197025 0.358964
vn 0.965733 -0.166425 -0.199153
vn -0.025713 0.260405 -0.965157
vn 0.587260 0.188778 -0.787076
vn -0.582767 0.314010 -0.749520
vn -0.917417 0.337669 -0.210535
vn -0.901219 0.279903 0.330845
vn -0.562601 0.177137 0.807529
vn 0.030385 0.053105 0.998127
vn 0.620121 -0.020160 0.784247
vn 0.961107 -0.015374 0.275747
vn 0.955606 0.072175 -0.285671
vn -0.024887 0.519873 -0.853881
vn 0.514706 0.443114 -0.733981
vn -0.560085 0.527026 -0.639178
vn -0.876571 0.467783 -0.113149
vn -0.810972 0.419694 0.407654
vn -0.404755 0.367866 0.837167
vn 0.166757 0.295140 0.940789
vn 0.702819 0.227206 0.674109
vn 0.962798 0.216858 0.161225
vn 0.880130 0.305542 -0.363339
vn -0.019406 0.709222 -0.704719
vn 0.414636 0.625627 -0.660809
vn -0.462721 0.748940 -0.474320
vn -0.682585 0.730554 -0.019210
vn -0.579863 0.684566 0.441733
vn -0.216061 0.617849 0.756030
vn 0.276115 0.540612 0.794669
vn 0.687441 0.479017 0.545864
vn 0.886243 0.454395 0.089996
vn 0.778943 0.503397 -0.373951
vn -0.007641 0.866821 -0.498562
vn 0.302965 0.813055 -0.497146
vn -0.310043 0.906166 -0.287639
vn -0.437838 0.896760 0.064184
vn -0.333157 0.859360 0.387953
vn -0.050876 0.807589 0.587547
vn 0.300403 0.751242 0.587702
vn 0.575483 0.715395 0.396270
vn 0.686569 0.723930 0.067445
vn 0.569808 0.766246 -0.296962
vn 0.143715 0.986839 0.074124
s 1
g OBJ_Allumette_Souffre_Burn_01
usemtl initialShadingGroup
f 1/89/1 2/2/2 12/12/3 11/11/4
f 2/2/2 3/3/5 13/13/6 12/12/3
f 3/3/5 4/4/7 14/14/8 13/13/6
f 4/4/7 5/5/9 15/15/10 14/14/8
f 5/5/9 6/6/11 16/16/12 15/15/10
f 6/6/11 7/7/13 17/17/14 16/16/12
f 7/7/13 8/8/15 18/18/16 17/17/14
f 8/8/15 9/9/17 19/19/18 18/18/16
f 9/9/17 10/10/19 20/20/20 19/19/18
f 10/10/19 1/1/1 11/88/4 20/20/20
f 11/11/4 12/12/3 22/22/21 21/21/22
f 12/12/3 13/13/6 23/23/23 22/22/21
f 13/13/6 14/14/8 24/24/24 23/23/23
f 14/14/8 15/15/10 25/25/25 24/24/24
f 15/15/10 16/16/12 26/26/26 25/25/25
f 16/16/12 17/17/14 27/27/27 26/26/26
f 17/17/14 18/18/16 28/28/28 27/27/27
f 18/18/16 19/19/18 29/29/29 28/28/28
f 19/19/18 20/20/20 30/30/30 29/29/29
f 20/20/20 11/88/4 21/87/22 30/30/30
f 21/21/22 22/22/21 32/32/31 31/31/32
f 22/22/21 23/23/23 33/33/33 32/32/31
f 23/23/23 24/24/24 34/34/34 33/33/33
f 24/24/24 25/25/25 35/35/35 34/34/34
f 25/25/25 26/26/26 36/36/36 35/35/35
f 26/26/26 27/27/27 37/37/37 36/36/36
f 27/27/27 28/28/28 38/38/38 37/37/37
f 28/28/28 29/29/29 39/39/39 38/38/38
f 29/29/29 30/30/30 40/40/40 39/39/39
f 30/30/30 21/87/22 31/86/32 40/40/40
f 31/31/32 32/32/31 42/42/41 41/41/42
f 32/32/31 33/33/33 43/43/43 42/42/41
f 33/33/33 34/34/34 44/44/44 43/43/43
f 34/34/34 35/35/35 45/45/45 44/44/44
f 35/35/35 36/36/36 46/46/46 45/45/45
f 36/36/36 37/37/37 47/47/47 46/46/46
f 37/37/37 38/38/38 48/48/48 47/47/47
f 38/38/38 39/39/39 49/49/49 48/48/48
f 39/39/39 40/40/40 50/50/50 49/49/49
f 40/40/40 31/86/32 41/85/42 50/50/50
f 41/41/42 42/42/41 52/52/51 51/51/52
f 42/42/41 43/43/43 53/53/53 52/52/51
f 43/43/43 44/44/44 54/54/54 53/53/53
f 44/44/44 45/45/45 55/55/55 54/54/54
f 45/45/45 46/46/46 56/56/56 55/55/55
f 46/46/46 47/47/47 57/57/57 56/56/56
f 47/47/47 48/48/48 58/58/58 57/57/57
f 48/48/48 49/49/49 59/59/59 58/58/58
f 49/49/49 50/50/50 60/60/60 59/59/59
f 50/50/50 41/85/42 51/84/52 60/60/60
f 51/51/52 52/52/51 62/62/61 61/61/62
f 52/52/51 53/53/53 63/63/63 62/62/61
f 53/53/53 54/54/54 64/64/64 63/63/63
f 54/54/54 55/55/55 65/65/65 64/64/64
f 55/55/55 56/56/56 66/66/66 65/65/65
f 56/56/56 57/57/57 67/67/67 66/66/66
f 57/57/57 58/58/58 68/68/68 67/67/67
f 58/58/58 59/59/59 69/69/69 68/68/68
f 59/59/59 60/60/60 70/70/70 69/69/69
f 60/60/60 51/84/52 61/83/62 70/70/70
f 61/61/62 62/62/61 72/72/71 71/71/72
f 62/62/61 63/63/63 73/73/73 72/72/71
f 63/63/63 64/64/64 74/74/74 73/73/73
f 64/64/64 65/65/65 75/75/75 74/74/74
f 65/65/65 66/66/66 76/76/76 75/75/75
f 66/66/66 67/67/67 77/77/77 76/76/76
f 67/67/67 68/68/68 78/78/78 77/77/77
f 68/68/68 69/69/69 79/79/79 78/78/78
f 69/69/69 70/70/70 80/80/80 79/79/79
f 70/70/70 61/83/62 71/82/72 80/80/80
f 71/71/72 72/72/71 81/81/81
f 72/72/71 73/73/73 81/81/81
f 73/73/73 74/74/74 81/81/81
f 74/74/74 75/75/75 81/81/81
f 75/75/75 76/76/76 81/81/81
f 76/76/76 77/77/77 81/81/81
f 77/77/77 78/78/78 81/81/81
f 78/78/78 79/79/79 81/81/81
f 79/79/79 80/80/80 81/81/81
f 80/80/80 71/82/72 81/81/81
