<svg xmlns="http://www.w3.org/2000/svg" viewBox="0 0 186.59 160.66"><defs><style>.cls-1{fill:#fff;}</style></defs><g id="Calque_2" data-name="Calque 2"><g id="Bouton_Simple"><polygon id="UI_Bouton_ReDo" class="cls-1" points="34.51 80.41 13.63 87.25 21.1 119.78 43.08 146.15 77.8 156.04 125.36 160.66 153.85 144.62 177.58 118.23 186.59 84.83 185.28 53.63 173.05 34.29 158.98 5.71 123.08 1.98 91.21 0 64.4 1.76 34.95 17.14 23.52 35.38 2.86 30.4 0 32.53 23.16 76.32 63.6 50.55 45.49 43.08 57.8 26.37 88.35 19.12 131.73 26.15 151.74 47.38 159.42 69.01 157.11 94.58 145.43 115.51 122.72 137.14 82.72 134.72 54.59 127.47 42.64 110.55 34.51 80.41"/></g></g></svg>