<svg xmlns="http://www.w3.org/2000/svg" viewBox="0 0 235.82 131.2"><defs><style>.cls-1{fill:#fff;}</style></defs><g id="Calque_2" data-name="Calque 2"><g id="UI_Bouton_Mirroir"><polygon id="UI_Bouton_Mirroir_01" class="cls-1" points="65.5 54.28 138.68 57.14 196.26 55.71 234.29 54.28 235.82 66.37 233.85 77.8 144.18 74.72 62.42 75.16 14.51 73.84 1.76 76.25 0 62.66 1.1 51.21 65.5 54.28"/><path id="UI_Bouton_Mirroir_02" class="cls-1" d="M219.56,3.08,133.63,4.61,21.54,0l-2.2,1.76L44.62,27.91l9.23,20.34,82.41,3h44.4l24-23.3,18-22.64ZM198.9,27.47,177.14,48.25l-54.72-3.64L58,43.52,47.25,25.6,33.19,4.83,133.85,9.89l80.22-2.42Z"/><path id="UI_Bouton_Mirroir_03" class="cls-1" d="M12.15,128l89.61-1.59,116.9,4.8,2.29-1.83L194.59,102.1,185,80.89,99,77.8H52.72l-25,24.3L8.94,125.71Zm21.54-25.43,22.7-21.67,57.06,3.79,67.17,1.14,11.23,18.69,14.66,21.66-105-5.28-83.66,2.52Z"/></g></g></svg>