<svg xmlns="http://www.w3.org/2000/svg" viewBox="0 0 128.69 235.85"><defs><style>.cls-1{fill:#fff;}</style></defs><g id="Calque_2" data-name="Calque 2"><g id="UI_Bouton_Retrograde"><polygon id="UI_Bouton_Retrograde_01" class="cls-1" points="74.67 65.33 73.15 138.56 75.64 196.1 77.76 234.09 65.7 235.85 54.24 234.08 55.68 144.37 53.74 62.64 54.18 14.71 51.54 2.01 65.1 0 76.57 0.89 74.67 65.33"/><path id="UI_Bouton_Retrograde_02" class="cls-1" d="M128.69,218.43l-3.11-85.88,2.56-112.16-1.8-2.17L100.66,44l-20.17,9.6L79,136l.81,44.39L103.59,204l23,17.6Zm-24.77-20.21L82.75,176.85l2.64-54.78L85.3,57.66,103,46.56l20.51-14.43-3.22,100.73L124.2,213Z"/><path id="UI_Bouton_Retrograde_03" class="cls-1" d="M0,13.34l3.24,89.57-2.67,117,1.87,2.26,26.79-26.86,21-10,1.52-86L50.93,53,26.18,28.45l-24-18.36ZM25.83,34.42,47.91,56.71l-2.75,57.13L45.25,181,26.77,192.58,5.38,207.64,8.74,102.58,4.68,19Z"/></g></g></svg>