<svg xmlns="http://www.w3.org/2000/svg" viewBox="0 0 195.38 101.98"><defs><style>.cls-1{fill:#49e9ff;}</style></defs><g id="Calque_2" data-name="Calque 2"><g id="Icon_Noir"><polygon class="cls-1" points="6.59 4.62 188.57 4.62 188.57 96.92 7.47 96.92 6.59 4.62"/><polygon points="140.22 0 172.75 1.76 190.77 0 195.38 9.67 193.19 52.74 170.33 24.74 140.22 0"/><polygon points="193.85 78.9 193.85 101.98 169.23 100.44 146.37 100.44 163.96 82.42 181.98 73.19 192.53 60.44 193.85 78.9"/><polygon points="3.08 52.74 21.76 73.85 45.71 92.31 55.6 99.34 52.97 100.44 16.7 99.12 5.05 100.44 1.98 96.92 0 72.31 3.08 52.74"/><polygon points="69.01 0 34.51 11.65 16.92 30.55 4.62 38.74 5.5 16.48 4.62 1.1 30.11 1.76 69.01 0"/></g></g></svg>