<svg xmlns="http://www.w3.org/2000/svg" viewBox="0 0 212.53 169.37"><defs><style>.cls-1{fill:#49e9ff;}</style></defs><g id="Calque_2" data-name="Calque 2"><g id="Icon_Blanche"><path d="M100.75,102.07l4.78-.68,10.85.68.82-6.86-.82-9.88-15.63.82L98.67,82l-2.11-5.86L101,73.66l5.88-7.82-4.66-4.65L95.38,54l-4.82,5.62-6,5.73-4-2.71-5.56-1.48.83-7.43V45.57l-8-.73-8,.73.68,6.62-.68,9-4.42,1.4-5.62,2.83-4.38-6L38.69,53.9l-5.77,5.76-5.19,6.18,9.45,9.46.27,5.09-2.62,5.76-7.26.69-8.65-.69-.69,6.73v9.61l7.14.27,8.1-.69,2.89,4.77,2.74,6.49L27.73,123l3.13,4.9L39,134.24l4.4-4.4,6.41-7.59,4.6,3,5.43,2-1.1,15.92,8.92-.88,8.1.88v-8.85l-.82-7.07,6.58-.75L87,122.39l10.16,11.94,5-5.7,6.66-5.28-6.45-7-6-5.2,2.23-2.81ZM83.3,107.15l-13.94,7.42-14.55-6.29-6.92-11.7L51,83.13l9.2-7.55H70.53l11,3.78,6.18,12.42Z"/><path d="M170,125.7l3.67-1.77,8.9-2.19L181.51,116l-3.16-7.74L166,112.9l-2.7-2.78-3.19-4.18L163,102.8,165.78,95l-4.93-2.56-7.3-4-2.45,5.73-3.39,6.13-4-1.15-4.84.21L137.7,93.2l-2.07-6.59L129.05,88l-6.21,2.6,2.22,5.15,1.72,7.38-3.2,2.24-3.8,3.7-5-3.71L108,102.69l-3.18,6.09-2.61,6.28,10,5.21,1.51,4-.65,5.3L107.36,132l-7.13,1.64,1.16,5.58,2.43,7.72,5.8-1.58,6.34-2.61,3.52,3.1,3.85,4.52L116.63,161l3.76,3.14,8.14,3.06,2.43-4.65,3.23-7.72,4.46,1.26,4.86.22,3.15,13.08,7-3,6.73-1.34L158.1,158l-2.45-5.48,5.1-2.27,3.37-4.7,11.19,7,2.58-5.85,4-5.93-7-4-6.18-2.65,1.09-2.82Zm-12.73,8.49L148,143.68l-13.29-1.37-8.52-7.65-.87-11.61,5.49-8.39,8.27-2.61,9.78.26,8.1,8.42Z"/><polygon points="0 2.64 70.11 2.64 73.19 6.59 55.38 17.8 45.27 26.81 31.65 42.2 10.11 42.2 3.08 43.74 0 40.66 1.1 17.8 0 2.64"/><polygon points="89.46 2.64 91.36 6.37 73.87 22.64 54.92 34.95 49.23 42.42 145.91 42.42 171.6 17.14 180.66 2.64 122.11 1.32 89.46 2.64"/><polygon points="197.8 2.64 187.91 20.66 163.74 42.42 186.37 44.84 209.23 43.74 212.53 40.66 212.53 3.74 197.8 2.64"/><polygon class="cls-1" points="87.69 2.64 87.69 6.15 66.37 21.87 51.21 33.41 44.62 42.42 36.59 42.42 47.89 29.01 62.14 16.7 78.24 6.37 71.43 1.32 85.06 0 87.69 2.64"/><polygon class="cls-1" points="194.29 1.32 183.74 19.34 158.9 42.42 164.62 43.74 148.13 43.74 174.94 19.78 183.74 1.32 194.29 1.32"/></g></g></svg>