<svg xmlns="http://www.w3.org/2000/svg" viewBox="0 0 249.49 321.21"><defs><style>.cls-1,.cls-2,.cls-3{stroke:#000;stroke-miterlimit:10;}.cls-2{fill:#563ef4;}.cls-3{fill:#49e9ff;}</style></defs><g id="Calque_2" data-name="Calque 2"><g id="Mouse"><polygon id="Fond" class="cls-1" points="159.09 2.52 222.72 14.64 248.99 92.92 248.99 219.69 226.76 283.83 166.16 315.15 63.63 320.7 12.12 277.77 0.5 168.18 6.82 96.62 21.64 10.5 87.88 0.5 159.09 2.52"/><polygon class="cls-2" points="228.78 104.54 170.2 100 139.9 130.8 102.52 130.8 84.34 100 18.18 106.56 15.65 189.39 26.77 273.23 68.68 311.11 163.63 311.11 216.66 279.29 235.35 205.55 228.78 104.54"/><polygon id="Bouton_Left_OFF" class="cls-2" points="217.17 19.69 135.86 5.55 127.78 12.62 127.78 31.31 141.41 42.42 141.92 100 124.75 119.69 138.38 123.73 170.96 91.41 225.25 96.97 228.78 54.04 217.17 19.69"/><polygon id="Bouton_Right_OFF" class="cls-2" points="29.29 18.18 106.06 5.55 117.67 11.87 117.67 30.3 104.04 41.41 103.53 96.97 115.15 119.19 105.55 125.75 86.87 92.92 20.7 100 24.75 49.49 29.29 18.18"/><polygon id="Bouton_Middle_OFF" class="cls-3" points="125.5 36.87 136.87 44.95 136.87 96.97 124.67 115.15 117.67 112.62 107.57 95.96 110.1 65.65 107.57 42.92 117.67 36.87 125.5 36.87"/></g></g></svg>