# This file uses centimeters as units for non-parametric coordinates.

mtllib OBJ_Clou_Carre_02.mtl
g default
v 19.125000 5.250001 20.875000
v 20.875000 5.150197 20.875000
v 19.266930 5.632531 20.875000
v 20.875000 5.400197 20.875000
v 19.125000 5.500001 19.125000
v 20.875000 5.500001 19.125000
v 19.125000 5.250001 19.125000
v 20.875000 5.250001 19.125000
v 20.000000 5.676408 20.000000
v 19.687500 5.250001 20.312500
v 19.687500 5.250001 19.687500
v 20.312500 5.250001 19.687500
v 20.312500 5.250001 20.312500
v 20.312500 4.250001 19.687500
v 20.312500 4.250001 20.312500
v 19.687500 4.250001 19.687500
v 19.687500 4.250001 20.312500
v 20.224602 2.667126 19.687500
v 20.224602 2.667126 20.312500
v 19.611145 2.786698 19.687500
v 19.611145 2.786698 20.312500
v 19.937614 1.194840 19.687500
v 19.937614 1.194840 20.312500
v 19.439613 0.273095 20.000000
v 19.324165 1.314404 19.687500
v 19.324165 1.314404 20.312500
vt 0.990369 0.133492
vt 0.996627 0.133491
vt 0.990205 0.135446
vt 0.996587 0.135446
vt 0.990205 0.141827
vt 0.996587 0.141827
vt 0.990368 0.127235
vt 0.996626 0.127234
vt 0.993396 0.138637
vt 0.982737 0.142762
vt 0.980692 0.124989
vt 0.982989 0.124968
vt 0.985289 0.124975
vt 0.978422 0.125026
vt 0.985305 0.128589
vt 0.978442 0.128642
vt 0.983003 0.128565
vt 0.980707 0.128590
vt 0.985295 0.133997
vt 0.978420 0.134141
vt 0.982972 0.133886
vt 0.980659 0.133965
vt 0.984846 0.139288
vt 0.978908 0.139931
vt 0.982906 0.138930
vt 0.980917 0.139130
vt 0.986706 0.140182
vt 0.987588 0.134242
vt 0.987587 0.128640
vt 0.994615 0.131480
vt 0.987568 0.124995
vt 0.992380 0.131481
vt 0.994615 0.129245
vt 0.992380 0.129246
vt 0.975239 0.146530
vt 0.981497 0.146531
vt 0.968982 0.146530
vt 0.962724 0.146529
vt 0.987754 0.146531
vt 0.981497 0.145637
vt 0.975239 0.145636
vt 0.987754 0.145637
vt 0.962724 0.145635
vt 0.968982 0.145636
vn 0.000000 0.000000 1.000000
vn 0.000000 0.000000 1.000000
vn 0.000000 0.000000 1.000000
vn 0.000000 0.000000 1.000000
vn 0.012433 0.998093 0.060465
vn 0.199298 0.973953 0.108148
vn 0.064613 0.997795 -0.015168
vn 0.000000 0.000000 -1.000000
vn 0.000000 0.000000 -1.000000
vn 0.000000 0.000000 -1.000000
vn 0.000000 0.000000 -1.000000
vn 0.557490 -0.520476 -0.646768
vn 0.557490 -0.520476 0.646768
vn -0.191292 -0.981533 0.000000
vn 1.000000 0.000000 0.000000
vn 1.000000 0.000000 0.000000
vn 1.000000 0.000000 0.000000
vn 1.000000 0.000000 0.000000
vn -0.975262 0.218832 0.031262
vn -0.975262 0.218832 0.031262
vn -0.975262 0.218832 0.031262
vn -0.975262 0.218832 0.031262
vn 0.128934 0.989145 -0.070486
vn -0.060695 0.988488 -0.138593
vn -0.712155 -0.273045 -0.646747
vn -0.712155 -0.273045 0.646747
vn 0.000000 -1.000000 0.000001
vn 0.000000 -1.000000 0.000001
vn -0.020986 -0.998798 -0.044303
vn -0.021008 -0.998795 -0.044349
vn -0.044349 -0.998795 -0.021007
vn -0.044304 -0.998798 -0.020986
vn -0.065091 -0.995754 -0.065091
vn -0.065091 -0.995754 -0.065091
vn 1.000000 0.000000 0.000000
vn 1.000000 0.000000 0.000000
vn 0.999422 -0.034011 0.000000
vn 0.999422 -0.034011 0.000000
vn 0.000000 0.000000 -1.000000
vn 0.000000 0.000000 -1.000000
vn 0.000000 0.000000 -1.000000
vn 0.000000 0.000000 -1.000000
vn 0.000000 0.000000 1.000000
vn 0.000000 0.000000 1.000000
vn -0.000001 0.000000 1.000000
vn -0.000001 0.000000 1.000000
vn -1.000000 0.000000 0.000000
vn -1.000000 0.000000 0.000000
vn -0.999520 0.030982 0.000000
vn -0.999520 0.030982 0.000000
vn 0.992556 -0.121792 0.000000
vn 0.992556 -0.121792 0.000000
vn 0.000000 0.000000 -1.000000
vn 0.000000 0.000000 -1.000000
vn -0.000000 0.000000 1.000000
vn 0.000000 0.000000 1.000000
vn -0.992428 0.122831 0.000000
vn -0.992428 0.122831 0.000000
vn 0.981527 -0.191325 0.000000
vn 0.981527 -0.191325 0.000000
vn 0.000000 0.000000 -1.000000
vn 0.000000 0.000000 -1.000000
vn 0.000002 0.000000 1.000000
vn 0.000002 0.000000 1.000000
vn -0.981528 0.191318 0.000000
vn -0.981528 0.191318 0.000000
s off
g CLOU_Carre_02_LD
usemtl initialShadingGroup
f 1/39/1 2/36/2 4/40/3 3/42/4
s 1
f 3/3/5 4/4/6 9/9/7
s off
f 5/44/8 6/41/9 8/35/10 7/37/11
s 2
f 22/23/12 23/27/13 24/10/14
s off
f 2/36/15 8/35/16 6/41/17 4/40/18
f 7/37/19 1/38/20 3/43/21 5/44/22
s 1
f 6/6/23 9/9/7 4/4/6
f 5/5/24 9/9/7 6/6/23
f 3/3/5 9/9/7 5/5/24
s 2
f 25/25/25 22/23/12 24/10/14
f 23/24/13 26/26/26 24/10/14
f 26/26/26 25/25/25 24/10/14
s 3
f 7/7/27 11/34/28 10/32/29 1/1/30
f 7/7/27 8/8/31 12/33/32 11/34/28
f 2/2/33 13/30/34 12/33/32 8/8/31
f 1/1/30 10/32/29 13/30/34 2/2/33
s 4
f 12/13/35 13/31/36 15/29/37 14/15/38
s 5
f 11/12/39 12/13/40 14/15/41 16/17/42
s 6
f 13/14/43 10/11/44 17/18/45 15/16/46
s 7
f 10/11/47 11/12/48 16/17/49 17/18/50
s 4
f 14/15/38 15/29/37 19/28/51 18/19/52
s 5
f 16/17/42 14/15/41 18/19/53 20/21/54
s 6
f 15/16/46 17/18/45 21/22/55 19/20/56
s 7
f 17/18/50 16/17/49 20/21/57 21/22/58
s 4
f 18/19/52 19/28/51 23/27/59 22/23/60
s 5
f 20/21/54 18/19/53 22/23/61 25/25/62
s 6
f 19/20/56 21/22/55 26/26/63 23/24/64
s 7
f 21/22/58 20/21/57 25/25/65 26/26/66
