# This file uses centimeters as units for non-parametric coordinates.

mtllib OBJ_Poutre_Bizeau_5x2x2_01.mtl
g default
v 20.000000 0.000005 5.000000
v 30.000000 0.000005 5.000000
v 20.000000 25.000000 5.000000
v 30.000000 15.000000 5.000000
v 20.000000 25.000000 -5.000000
v 30.000000 15.000000 -5.000000
v 20.000000 0.000005 -5.000000
v 30.000000 0.000005 -5.000000
vt 0.863160 0.944381
vt 0.814814 0.935757
vt 0.982765 0.870888
vt 0.917238 0.910696
vt 0.954106 0.843145
vt 0.917295 0.876890
vt 0.850551 0.899979
vt 0.863273 0.876771
vt 0.850571 0.935736
vt 0.863217 0.910576
vt 0.863330 0.842966
vt 0.863103 0.978187
vt 0.814793 0.899999
vt 0.940656 0.870892
vt 0.953878 0.978366
vt 0.982770 0.913831
vt 0.940661 0.913835
vt 0.953935 0.944561
vn 0.000000 0.000000 1.000000
vn 0.000000 0.000000 1.000000
vn 0.000000 0.000000 1.000000
vn 0.000000 0.000000 1.000000
vn 0.707107 0.707107 0.000000
vn 0.707107 0.707107 0.000000
vn 0.707107 0.707107 0.000000
vn 0.707107 0.707107 0.000000
vn 0.000000 0.000000 -1.000000
vn 0.000000 0.000000 -1.000000
vn 0.000000 0.000000 -1.000000
vn 0.000000 0.000000 -1.000000
vn 0.000000 -1.000000 0.000000
vn 0.000000 -1.000000 0.000000
vn 0.000000 -1.000000 0.000000
vn 0.000000 -1.000000 0.000000
vn 1.000000 0.000000 0.000000
vn 1.000000 0.000000 0.000000
vn 1.000000 0.000000 0.000000
vn 1.000000 0.000000 0.000000
vn -1.000000 0.000000 0.000000
vn -1.000000 0.000000 0.000000
vn -1.000000 0.000000 0.000000
vn -1.000000 0.000000 0.000000
s off
g BOIS_Bizeau_5x2x2_LD
usemtl initialShadingGroup
f 1/1/1 2/10/2 4/4/3 3/18/4
f 3/3/5 4/16/6 6/17/7 5/14/8
f 5/5/9 6/6/10 8/8/11 7/11/12
f 7/7/13 8/9/14 2/2/15 1/13/16
f 2/10/17 8/8/18 6/6/19 4/4/20
f 7/12/21 1/1/22 3/18/23 5/15/24
