# This file uses centimeters as units for non-parametric coordinates.

mtllib OBJ_Metal_Embout_Poutre_2x2_01.mtl
g default
v 21.000000 10.000000 53.000000
v 21.000000 10.000000 41.000000
v 11.000000 10.000000 53.000000
v 11.000000 10.000000 41.000000
v 10.000008 10.000000 42.000000
v 22.000008 10.000000 42.000000
v 21.000000 11.000000 42.000000
v 21.000000 10.000000 42.000000
v 11.000000 11.000000 42.000000
v 11.000000 10.000000 42.000000
v 11.000000 0.000000 42.000000
v 21.000000 0.000000 42.000000
v 10.000000 10.870014 52.870014
v 10.129990 10.870014 53.000000
v 10.129990 11.000000 52.870014
v 11.000000 10.870014 53.000000
v 11.000000 11.000000 52.870014
v 10.129990 11.000000 41.129986
v 10.129990 10.870014 41.000000
v 10.000000 10.870014 41.129986
v 11.000000 10.870014 41.000000
v 11.000000 11.000000 41.129986
v 10.129990 10.000000 53.000000
v 10.000000 10.000000 52.870014
v 22.000000 10.000000 52.870014
v 21.870010 10.000000 53.000000
v 21.870010 10.870014 53.000000
v 22.000000 10.870014 52.870014
v 21.870010 11.000000 52.870014
v 10.129990 11.000000 42.000000
v 10.000000 10.870014 42.000000
v 22.000000 10.870014 42.000000
v 21.870018 11.000000 42.000000
v 10.000000 10.000000 41.129986
v 10.129990 10.000000 41.000000
v 22.000000 10.870014 41.129986
v 21.870010 10.870014 41.000000
v 21.870010 11.000000 41.129986
v 21.870018 10.000000 41.000000
v 22.000000 10.000000 41.129985
v 21.000000 10.870014 53.000000
v 21.000000 11.000000 52.870014
v 21.000000 10.870014 41.000000
v 21.000000 11.000000 41.129986
v 10.000000 0.129986 41.129986
v 10.129990 0.129986 41.000000
v 10.129990 0.000000 41.129986
v 11.000000 0.000000 41.129986
v 11.000000 0.129986 41.000000
v 10.000008 0.129986 42.000000
v 10.129997 0.000000 42.000000
v 21.870010 0.000000 52.870014
v 22.000000 0.129986 52.870014
v 21.870010 0.129986 53.000000
v 22.000008 0.129986 42.000000
v 21.870018 0.000000 42.000000
v 21.000000 0.129986 53.000000
v 21.000000 0.000000 52.870014
v 10.129990 0.000000 52.870014
v 10.129990 0.129986 53.000000
v 10.000000 0.129986 52.870014
v 11.000000 0.000000 52.870014
v 11.000000 0.129986 53.000000
v 21.870018 0.000000 41.129986
v 21.870010 0.129986 41.000000
v 22.000000 0.129986 41.129986
v 21.000000 0.129986 41.000000
v 21.000000 0.000000 41.129986
vt 0.940436 0.234274
vt 0.904438 0.178743
vt 0.940196 0.178737
vt 0.902841 0.237758
vt 0.902841 0.276066
vt 0.900682 0.237758
vt 0.903929 0.236564
vt 0.904879 0.278476
vt 0.904879 0.276066
vt 0.903215 0.279980
vt 0.900968 0.278904
vt 0.900682 0.236564
vt 0.947412 0.237758
vt 0.947412 0.236564
vt 0.945198 0.237758
vt 0.941697 0.276066
vt 0.945198 0.276066
vt 0.945198 0.278476
vt 0.947412 0.278476
vt 0.942412 0.279980
vt 0.864729 0.280194
vt 0.865515 0.237758
vt 0.981723 0.236564
vt 0.985712 0.237474
vt 0.983030 0.237758
vt 0.981723 0.278476
vt 0.863838 0.237758
vt 0.865641 0.234537
vt 0.983030 0.278476
vt 0.906752 0.234281
vt 0.904879 0.237758
vt 0.907138 0.237758
vt 0.904660 0.279980
vt 0.864301 0.278476
vt 0.903929 0.317966
vt 0.859610 0.276066
vt 0.902841 0.278476
vt 0.940395 0.236564
vt 0.943651 0.236564
vt 0.940395 0.278476
vt 0.941697 0.278476
vt 0.941894 0.282457
vt 0.907138 0.236564
vt 0.907138 0.278476
vt 0.940846 0.279980
vt 0.907138 0.276066
vt 0.863838 0.276066
vt 0.861325 0.237758
vt 0.947412 0.276066
vt 0.900539 0.276066
vt 0.940395 0.276066
vt 0.941697 0.237758
vt 0.983030 0.276066
vt 0.940812 0.323242
vt 0.940395 0.237758
vt 0.985641 0.278476
vt 0.901278 0.282051
vt 0.904267 0.285096
vt 0.865372 0.278476
vt 0.865873 0.276066
vt 0.981723 0.237758
vt 0.981723 0.276066
vt 0.983299 0.234707
vt 0.865515 0.236564
vt 0.981723 0.279980
vt 0.940812 0.316882
vt 0.940812 0.285411
vt 0.859836 0.282410
vt 0.868680 0.178749
vt 0.904432 0.142985
vt 0.940190 0.142979
vt 0.975954 0.178731
vt 0.904445 0.218076
vt 0.940203 0.218070
vt 0.869152 0.218083
vt 0.868687 0.217618
vt 0.975960 0.217600
vt 0.975496 0.218064
vt 0.983070 0.282272
vt 0.903929 0.316319
vt 0.985641 0.276066
vt 0.940812 0.317966
vt 0.859514 0.278796
vt 0.903929 0.323069
vn 0.000000 -1.000000 0.000000
vn 0.000000 -1.000000 0.000000
vn 0.000000 -1.000000 0.000000
vn 0.000000 -1.000000 0.000000
vn -1.000000 0.000000 0.000000
vn -1.000000 0.000000 0.000000
vn -1.000000 0.000000 0.000000
vn 1.000000 0.000000 0.000000
vn 1.000000 0.000000 0.000000
vn 1.000000 0.000000 0.000000
vn 1.000000 0.000000 0.000000
vn 0.000000 0.000000 1.000000
vn 0.000000 0.000000 1.000000
vn 0.000000 0.000000 1.000000
vn 0.000000 0.000000 1.000000
vn -0.707096 0.707118 0.000000
vn -0.707096 0.707118 0.000000
vn -0.707096 0.707117 0.000000
vn -0.707096 0.707117 0.000000
vn -0.707097 0.000000 0.707117
vn -0.707097 0.000000 0.707117
vn -0.707097 0.000000 0.707117
vn -0.707097 0.000000 0.707117
vn 0.000000 0.707107 0.707107
vn 0.000000 0.707107 0.707107
vn 0.000000 0.707107 0.707107
vn -0.000000 0.707107 0.707107
vn -0.000000 0.707107 0.707107
vn -0.000000 0.707107 0.707107
vn -0.707096 0.707117 0.000000
vn -0.707096 0.707117 0.000000
vn 0.000000 0.707107 -0.707107
vn 0.000000 0.707107 -0.707107
vn -0.000000 0.707107 -0.707107
vn 0.000000 0.707107 -0.707107
vn -0.707097 0.000000 -0.707117
vn -0.707097 0.000000 -0.707117
vn -0.707097 0.000000 -0.707117
vn -0.707097 0.000000 -0.707117
vn -0.000000 0.707107 -0.707107
vn -0.000000 0.707107 -0.707107
vn -0.707097 0.000000 0.707117
vn -0.707097 0.000000 0.707117
vn 0.707097 0.000000 0.707117
vn 0.707097 0.000000 0.707117
vn 0.707097 0.000000 0.707117
vn 0.707097 0.000000 0.707117
vn 0.707097 0.000000 0.707117
vn 0.707097 0.000000 0.707117
vn 0.000000 0.707107 0.707107
vn 0.000000 0.707107 0.707107
vn 0.707107 0.707107 0.000000
vn 0.707107 0.707107 0.000000
vn 0.707107 0.707107 0.000000
vn 0.707107 0.707107 -0.000000
vn 0.707107 0.707107 -0.000003
vn 0.707107 0.707107 -0.000003
vn -0.707097 0.000000 -0.707117
vn -0.707097 0.000000 -0.707117
vn 0.707107 0.000003 -0.707107
vn 0.707107 0.000003 -0.707107
vn 0.707107 0.000000 -0.707107
vn 0.707107 0.000000 -0.707107
vn 0.000000 0.707107 -0.707107
vn 0.000000 0.707107 -0.707107
vn 0.707107 -0.000000 -0.707107
vn 0.707107 -0.000000 -0.707107
vn -0.707096 -0.707117 0.000006
vn -0.707096 -0.707117 0.000006
vn -0.707096 -0.707118 -0.000000
vn -0.707096 -0.707118 0.000000
vn 0.000000 -0.707107 -0.707107
vn 0.000000 -0.707107 -0.707107
vn 0.000000 -0.707107 -0.707107
vn -0.000000 -0.707107 -0.707107
vn -0.000000 -0.707107 -0.707107
vn -0.000000 -0.707107 -0.707107
vn -0.707096 -0.707118 -0.000000
vn -0.707096 -0.707118 -0.000000
vn 0.000000 -0.707107 0.707107
vn 0.000000 -0.707107 0.707107
vn 0.000000 -0.707107 0.707107
vn 0.000000 -0.707107 0.707107
vn 0.707097 -0.707117 0.000000
vn 0.707097 -0.707117 0.000000
vn 0.707098 -0.707116 0.000000
vn 0.707098 -0.707116 0.000000
vn 0.707107 -0.707107 -0.000003
vn 0.707107 -0.707107 -0.000003
vn 0.000000 -0.707107 0.707107
vn 0.000000 -0.707107 0.707107
vn 0.000000 -0.707107 0.707107
vn 0.000000 -0.707107 0.707107
vn 0.000000 -0.707107 -0.707107
vn 0.000000 -0.707107 -0.707107
vn 0.000000 0.000000 1.000000
vn 0.000000 0.000000 1.000000
vn 0.000000 0.000000 1.000000
vn 0.000001 0.000000 1.000000
vn 0.000000 1.000000 0.000000
vn 0.000000 1.000000 0.000000
vn 0.000000 1.000000 0.000000
vn 0.000000 1.000000 0.000000
vn 0.000001 0.000000 -1.000000
vn 0.000000 0.000000 -1.000000
vn -0.000000 0.000000 -1.000000
vn 0.000000 0.000000 -1.000000
vn 0.000000 -1.000000 0.000000
vn 0.000000 -1.000000 0.000000
vn 0.000000 -1.000000 0.000000
vn 0.000000 -1.000000 0.000000
vn 1.000000 0.000000 0.000001
vn 1.000000 0.000000 0.000000
vn 1.000000 0.000004 0.000000
vn 1.000000 0.000004 0.000000
vn -1.000000 -0.000000 0.000008
vn -1.000000 -0.000000 -0.000000
vn -1.000000 -0.000004 0.000000
vn -1.000000 -0.000004 0.000004
vn -0.000000 0.000000 1.000000
vn -0.000000 0.000000 1.000000
vn 0.000000 0.000000 1.000000
vn 0.000000 0.000000 1.000000
vn 0.000000 1.000000 0.000000
vn 0.000000 1.000000 0.000000
vn 0.000000 1.000000 0.000000
vn 0.000000 1.000000 0.000000
vn -0.000000 0.000000 -1.000000
vn -0.000000 0.000000 -1.000000
vn 0.000000 0.000000 -1.000000
vn 0.000000 0.000000 -1.000000
vn 0.000000 -1.000000 0.000000
vn 0.000000 -1.000000 0.000000
vn 0.000000 -1.000000 0.000000
vn 0.000000 -1.000000 0.000000
vn 0.000000 1.000000 0.000000
vn 0.000000 1.000000 0.000000
vn 0.000000 -1.000000 0.000000
vn 0.000000 -1.000000 0.000000
vn 1.000000 0.000000 -0.000008
vn 1.000000 0.000004 -0.000004
vn -1.000000 -0.000000 -0.000001
vn -1.000000 -0.000004 -0.000000
vn 0.000000 1.000000 0.000000
vn 0.000000 1.000000 0.000000
vn 0.000000 -1.000000 0.000000
vn 0.000000 -1.000000 0.000000
vn -0.000000 0.000000 -1.000000
vn 0.000000 0.000000 -1.000000
vn -1.000000 0.000000 0.000009
vn -1.000000 0.000000 -0.000000
vn 1.000000 0.000000 0.000001
vn 1.000000 0.000000 0.000000
vn 0.000000 0.000000 1.000000
vn 0.000000 0.000000 1.000000
vn 0.000000 0.000000 1.000000
vn 0.000000 0.000000 1.000000
vn -1.000000 0.000000 -0.000001
vn 0.000000 0.000000 -1.000000
vn -0.000000 0.000000 -1.000000
vn 1.000000 0.000000 -0.000009
vn -0.577339 0.577356 0.577356
vn -0.577339 0.577356 0.577356
vn -0.577339 0.577356 0.577356
vn -0.577339 0.577356 -0.577356
vn -0.577339 0.577356 -0.577356
vn -0.577339 0.577356 -0.577356
vn 0.577339 0.577356 0.577356
vn 0.577339 0.577356 0.577356
vn 0.577339 0.577356 0.577356
vn 0.577339 0.577356 -0.577356
vn 0.577339 0.577356 -0.577356
vn 0.577339 0.577356 -0.577356
vn -0.577339 -0.577356 -0.577356
vn -0.577339 -0.577356 -0.577356
vn -0.577339 -0.577356 -0.577356
vn 0.577339 -0.577356 0.577356
vn 0.577339 -0.577356 0.577356
vn 0.577339 -0.577356 0.577356
vn -0.577339 -0.577356 0.577356
vn -0.577339 -0.577356 0.577356
vn -0.577339 -0.577356 0.577356
vn 0.577349 -0.577333 -0.577369
vn 0.577349 -0.577333 -0.577369
vn 0.577349 -0.577333 -0.577369
vn -1.000000 0.000000 0.000000
vn -1.000000 0.000000 0.000000
vn 1.000000 0.000000 0.000000
s off
g METAL_Embout_Poteau_2x2_LD
usemtl initialShadingGroup
f 3/73/1 10/2/2 8/3/3 1/74/4
s 1
f 58/77/5 8/3/6 12/72/7
s 2
f 10/2/8 3/73/9 63/75/10 62/76/11
s off
f 8/3/12 10/2/13 11/70/14 12/71/15
s 3
f 13/4/16 15/31/17 30/9/18 31/5/19
s 4
f 14/7/20 13/4/21 24/6/22 23/12/23
s 5
f 15/31/24 14/7/25 16/43/26 17/32/27
f 17/32/27 16/43/26 41/38/28 42/55/29
s 3
f 18/8/30 20/37/31 31/5/19 30/9/18
s 6
f 19/10/32 18/8/33 22/44/34 21/33/35
s 7
f 20/37/36 19/10/37 35/57/38 34/11/39
s 6
f 21/33/35 22/44/34 44/40/40 43/45/41
s 4
f 23/12/23 24/6/22 61/22/42 60/64/43
s 8
f 25/13/44 26/14/45 54/23/46 53/61/47
f 26/14/45 25/13/44 28/15/48 27/39/49
s 5
f 27/39/50 29/52/51 42/55/29 41/38/28
s 9
f 29/52/52 28/15/53 32/17/54 33/16/55
f 33/16/55 32/17/54 36/18/56 38/41/57
s 7
f 34/11/39 35/57/38 46/21/58 45/59/59
s 10
f 37/20/60 36/18/61 40/19/62 39/42/63
s 6
f 38/41/64 37/20/65 43/45/41 44/40/40
s 10
f 39/42/63 40/19/62 66/26/66 65/65/67
s 11
f 45/59/68 47/34/69 51/47/70 50/60/71
s 12
f 47/34/72 46/21/73 49/68/74 48/83/75
f 48/35/75 49/80/74 67/66/76 68/82/77
s 11
f 50/60/71 51/47/70 59/27/78 61/22/79
s off
f 52/25/80 54/23/81 57/63/82 58/24/83
s 13
f 53/61/84 52/25/85 56/53/86 55/62/87
f 55/62/87 56/53/86 64/29/88 66/26/89
s off
f 60/64/90 59/27/91 62/48/92 63/28/93
s 12
f 65/65/94 64/29/95 68/56/77 67/79/76
s 14
f 23/12/96 3/30/97 16/43/98 14/7/99
s 15
f 15/31/100 17/32/101 9/46/102 30/9/103
s 16
f 19/10/104 21/33/105 4/58/106 35/57/107
s 17
f 47/34/108 48/83/109 11/36/110 51/47/111
s 18
f 25/13/112 6/49/113 32/17/114 28/15/115
s 19
f 34/11/116 5/50/117 31/5/118 20/37/119
s 14
f 41/38/120 1/1/121 26/14/122 27/39/123
s 15
f 44/40/124 7/51/125 33/16/126 38/41/127
s 16
f 2/67/128 43/45/129 37/20/130 39/42/131
s 17
f 52/25/132 58/24/133 12/81/134 56/53/135
s 14
f 16/43/98 3/30/97 1/1/121 41/38/120
s 15
f 22/44/136 9/46/102 7/51/125 44/40/124
s 16
f 4/58/106 21/33/105 43/45/129 2/67/128
s 15
f 30/9/103 9/46/102 22/44/136 18/8/137
s 17
f 51/47/111 11/36/110 62/48/138 59/27/139
s 18
f 32/17/114 6/49/113 40/19/140 36/18/141
s 19
f 31/5/118 5/50/117 24/6/142 13/4/143
s 15
f 33/16/126 7/51/125 42/55/144 29/52/145
s 17
f 56/53/135 12/81/134 68/56/146 64/29/147
s 15
f 7/51/125 9/46/102 17/32/101 42/55/144
s 17
f 12/54/134 11/84/110 48/35/109 68/82/146
s 16
f 35/57/107 4/58/106 49/68/148 46/21/149
s 19
f 5/50/117 34/11/116 45/59/150 50/60/151
s 18
f 6/49/113 25/13/112 53/61/152 55/62/153
s 14
f 26/14/122 1/1/121 57/63/154 54/23/155
f 3/30/97 23/12/96 60/64/156 63/28/157
s 19
f 24/6/142 5/50/117 50/60/151 61/22/158
s 16
f 2/67/128 39/42/131 65/65/159 67/79/160
s 18
f 40/19/140 6/49/113 55/62/153 66/26/161
s 16
f 4/58/106 2/67/128 67/66/160 49/80/148
s off
f 13/4/162 14/7/163 15/31/164
f 18/8/165 19/10/166 20/37/167
f 27/39/168 28/15/169 29/52/170
f 36/18/171 37/20/172 38/41/173
f 45/59/174 46/21/175 47/34/176
f 52/25/177 53/61/178 54/23/179
f 59/27/180 60/64/181 61/22/182
f 64/29/183 65/65/184 66/26/185
s 1
f 1/74/186 8/3/6 58/77/5 57/78/187
s 2
f 10/2/8 62/76/11 11/69/188
