# This file uses centimeters as units for non-parametric coordinates.

mtllib OBJ_Clou_Carre_01.mtl
g default
v 10.125000 5.250001 20.875000
v 11.875000 5.250001 20.875000
v 10.125000 5.500001 20.875000
v 11.875000 5.500001 20.875000
v 10.125000 5.500001 19.125000
v 11.875000 5.500001 19.125000
v 10.125000 5.250001 19.125000
v 11.875000 5.250001 19.125000
v 11.000000 5.750001 20.000000
v 10.687500 5.250001 20.312500
v 10.687500 5.250001 19.687500
v 11.312500 5.250001 19.687500
v 11.312500 5.250001 20.312500
v 11.312500 4.250001 19.687500
v 11.312500 4.250001 20.312500
v 10.687500 4.250001 19.687500
v 10.687500 4.250001 20.312500
v 11.312500 2.750001 19.687500
v 11.312500 2.750001 20.312500
v 10.687500 2.750001 19.687500
v 10.687500 2.750001 20.312500
v 11.312500 1.250001 19.687500
v 11.312500 1.250001 20.312500
v 11.000000 0.250001 20.000000
v 10.687500 1.250001 19.687500
v 10.687500 1.250001 20.312500
vt 0.990369 0.161101
vt 0.996627 0.161100
vt 0.990205 0.163055
vt 0.996587 0.163055
vt 0.990205 0.169436
vt 0.996587 0.169436
vt 0.990368 0.154844
vt 0.996626 0.154843
vt 0.993396 0.166245
vt 0.982737 0.170371
vt 0.980692 0.152598
vt 0.982989 0.152577
vt 0.985289 0.152584
vt 0.978422 0.152635
vt 0.985305 0.156198
vt 0.978442 0.156251
vt 0.983003 0.156174
vt 0.980707 0.156199
vt 0.985295 0.161606
vt 0.978420 0.161750
vt 0.982972 0.161495
vt 0.980659 0.161574
vt 0.984846 0.166897
vt 0.978908 0.167540
vt 0.982906 0.166539
vt 0.980917 0.166738
vt 0.986706 0.167791
vt 0.987588 0.161851
vt 0.987587 0.156249
vt 0.994615 0.159089
vt 0.987568 0.152604
vt 0.992380 0.159090
vt 0.994615 0.156854
vt 0.992380 0.156855
vt 0.975239 0.174139
vt 0.981497 0.174140
vt 0.968982 0.174139
vt 0.962724 0.174138
vt 0.987754 0.174140
vt 0.981497 0.173246
vt 0.975239 0.173245
vt 0.987754 0.173246
vt 0.962724 0.173244
vt 0.968982 0.173245
vn 0.000000 0.000000 1.000000
vn 0.000000 0.000000 1.000000
vn 0.000000 0.000000 1.000000
vn 0.000000 0.000000 1.000000
vn -0.140028 0.980196 0.140028
vn 0.140028 0.980196 0.140028
vn 0.000000 1.000000 0.000000
vn 0.000000 0.000000 -1.000000
vn 0.000000 0.000000 -1.000000
vn 0.000000 0.000000 -1.000000
vn 0.000000 0.000000 -1.000000
vn 0.646762 -0.404226 -0.646762
vn 0.646762 -0.404226 0.646762
vn 0.000000 -1.000000 0.000000
vn 1.000000 0.000000 0.000000
vn 1.000000 0.000000 0.000000
vn 1.000000 0.000000 0.000000
vn 1.000000 0.000000 0.000000
vn -1.000000 0.000000 0.000000
vn -1.000000 0.000000 0.000000
vn -1.000000 0.000000 0.000000
vn -1.000000 0.000000 0.000000
vn 0.140028 0.980196 -0.140028
vn -0.140028 0.980196 -0.140028
vn -0.646762 -0.404226 -0.646762
vn -0.646762 -0.404226 0.646762
vn 0.000000 -1.000000 0.000001
vn 0.000000 -1.000000 0.000001
vn 0.000000 -1.000000 0.000000
vn 0.000000 -1.000000 0.000000
vn 0.000000 -1.000000 0.000001
vn 0.000000 -1.000000 0.000001
vn 0.000000 -1.000000 0.000000
vn 0.000000 -1.000000 0.000000
vn 1.000000 0.000000 0.000000
vn 1.000000 0.000000 0.000000
vn 1.000000 0.000000 0.000000
vn 1.000000 0.000000 0.000000
vn 0.000000 0.000000 -1.000000
vn 0.000000 0.000000 -1.000000
vn 0.000000 0.000000 -1.000000
vn 0.000000 0.000000 -1.000000
vn 0.000000 0.000000 1.000000
vn 0.000000 0.000000 1.000000
vn 0.000000 0.000000 1.000000
vn 0.000000 0.000000 1.000000
vn -1.000000 0.000000 0.000000
vn -1.000000 0.000000 0.000000
vn -1.000000 0.000000 0.000000
vn -1.000000 0.000000 0.000000
vn 1.000000 0.000000 0.000000
vn 1.000000 0.000000 0.000000
vn 0.000000 0.000000 -1.000000
vn 0.000000 0.000000 -1.000000
vn 0.000000 0.000000 1.000000
vn 0.000000 0.000000 1.000000
vn -1.000000 0.000000 0.000000
vn -1.000000 0.000000 0.000000
vn 1.000000 0.000000 0.000000
vn 1.000000 0.000000 0.000000
vn 0.000000 0.000000 -1.000000
vn 0.000000 0.000000 -1.000000
vn 0.000000 0.000000 1.000000
vn 0.000000 0.000000 1.000000
vn -1.000000 0.000000 0.000000
vn -1.000000 0.000000 0.000000
s off
g CLOU_Carre_01_LD
usemtl initialShadingGroup
f 1/39/1 2/36/2 4/40/3 3/42/4
s 1
f 3/3/5 4/4/6 9/9/7
s off
f 5/44/8 6/41/9 8/35/10 7/37/11
s 2
f 22/23/12 23/27/13 24/10/14
s off
f 2/36/15 8/35/16 6/41/17 4/40/18
f 7/37/19 1/38/20 3/43/21 5/44/22
s 1
f 6/6/23 9/9/7 4/4/6
f 5/5/24 9/9/7 6/6/23
f 3/3/5 9/9/7 5/5/24
s 2
f 25/25/25 22/23/12 24/10/14
f 23/24/13 26/26/26 24/10/14
f 26/26/26 25/25/25 24/10/14
s 3
f 7/7/27 11/34/28 10/32/29 1/1/30
f 7/7/27 8/8/31 12/33/32 11/34/28
f 2/2/33 13/30/34 12/33/32 8/8/31
f 1/1/30 10/32/29 13/30/34 2/2/33
s 4
f 12/13/35 13/31/36 15/29/37 14/15/38
s 5
f 11/12/39 12/13/40 14/15/41 16/17/42
s 6
f 13/14/43 10/11/44 17/18/45 15/16/46
s 7
f 10/11/47 11/12/48 16/17/49 17/18/50
s 4
f 14/15/38 15/29/37 19/28/51 18/19/52
s 5
f 16/17/42 14/15/41 18/19/53 20/21/54
s 6
f 15/16/46 17/18/45 21/22/55 19/20/56
s 7
f 17/18/50 16/17/49 20/21/57 21/22/58
s 4
f 18/19/52 19/28/51 23/27/59 22/23/60
s 5
f 20/21/54 18/19/53 22/23/61 25/25/62
s 6
f 19/20/56 21/22/55 26/26/63 23/24/64
s 7
f 21/22/58 20/21/57 25/25/65 26/26/66
