# This file uses centimeters as units for non-parametric coordinates.

mtllib OBJ_Poutre_used_5x2x2_01.mtl
g default
v 203.554298 0.000000 4.077325
v 213.000000 0.000000 5.000000
v 203.000000 25.000000 5.000000
v 213.000000 25.000000 5.000000
v 203.000000 25.000000 -5.000000
v 213.000000 24.063061 -5.000000
v 203.000000 0.000000 -5.000000
v 213.000000 0.000000 -5.000000
v 203.000000 17.500000 5.524270
v 213.000000 17.500000 5.524270
v 213.000000 17.500000 -5.000000
v 202.639107 17.500000 -5.396407
v 205.408699 23.126385 1.000000
v 210.591301 23.126385 1.000000
v 213.175369 17.500000 1.000000
v 210.441055 2.822237 -1.225598
v 205.558945 2.822237 -1.225598
v 202.639572 17.500000 1.000000
v 203.000000 5.250000 5.000000
v 213.000000 5.250000 5.000000
v 213.175369 5.250000 -1.225598
v 213.000000 5.250000 -5.000000
v 203.000000 5.250000 -5.000000
v 203.000000 5.250000 -1.225598
v 203.000000 25.000000 2.579134
v 213.000000 25.000000 1.685309
v 213.000000 25.000000 0.338405
v 203.000000 25.000000 -0.509958
v 203.000000 0.000000 -0.431039
v 213.000000 0.000000 0.210000
v 213.000000 0.000000 -2.802856
v 203.000000 0.000000 -1.971762
vt 0.842486 0.693434
vt 0.706005 0.675875
vt 0.744791 0.791395
vt 0.754692 0.725344
vt 0.758104 0.805660
vt 0.760075 0.770352
vt 0.741938 0.725474
vt 0.845860 0.770446
vt 0.706258 0.723543
vt 0.844144 0.725556
vt 0.843048 0.804524
vt 0.841507 0.646462
vt 0.739866 0.677749
vt 0.744794 0.749655
vt 0.759973 0.646318
vt 0.709174 0.793445
vt 0.708995 0.748108
vt 0.755882 0.691639
vt 0.782265 0.691518
vt 0.781743 0.727943
vt 0.782920 0.766434
vt 0.785198 0.652378
vt 0.784423 0.804389
vt 0.758531 0.672788
vt 0.735500 0.774233
vt 0.717011 0.774431
vt 0.756344 0.745440
vt 0.780443 0.744718
vt 0.715934 0.704238
vt 0.843784 0.751721
vt 0.843473 0.668329
vt 0.733379 0.704238
vt 0.782061 0.674703
vt 0.824718 0.691468
vt 0.825406 0.728590
vt 0.829154 0.751718
vt 0.827297 0.766215
vt 0.826155 0.654889
vt 0.825315 0.802199
vt 0.829379 0.668726
vt 0.755176 0.683526
vt 0.744295 0.782772
vt 0.708494 0.781639
vt 0.753034 0.736109
vt 0.708342 0.767434
vt 0.753360 0.754915
vt 0.756576 0.661676
vt 0.744103 0.765658
vt 0.846922 0.679981
vt 0.742523 0.693761
vt 0.706725 0.692976
vt 0.846183 0.740465
vt 0.706682 0.715704
vt 0.846932 0.763552
vt 0.845754 0.656223
vt 0.742523 0.714669
vn 0.000000 0.000000 1.000000
vn 0.000000 0.000000 1.000000
vn 0.000000 0.069732 0.997566
vn 0.000000 0.069732 0.997566
vn -0.096478 0.995330 0.003239
vn -0.096480 0.995335 0.000679
vn 0.039740 0.998343 0.041625
vn 0.040639 0.998702 0.030698
vn 0.020729 0.027639 -0.999403
vn 0.020729 0.027639 -0.999403
vn 0.019930 -0.000000 -0.999801
vn 0.019926 -0.000127 -0.999802
vn 0.000000 -1.000000 0.000000
vn 0.000000 -1.000000 0.000000
vn 0.018805 -0.941410 0.336738
vn 0.020543 -0.929652 0.367865
vn 0.908740 0.417362 0.000460
vn 0.999980 0.005829 0.002521
vn 0.992133 0.024167 0.122837
vn -0.990957 0.070616 0.114093
vn -0.999815 0.002295 0.019072
vn -0.897221 0.441582 0.000925
vn -0.013271 -0.056035 0.998341
vn -0.013932 -0.056696 0.998294
vn 0.999858 -0.016635 -0.002784
vn 0.999404 0.000033 -0.034511
vn 0.999584 0.006637 -0.028079
vn 0.013699 -0.011183 -0.999844
vn 0.013774 -0.011244 -0.999842
vn -0.999736 -0.022982 0.000036
vn -0.999294 -0.032327 0.019165
vn -1.000000 0.001003 0.000045
vn -0.011256 0.981487 -0.191198
vn -0.012209 0.978185 -0.207376
vn 0.988982 0.026993 -0.145551
vn 0.999595 -0.006913 0.027612
vn 0.999565 0.000945 0.029488
vn 0.010974 -0.966941 -0.254766
vn 0.009442 -0.975636 -0.219192
vn 0.000000 -1.000000 0.000000
vn 0.000000 -1.000000 0.000000
vn -0.998874 -0.027894 0.038383
vn -0.999224 -0.007596 0.038639
vn -0.990473 0.058608 -0.124612
vn -0.047204 -0.089912 0.994831
vn -0.047204 -0.089912 0.994831
vn 0.999768 -0.014522 0.015916
vn 0.996099 -0.040575 -0.078365
vn 0.988664 -0.062450 0.136539
vn 0.999494 -0.012285 -0.029353
vn 0.000000 0.000000 -1.000000
vn 0.000000 0.000000 -1.000000
vn -1.000000 0.000002 0.000000
vn -0.987738 -0.021966 0.154567
vn -0.996559 -0.067446 -0.048178
vn -0.997251 -0.053272 0.051498
vn -0.998449 0.020346 0.051816
vn 0.000000 1.000000 0.000000
vn 0.000000 1.000000 0.000000
vn 0.999684 0.011448 0.022364
vn 0.999797 0.011695 -0.016430
vn 0.050596 0.994212 -0.094777
vn 0.050596 0.994212 -0.094777
vn -0.998846 0.048036 0.000043
vn -0.688267 -0.725457 0.000085
vn 0.121712 -0.992565 0.001160
vn 0.121675 -0.992554 -0.005571
vn 0.663946 -0.747781 0.000100
s 1
g BOIS_Poteau_Used_5x2x2_LD
usemtl initialShadingGroup
f 9/19/1 10/20/2 4/4/3 3/18/4
s 2
f 13/25/5 14/26/6 27/45/7 28/48/8
s 3
f 5/5/9 6/6/10 11/21/11 12/23/12
s 4
f 7/7/13 8/9/14 31/53/15 32/56/16
s 5
f 14/27/17 15/28/18 27/46/19
s 6
f 28/47/20 18/33/21 13/24/22
s 1
f 19/34/23 20/35/24 10/20/2 9/19/1
s 5
f 15/28/18 21/36/25 22/37/26 11/21/27
s 3
f 12/23/12 11/21/11 22/37/28 23/39/29
s 6
f 23/38/30 24/40/31 18/33/21 12/22/32
s 2
f 25/42/33 26/43/34 14/26/6 13/25/5
s 5
f 26/44/35 15/28/18 14/27/17
f 20/35/36 21/36/25 15/28/18 10/20/37
s 4
f 29/50/38 30/51/39 2/2/40 1/13/41
s 6
f 18/33/21 24/40/31 19/34/42 9/19/43
f 13/24/22 18/33/21 25/41/44
s 1
f 1/1/45 2/10/46 20/35/24 19/34/23
s 5
f 2/10/47 30/52/48 21/36/25 20/35/36
f 22/37/26 21/36/25 31/54/49 8/8/50
s 3
f 23/39/29 22/37/28 8/8/51 7/11/52
s 6
f 7/12/53 32/55/54 24/40/31 23/38/30
f 19/34/42 24/40/31 29/49/55 1/1/56
f 25/41/44 18/33/21 9/19/43 3/18/57
s 2
f 3/3/58 4/16/59 26/43/34 25/42/33
s 5
f 10/20/37 15/28/18 26/44/35 4/4/60
f 27/46/19 15/28/18 11/21/27 6/6/61
s 2
f 28/48/8 27/45/7 6/17/62 5/14/63
s 6
f 12/22/32 18/33/21 28/47/20 5/15/64
f 29/49/55 24/40/31 17/31/65
s 4
f 17/32/66 16/29/67 30/51/39 29/50/38
s 5
f 21/36/25 30/52/48 16/30/68
f 31/54/49 21/36/25 16/30/68
s 4
f 32/56/16 31/53/15 16/29/67 17/32/66
s 6
f 24/40/31 32/55/54 17/31/65
