# This file uses centimeters as units for non-parametric coordinates.

mtllib OBJ_Poutre_used_20x4x2_01.mtl
g default
v 236.000000 1.167803 10.000000
v 241.000000 1.167803 10.000000
v 236.000000 99.364517 10.000000
v 241.000000 99.364517 10.000000
v 236.785789 100.000000 -10.000000
v 241.000000 100.000000 -10.000000
v 236.000000 0.000000 -10.000000
v 241.000000 0.000000 -10.000000
v 237.064293 80.000000 7.363965
v 241.000000 80.000000 10.000000
v 241.000000 80.000000 -10.000000
v 235.548950 80.000000 -10.000000
v 236.000000 100.000000 0.000000
v 241.000000 100.000000 0.000000
v 241.000000 80.000000 0.000000
v 239.411354 2.085393 -2.742567
v 237.588646 2.085393 -2.742567
v 235.548950 80.000000 0.000000
v 236.342896 64.000000 10.000000
v 241.000000 64.000000 10.000000
v 241.000000 64.000000 0.000000
v 241.000000 64.000000 -9.363082
v 236.342896 64.000000 -9.363082
v 236.342896 64.000000 0.000000
v 236.000000 6.400000 10.000000
v 241.000000 6.400000 10.000000
v 241.000000 6.400002 -2.614323
v 241.000000 6.400002 -10.000000
v 236.000000 6.400002 -10.000000
v 236.406342 6.400000 -2.614323
v 235.263947 0.000000 -0.139854
v 240.999992 0.000000 0.351511
v 241.000000 0.000000 -5.705150
v 236.000000 0.000000 -6.124397
v 241.000000 35.736946 -1.282791
v 241.000000 35.736946 10.000000
v 236.174644 35.736946 10.000000
v 236.374023 35.736946 -1.282791
v 238.024826 35.736946 -4.449831
v 239.149818 35.736946 -4.449831
v 235.677872 37.245800 -7.102322
v 241.000000 36.481819 -9.643845
v 241.000000 34.963638 -9.707678
v 236.158302 32.991798 -9.705960
vt 0.936514 0.394591
vt 0.944136 0.496073
vt 0.977349 0.453706
vt 0.578324 0.423644
vt 0.577809 0.499107
vt 0.577295 0.476790
vt 0.986524 0.470747
vt 0.940720 0.478494
vt 0.986669 0.495989
vt 0.936355 0.418743
vt 0.939211 0.504291
vt 0.938355 0.331672
vt 0.943989 0.470831
vt 0.974492 0.400137
vt 0.576443 0.343814
vt 0.959197 0.453710
vt 0.959192 0.400140
vt 0.577524 0.397415
vt 0.648761 0.396690
vt 0.648980 0.419027
vt 0.649569 0.472761
vt 0.648518 0.345715
vt 0.650047 0.499007
vt 0.575912 0.370805
vt 0.977347 0.426815
vt 0.959194 0.426819
vt 0.576672 0.450271
vt 0.649334 0.445939
vt 0.970405 0.487950
vt 0.935983 0.454593
vt 0.934904 0.356235
vt 0.970458 0.478749
vt 0.648581 0.375263
vt 0.707574 0.396255
vt 0.707516 0.420326
vt 0.707479 0.446366
vt 0.707396 0.471753
vt 0.705985 0.345376
vt 0.707588 0.496441
vt 0.706864 0.372256
vt 0.917429 0.393787
vt 0.917556 0.420207
vt 0.918525 0.453574
vt 0.917642 0.473972
vt 0.916935 0.340333
vt 0.916773 0.500658
vt 0.918203 0.360299
vt 0.941551 0.369659
vt 0.962034 0.466890
vt 0.961371 0.495859
vt 0.941533 0.442123
vt 0.979210 0.496080
vt 0.941431 0.467650
vt 0.939895 0.341667
vt 0.979793 0.470829
vt 0.810448 0.451380
vt 0.810827 0.420383
vt 0.810736 0.394061
vt 0.810386 0.363127
vt 0.810633 0.349519
vt 0.809815 0.478911
vt 0.810300 0.471461
vt 0.802006 0.348125
vt 0.802959 0.496707
vt 0.801850 0.469390
vt 0.819238 0.470768
vt 0.823328 0.341478
vt 0.822577 0.496104
vn -0.556476 -0.006056 0.830842
vn -0.472779 -0.005992 0.881161
vn -0.074123 -0.019139 0.997065
vn 0.000000 0.999398 0.034696
vn 0.000000 0.999454 0.033056
vn 0.000000 1.000000 0.000000
vn 0.000000 1.000000 0.000000
vn 0.000000 0.000000 -1.000000
vn 0.000000 0.000000 -1.000000
vn 0.000000 -0.018131 -0.999836
vn 0.000000 -0.018210 -0.999834
vn 0.000000 -1.000000 0.000000
vn 0.000000 -1.000000 0.000000
vn -0.010548 -0.985099 0.171662
vn -0.009938 -0.986784 0.161736
vn 1.000000 0.000000 0.000000
vn 1.000000 0.000000 0.000000
vn 1.000000 0.000000 0.000000
vn 1.000000 0.000000 0.000000
vn -0.999749 0.002410 -0.022259
vn -0.999576 -0.001787 0.029057
vn -0.999002 0.035982 -0.026452
vn -0.998342 0.042127 -0.039224
vn -0.019872 0.005784 0.999786
vn 1.000000 -0.000000 0.000000
vn 1.000000 -0.000000 0.000000
vn -0.158955 -0.035274 -0.986655
vn -0.158062 -0.035302 -0.986798
vn -0.999540 -0.014666 0.026535
vn -0.999896 -0.011150 0.009139
vn 0.000000 0.997987 0.063421
vn 0.000000 0.997987 0.063421
vn 1.000000 0.000000 0.000000
vn 1.000000 0.000000 0.000000
vn 1.000000 -0.000000 0.000000
vn 0.000370 -0.999676 0.025449
vn 0.000501 -0.999727 0.023346
vn -0.005374 -0.993069 0.117411
vn -0.005374 -0.993069 0.117411
vn -0.999986 -0.004532 -0.002576
vn -0.979437 -0.009085 0.201547
vn -0.999717 0.013009 0.019902
vn 0.000000 0.000000 1.000000
vn 0.000000 0.000000 1.000000
vn 0.000000 0.000000 1.000000
vn 0.000000 0.000000 1.000000
vn 1.000000 0.000000 -0.000000
vn 0.999998 -0.001925 -0.000053
vn 1.000000 0.000034 -0.000726
vn 1.000000 -0.000000 0.000000
vn 0.863056 0.030319 -0.504197
vn 0.999932 0.011617 -0.001066
vn -0.675951 0.009518 -0.736885
vn -0.662372 0.218630 -0.716565
vn -0.037065 0.115631 -0.992601
vn -0.018722 0.060228 -0.998009
vn -0.999291 0.008286 0.036731
vn -0.999988 0.004566 -0.001806
vn -0.828816 0.355566 -0.432016
vn -0.999835 0.002833 -0.017966
vn -0.999946 0.010299 0.001351
vn -0.999632 0.018573 -0.019779
vn 0.000000 0.000000 1.000000
vn 0.000000 0.000000 1.000000
vn 0.000000 0.000000 1.000000
vn 0.000000 0.000000 1.000000
vn 1.000000 0.000000 -0.000000
vn 0.999382 -0.014783 -0.031901
vn 1.000000 0.000000 0.000000
vn 0.998646 -0.022623 0.046846
vn 1.000000 0.000001 0.000000
vn -0.001864 0.008600 -0.999961
vn -0.001866 0.008607 -0.999961
vn 0.000000 0.000000 -1.000000
vn 0.000000 0.000000 -1.000000
vn -0.999111 0.021831 0.036051
vn -0.997249 0.002247 0.074088
vn -0.999243 0.004040 0.038692
vn -0.995711 0.087378 -0.030413
vn -0.994975 0.099694 0.009301
vn -0.960944 -0.260549 -0.093279
vn 0.005662 -0.997524 -0.070095
vn 0.003397 -0.999406 -0.034286
vn 0.938365 -0.345626 0.003850
vn -0.998994 0.002476 0.044775
vn -0.254752 -0.075088 -0.964087
vn -0.255713 -0.082586 -0.963219
vn 0.999941 -0.010856 -0.000967
s 1
g BOIS_Planche_Used_20x4x1_LD
usemtl initialShadingGroup
f 9/19/1 10/20/2 3/18/3
s 2
f 13/25/4 14/26/5 6/17/6 5/14/7
s 3
f 5/5/8 6/6/9 11/21/10 12/23/11
s 4
f 7/7/12 8/9/13 33/52/14 34/55/15
s 5
f 14/27/16 15/28/17 11/21/18 6/6/19
s 6
f 12/22/20 18/33/21 13/24/22 5/15/23
s 1
f 19/34/24 10/20/2 9/19/1
s 5
f 15/28/17 21/36/25 22/37/26 11/21/18
s 3
f 12/23/11 11/21/10 22/37/27 23/39/28
s 6
f 23/38/29 24/40/30 18/33/21 12/22/20
s 2
f 3/3/31 4/16/32 14/26/5 13/25/4
s 5
f 10/20/33 15/28/17 14/27/16 4/4/34
f 20/35/35 21/36/25 15/28/17 10/20/33
s 4
f 31/49/36 32/50/37 2/2/38 1/13/39
s 6
f 18/33/21 19/34/40 9/19/41
f 3/18/42 18/33/21 9/19/41
s 1
f 25/41/43 26/42/44 36/57/45 37/58/46
s 5
f 26/42/47 27/43/48 35/56/49 36/57/50
f 40/62/51 35/56/49 43/66/52
s 3
f 39/61/53 40/62/54 43/66/55 44/68/56
s 6
f 44/67/57 38/59/58 39/60/59
f 37/58/60 38/59/58 30/47/61 25/41/62
f 13/24/22 18/33/21 3/18/42
f 18/33/21 24/40/30 19/34/40
s 1
f 19/34/24 20/35/63 10/20/2
f 3/18/3 10/20/2 4/4/64
f 1/1/65 2/10/66 26/42/44 25/41/43
s 5
f 2/10/67 32/51/68 27/43/48 26/42/47
f 28/44/69 27/43/48 33/53/70 8/8/71
s 3
f 29/46/72 28/44/73 8/8/74 7/11/75
s 6
f 7/12/76 34/54/77 30/47/61 29/45/78
f 25/41/62 30/47/61 31/48/79 1/1/80
f 31/48/79 30/47/61 17/31/81
s 4
f 17/32/82 16/29/83 32/50/37 31/49/36
s 5
f 27/43/48 32/51/68 16/30/84
f 33/53/70 27/43/48 16/30/84
s 4
f 34/55/15 33/52/14 16/29/83 17/32/82
s 6
f 30/47/61 34/54/77 17/31/81
s 5
f 36/57/50 35/56/49 21/36/25 20/35/35
s 1
f 37/58/46 36/57/45 20/35/63 19/34/24
s 6
f 19/34/40 24/40/30 38/59/58 37/58/60
f 39/60/59 38/59/58 41/63/85
s 3
f 41/64/86 42/65/87 40/62/54 39/61/53
s 5
f 42/65/88 35/56/49 40/62/51
s 6
f 41/63/85 38/59/58 24/40/30 23/38/29
s 3
f 23/39/28 22/37/27 42/65/87 41/64/86
s 5
f 22/37/26 21/36/25 35/56/49 42/65/88
f 43/66/52 35/56/49 27/43/48 28/44/69
s 3
f 44/68/56 43/66/55 28/44/73 29/46/72
s 6
f 29/45/78 30/47/61 38/59/58 44/67/57
