# This file uses centimeters as units for non-parametric coordinates.

mtllib OBJ_Poutre_5x2x2_01.mtl
g default
v 145.000000 0.000000 5.000000
v 155.000000 0.000000 5.000000
v 145.000000 25.000000 5.000000
v 155.000000 25.000000 5.000000
v 145.000000 25.000000 -5.000000
v 155.000000 25.000000 -5.000000
v 145.000000 0.000000 -5.000000
v 155.000000 0.000000 -5.000000
vt 0.697221 0.678385
vt 0.558048 0.710326
vt 0.592901 0.714498
vt 0.601184 0.711670
vt 0.601175 0.778242
vt 0.601179 0.744956
vt 0.593785 0.674547
vt 0.697211 0.744957
vt 0.593806 0.710305
vt 0.697216 0.711671
vt 0.697207 0.778244
vt 0.697225 0.645098
vt 0.558027 0.674568
vt 0.557143 0.714505
vt 0.601193 0.645097
vt 0.592908 0.750255
vt 0.557150 0.750262
vt 0.601189 0.678383
vn 0.000000 0.000000 1.000000
vn 0.000000 0.000000 1.000000
vn 0.000000 0.000000 1.000000
vn 0.000000 0.000000 1.000000
vn 0.000000 1.000000 0.000000
vn 0.000000 1.000000 0.000000
vn 0.000000 1.000000 0.000000
vn 0.000000 1.000000 0.000000
vn 0.000000 0.000000 -1.000000
vn 0.000000 0.000000 -1.000000
vn 0.000000 0.000000 -1.000000
vn 0.000000 0.000000 -1.000000
vn 0.000000 -1.000000 0.000000
vn 0.000000 -1.000000 0.000000
vn 0.000000 -1.000000 0.000000
vn 0.000000 -1.000000 0.000000
vn 1.000000 0.000000 0.000000
vn 1.000000 0.000000 0.000000
vn 1.000000 0.000000 0.000000
vn 1.000000 0.000000 0.000000
vn -1.000000 0.000000 0.000000
vn -1.000000 0.000000 0.000000
vn -1.000000 0.000000 0.000000
vn -1.000000 0.000000 0.000000
s off
g BOIS_Poteau_5x2x2_LD
usemtl initialShadingGroup
f 1/1/1 2/10/2 4/4/3 3/18/4
f 3/3/5 4/16/6 6/17/7 5/14/8
f 5/5/9 6/6/10 8/8/11 7/11/12
f 7/7/13 8/9/14 2/2/15 1/13/16
f 2/10/17 8/8/18 6/6/19 4/4/20
f 7/12/21 1/1/22 3/18/23 5/15/24
