# This file uses centimeters as units for non-parametric coordinates.

mtllib OBJ_Plancher_01.mtl
g default
v -154.999995 -1.000001 75.000000
v -5.000000 -1.000001 75.000000
v -154.999995 -1.000001 -75.000000
v -5.000000 -1.000001 -75.000000
v -154.999995 -1.000001 60.599942
v -154.999995 -1.000001 60.000000
v -154.999995 -1.000001 59.400058
v -5.000000 -1.000001 59.400058
v -5.000000 -1.000001 60.000000
v -5.000000 -1.000001 60.599942
v -154.999995 -1.000001 45.599942
v -154.999995 -1.000001 45.000000
v -154.999995 -1.000001 44.400058
v -5.000000 -1.000001 44.400058
v -5.000000 -1.000001 45.000000
v -5.000000 -1.000001 45.599942
v -154.999995 -1.000001 30.599940
v -154.999995 -1.000001 30.000000
v -154.999995 -1.000001 29.400060
v -5.000000 -1.000001 29.400060
v -5.000000 -1.000001 30.000000
v -5.000000 -1.000001 30.599940
v -154.999995 -1.000001 15.599941
v -154.999995 -1.000001 15.000000
v -154.999995 -1.000001 14.400061
v -5.000000 -1.000001 14.400061
v -5.000000 -1.000001 15.000000
v -5.000000 -1.000001 15.599941
v -154.999995 -1.000001 0.599940
v -154.999995 -1.000001 0.000000
v -154.999995 -1.000001 -0.599940
v -5.000000 -1.000001 -0.599940
v -5.000000 -1.000001 0.000000
v -5.000000 -1.000001 0.599940
v -154.999995 -1.000001 -14.400061
v -154.999995 -1.000001 -15.000000
v -154.999995 -1.000001 -15.599941
v -5.000000 -1.000001 -15.599941
v -5.000000 -1.000001 -15.000000
v -5.000000 -1.000001 -14.400061
v -154.999995 -1.000001 -29.400060
v -154.999995 -1.000001 -30.000000
v -154.999995 -1.000001 -30.599940
v -5.000000 -1.000001 -30.599940
v -5.000000 -1.000001 -30.000000
v -5.000000 -1.000001 -29.400060
v -154.999995 -1.000001 -44.400058
v -154.999995 -1.000001 -45.000000
v -154.999995 -1.000001 -45.599942
v -5.000000 -1.000001 -45.599942
v -5.000000 -1.000001 -45.000000
v -5.000000 -1.000001 -44.400058
v -154.999995 -1.000001 -59.400058
v -154.999995 -1.000001 -60.000000
v -154.999995 -1.000001 -60.599942
v -5.000000 -1.000001 -60.599942
v -5.000000 -1.000001 -60.000000
v -5.000000 -1.000001 -59.400058
v -153.888879 -1.000001 75.000000
v -153.888879 -1.000001 -75.000000
v -153.888879 0.000000 59.400058
v -153.888879 0.000000 60.599942
v -153.888879 0.000000 44.400058
v -153.888879 0.000000 45.599942
v -153.888879 0.000000 29.400060
v -153.888879 0.000000 30.599940
v -153.888879 0.000000 14.400061
v -153.888879 0.000000 15.599941
v -153.888879 0.000000 -0.599940
v -153.888879 0.000000 0.599940
v -153.888879 0.000000 -15.599941
v -153.888879 0.000000 -14.400061
v -153.888879 0.000000 -30.599940
v -153.888879 0.000000 -29.400060
v -153.888879 0.000000 -45.599937
v -153.888879 0.000000 -44.400058
v -153.888879 0.000000 -60.599937
v -153.888879 0.000000 -59.400058
v -153.888879 -1.000001 60.000000
v -153.888879 -1.000001 45.000000
v -153.888879 -1.000001 30.000000
v -153.888879 -1.000001 15.000000
v -153.888879 -1.000001 0.000000
v -153.888879 -1.000001 -15.000000
v -153.888879 -1.000001 -30.000000
v -153.888879 -1.000001 -45.000000
v -153.888879 -1.000001 -60.000000
v -6.111116 0.000000 60.599942
v -6.111116 0.000000 45.599937
v -6.111116 0.000000 30.599940
v -6.111116 0.000000 15.599941
v -6.111116 0.000000 0.599940
v -6.111116 0.000000 -14.400061
v -6.111116 0.000000 -29.400060
v -6.111116 0.000000 -44.400058
v -6.111116 0.000000 -59.400058
v -6.111116 -1.000001 75.000000
v -6.111116 -1.000001 -75.000000
v -6.111116 0.000000 59.400058
v -6.111116 0.000000 44.400058
v -6.111116 0.000000 29.400060
v -6.111116 0.000000 14.400061
v -6.111116 0.000000 -0.599940
v -6.111116 0.000000 -15.599941
v -6.111116 0.000000 -30.599940
v -6.111116 0.000000 -45.599937
v -6.111116 0.000000 -60.599942
v -6.111116 -1.000001 60.000000
v -6.111116 -1.000001 45.000000
v -6.111116 -1.000001 30.000000
v -6.111116 -1.000001 15.000000
v -6.111116 -1.000001 0.000000
v -6.111116 -1.000001 -15.000000
v -6.111116 -1.000001 -30.000000
v -6.111116 -1.000001 -45.000000
v -6.111116 -1.000001 -60.000000
v -154.999995 -1.000001 -74.000001
v -5.000000 -1.000001 -74.000001
v -153.888879 0.000001 -74.000001
v -6.111116 0.000001 -74.000001
v -154.999995 -1.000001 74.000001
v -5.000000 -1.000001 74.000001
v -153.888879 0.000001 74.000001
v -6.111116 0.000001 74.000001
vt 0.010730 0.248536
vt 0.552405 0.248556
vt 0.011864 0.302138
vt 0.551305 0.308079
vt 0.011999 0.359611
vt 0.551183 0.365687
vt 0.012089 0.417244
vt 0.551103 0.423320
vt 0.012181 0.474886
vt 0.551018 0.480948
vt 0.012276 0.532532
vt 0.550930 0.538572
vt 0.012377 0.590181
vt 0.550834 0.596193
vt 0.012489 0.647836
vt 0.550725 0.653807
vt 0.012616 0.705494
vt 0.550716 0.768816
vt 0.551798 0.822186
vt 0.011810 0.822841
vt 0.550610 0.711401
vt 0.012675 0.763111
vt 0.011991 0.308239
vt 0.551376 0.301967
vt 0.012126 0.365855
vt 0.551256 0.359446
vt 0.012216 0.423494
vt 0.551174 0.417073
vt 0.012308 0.481137
vt 0.551090 0.474702
vt 0.012403 0.538783
vt 0.551003 0.532327
vt 0.012505 0.596433
vt 0.550908 0.589947
vt 0.012619 0.654088
vt 0.550801 0.647563
vt 0.012747 0.711739
vt 0.550686 0.705170
vt 0.012790 0.769236
vt 0.550690 0.762731
vt 0.012098 0.305179
vt 0.551170 0.305006
vt 0.012235 0.362737
vt 0.551047 0.362561
vt 0.012325 0.420374
vt 0.550966 0.420191
vt 0.012417 0.478016
vt 0.550882 0.477820
vt 0.012512 0.535662
vt 0.550794 0.535444
vt 0.012614 0.593312
vt 0.550698 0.593065
vt 0.012727 0.650966
vt 0.550591 0.650680
vt 0.012855 0.708622
vt 0.550475 0.708281
vt 0.012905 0.766190
vt 0.550520 0.765783
vt 0.015154 0.247879
vt 0.016274 0.823453
vt 0.017130 0.309198
vt 0.017066 0.300931
vt 0.017265 0.366838
vt 0.017257 0.358576
vt 0.017354 0.424477
vt 0.017349 0.416215
vt 0.017446 0.482119
vt 0.017441 0.473856
vt 0.017542 0.539765
vt 0.017536 0.531502
vt 0.017644 0.597415
vt 0.017637 0.589151
vt 0.017758 0.655070
vt 0.017749 0.646805
vt 0.017885 0.712731
vt 0.017876 0.704465
vt 0.017897 0.770390
vt 0.017936 0.762120
vt 0.016668 0.305066
vt 0.016819 0.362705
vt 0.016909 0.420343
vt 0.017001 0.477985
vt 0.017096 0.535631
vt 0.017197 0.593281
vt 0.017310 0.650935
vt 0.017438 0.708595
vt 0.017483 0.766249
vt 0.546173 0.300743
vt 0.546001 0.358379
vt 0.545918 0.416011
vt 0.545834 0.473639
vt 0.545746 0.531264
vt 0.545652 0.588885
vt 0.545545 0.646501
vt 0.545430 0.704112
vt 0.545426 0.761730
vt 0.547971 0.247894
vt 0.547372 0.822842
vt 0.546165 0.309014
vt 0.546043 0.366645
vt 0.545962 0.424276
vt 0.545878 0.481904
vt 0.545789 0.539528
vt 0.545693 0.597149
vt 0.545585 0.654764
vt 0.545472 0.712374
vt 0.545504 0.769995
vt 0.546600 0.304883
vt 0.546464 0.362514
vt 0.546383 0.420145
vt 0.546299 0.477774
vt 0.546211 0.535398
vt 0.546115 0.593019
vt 0.546008 0.650634
vt 0.545893 0.708245
vt 0.545905 0.765861
vt 0.011504 0.818846
vt 0.552015 0.818211
vt 0.016823 0.818434
vt 0.546808 0.817814
vt 0.010510 0.252515
vt 0.552630 0.252536
vt 0.015719 0.252896
vt 0.547423 0.252923
vn -0.373382 0.829740 0.414871
vn -0.373382 0.829740 0.414871
vn -0.373382 0.829740 0.414871
vn -0.373382 0.829740 0.414871
vn -0.668963 0.743296 0.000000
vn -0.668963 0.743296 0.000000
vn -0.668963 0.743296 0.000000
vn -0.668963 0.743296 0.000000
vn -0.668963 0.743296 0.000000
vn -0.668963 0.743296 0.000000
vn -0.668963 0.743296 0.000000
vn -0.668963 0.743296 0.000000
vn -0.668963 0.743296 0.000000
vn -0.668963 0.743296 0.000000
vn -0.668963 0.743296 0.000000
vn -0.668963 0.743296 0.000000
vn -0.668965 0.743294 0.000000
vn -0.668965 0.743294 0.000000
vn -0.668965 0.743294 0.000000
vn -0.668965 0.743294 0.000000
vn -0.668965 0.743294 0.000000
vn -0.668965 0.743294 0.000000
vn -0.668965 0.743294 0.000000
vn -0.668965 0.743294 0.000000
vn -0.668963 0.743296 0.000000
vn -0.668963 0.743296 0.000000
vn -0.668963 0.743296 0.000000
vn -0.668963 0.743296 0.000000
vn -0.668963 0.743296 0.000000
vn -0.668963 0.743296 0.000000
vn -0.668963 0.743296 0.000000
vn -0.668963 0.743296 0.000000
vn -0.668963 0.743296 0.000000
vn -0.668963 0.743296 0.000000
vn -0.668963 0.743296 0.000000
vn -0.668963 0.743296 0.000000
vn -0.668963 0.743296 0.000000
vn -0.668963 0.743296 0.000000
vn -0.668963 0.743296 0.000000
vn -0.668963 0.743296 0.000000
vn -0.326715 0.726035 0.605087
vn -0.326715 0.726035 0.605087
vn -0.326715 0.726035 0.605087
vn -0.326715 0.726035 0.605087
vn -0.326715 0.726035 -0.605087
vn -0.326715 0.726035 -0.605087
vn -0.326715 0.726035 -0.605087
vn -0.326715 0.726035 -0.605087
vn -0.326718 0.726034 0.605086
vn -0.326718 0.726034 0.605086
vn -0.326718 0.726034 0.605086
vn -0.326718 0.726034 0.605087
vn -0.326718 0.726034 -0.605086
vn -0.326718 0.726034 -0.605086
vn -0.326718 0.726034 -0.605087
vn -0.326718 0.726034 -0.605086
vn -0.326716 0.726033 0.605089
vn -0.326716 0.726033 0.605089
vn -0.326716 0.726033 0.605089
vn -0.326716 0.726034 0.605089
vn -0.326713 0.726034 -0.605089
vn -0.326713 0.726034 -0.605089
vn -0.326713 0.726034 -0.605089
vn -0.326713 0.726034 -0.605089
vn -0.326714 0.726033 0.605091
vn -0.326714 0.726033 0.605091
vn -0.326714 0.726033 0.605091
vn -0.326714 0.726033 0.605091
vn -0.326714 0.726034 -0.605089
vn -0.326714 0.726034 -0.605089
vn -0.326714 0.726034 -0.605089
vn -0.326714 0.726034 -0.605089
vn -0.326714 0.726034 0.605089
vn -0.326714 0.726034 0.605089
vn -0.326714 0.726034 0.605089
vn -0.326714 0.726034 0.605089
vn -0.326714 0.726034 -0.605089
vn -0.326714 0.726034 -0.605089
vn -0.326714 0.726034 -0.605089
vn -0.326714 0.726034 -0.605089
vn -0.326714 0.726034 0.605089
vn -0.326714 0.726034 0.605089
vn -0.326714 0.726034 0.605089
vn -0.326714 0.726034 0.605089
vn -0.326714 0.726033 -0.605091
vn -0.326714 0.726033 -0.605091
vn -0.326714 0.726033 -0.605091
vn -0.326714 0.726033 -0.605091
vn -0.326713 0.726034 0.605089
vn -0.326713 0.726034 0.605089
vn -0.326713 0.726034 0.605089
vn -0.326713 0.726034 0.605089
vn -0.326716 0.726033 -0.605089
vn -0.326716 0.726033 -0.605089
vn -0.326716 0.726034 -0.605089
vn -0.326716 0.726033 -0.605089
vn -0.326713 0.726034 0.605089
vn -0.326713 0.726034 0.605089
vn -0.326713 0.726034 0.605089
vn -0.326713 0.726034 0.605089
vn -0.326718 0.726034 -0.605086
vn -0.326718 0.726034 -0.605086
vn -0.326718 0.726034 -0.605087
vn -0.326718 0.726034 -0.605086
vn -0.326716 0.726033 0.605089
vn -0.326716 0.726033 0.605089
vn -0.326716 0.726033 0.605089
vn -0.326716 0.726033 0.605089
vn -0.326715 0.726035 -0.605087
vn -0.326715 0.726035 -0.605087
vn -0.326715 0.726035 -0.605087
vn -0.326715 0.726035 -0.605087
vn 0.000000 1.000000 -0.000000
vn 0.000000 1.000000 -0.000000
vn 0.000000 1.000000 -0.000000
vn 0.000000 1.000000 -0.000000
vn 0.000000 1.000000 0.000000
vn 0.000000 1.000000 0.000000
vn 0.000000 1.000000 0.000000
vn 0.000000 1.000000 0.000000
vn 0.000000 1.000000 0.000000
vn 0.000000 1.000000 0.000000
vn 0.000000 1.000000 0.000000
vn 0.000000 1.000000 0.000000
vn 0.000000 1.000000 0.000000
vn 0.000000 1.000000 0.000000
vn 0.000000 1.000000 0.000000
vn 0.000000 1.000000 0.000000
vn 0.000000 1.000000 0.000000
vn 0.000000 1.000000 0.000000
vn 0.000000 1.000000 0.000000
vn 0.000000 1.000000 0.000000
vn 0.000000 1.000000 0.000000
vn 0.000000 1.000000 0.000000
vn 0.000000 1.000000 0.000000
vn 0.000000 1.000000 0.000000
vn 0.000000 1.000000 0.000000
vn 0.000000 1.000000 0.000000
vn 0.000000 1.000000 0.000000
vn 0.000000 1.000000 0.000000
vn 0.000000 1.000000 0.000000
vn 0.000000 1.000000 0.000000
vn 0.000000 1.000000 0.000000
vn 0.000000 1.000000 0.000000
vn 0.000000 1.000000 0.000000
vn 0.000000 1.000000 0.000000
vn 0.000000 1.000000 0.000000
vn 0.000000 1.000000 0.000000
vn 0.000000 0.707106 -0.707108
vn 0.000000 0.707106 -0.707108
vn 0.000000 0.707106 -0.707108
vn 0.000000 0.707106 -0.707108
vn 0.000000 0.514459 0.857515
vn 0.000000 0.514459 0.857515
vn 0.000000 0.514459 0.857515
vn 0.000000 0.514459 0.857515
vn 0.000000 0.514459 -0.857515
vn 0.000000 0.514459 -0.857515
vn 0.000000 0.514459 -0.857515
vn 0.000000 0.514459 -0.857515
vn 0.000000 0.514459 0.857515
vn 0.000000 0.514459 0.857515
vn 0.000000 0.514459 0.857515
vn 0.000000 0.514459 0.857515
vn 0.000000 0.514458 -0.857516
vn 0.000000 0.514458 -0.857516
vn 0.000000 0.514458 -0.857516
vn 0.000000 0.514458 -0.857516
vn 0.000000 0.514458 0.857516
vn 0.000000 0.514458 0.857516
vn 0.000000 0.514458 0.857516
vn 0.000000 0.514458 0.857516
vn 0.000000 0.514458 -0.857516
vn 0.000000 0.514458 -0.857516
vn 0.000000 0.514458 -0.857516
vn 0.000000 0.514458 -0.857516
vn 0.000000 0.514457 0.857516
vn 0.000000 0.514457 0.857516
vn 0.000000 0.514457 0.857516
vn 0.000000 0.514457 0.857516
vn 0.000000 0.514458 -0.857515
vn 0.000000 0.514458 -0.857515
vn 0.000000 0.514458 -0.857515
vn 0.000000 0.514458 -0.857515
vn 0.000000 0.514458 0.857516
vn 0.000000 0.514458 0.857516
vn 0.000000 0.514458 0.857516
vn 0.000000 0.514458 0.857516
vn 0.000000 0.514458 -0.857516
vn 0.000000 0.514458 -0.857516
vn 0.000000 0.514458 -0.857516
vn 0.000000 0.514458 -0.857516
vn 0.000000 0.514458 0.857515
vn 0.000000 0.514458 0.857515
vn 0.000000 0.514458 0.857515
vn 0.000000 0.514458 0.857515
vn 0.000000 0.514457 -0.857516
vn 0.000000 0.514457 -0.857516
vn 0.000000 0.514457 -0.857516
vn 0.000000 0.514457 -0.857516
vn 0.000000 0.514458 0.857516
vn 0.000000 0.514458 0.857516
vn 0.000000 0.514458 0.857516
vn 0.000000 0.514458 0.857516
vn 0.000000 0.514458 -0.857516
vn 0.000000 0.514458 -0.857516
vn 0.000000 0.514458 -0.857516
vn 0.000000 0.514458 -0.857516
vn 0.000000 0.514456 0.857517
vn 0.000000 0.514456 0.857517
vn 0.000000 0.514456 0.857517
vn 0.000000 0.514456 0.857517
vn 0.000000 0.514459 -0.857515
vn 0.000000 0.514459 -0.857515
vn 0.000000 0.514459 -0.857515
vn 0.000000 0.514459 -0.857515
vn 0.000000 0.514458 0.857516
vn 0.000000 0.514458 0.857516
vn 0.000000 0.514458 0.857516
vn 0.000000 0.514458 0.857516
vn 0.000000 0.514459 -0.857515
vn 0.000000 0.514459 -0.857515
vn 0.000000 0.514459 -0.857515
vn 0.000000 0.514459 -0.857515
vn 0.668963 0.743296 -0.000000
vn 0.668963 0.743296 -0.000000
vn 0.668963 0.743296 -0.000000
vn 0.668963 0.743296 -0.000000
vn 0.668963 0.743295 0.000000
vn 0.668963 0.743295 0.000000
vn 0.668963 0.743295 0.000000
vn 0.668963 0.743295 0.000000
vn 0.668965 0.743294 0.000000
vn 0.668965 0.743294 0.000000
vn 0.668965 0.743294 0.000000
vn 0.668965 0.743294 0.000000
vn 0.668965 0.743294 0.000000
vn 0.668965 0.743294 0.000000
vn 0.668965 0.743294 0.000000
vn 0.668965 0.743294 0.000000
vn 0.668963 0.743296 0.000000
vn 0.668963 0.743296 0.000000
vn 0.668963 0.743296 0.000000
vn 0.668963 0.743296 0.000000
vn 0.668963 0.743296 0.000000
vn 0.668963 0.743296 0.000000
vn 0.668963 0.743296 0.000000
vn 0.668963 0.743296 0.000000
vn 0.668965 0.743294 0.000000
vn 0.668965 0.743294 0.000000
vn 0.668965 0.743294 0.000000
vn 0.668965 0.743294 0.000000
vn 0.668965 0.743294 0.000000
vn 0.668965 0.743294 0.000000
vn 0.668965 0.743294 0.000000
vn 0.668965 0.743294 0.000000
vn 0.668963 0.743296 0.000000
vn 0.668963 0.743296 0.000000
vn 0.668963 0.743296 0.000000
vn 0.668963 0.743296 0.000000
vn 0.373382 0.829740 -0.414871
vn 0.373382 0.829740 -0.414871
vn 0.373382 0.829740 -0.414871
vn 0.373382 0.829740 -0.414871
vn 0.326715 0.726035 0.605087
vn 0.326715 0.726035 0.605087
vn 0.326715 0.726035 0.605087
vn 0.326715 0.726035 0.605087
vn 0.326715 0.726035 -0.605087
vn 0.326715 0.726035 -0.605087
vn 0.326715 0.726035 -0.605087
vn 0.326715 0.726035 -0.605087
vn 0.326718 0.726034 0.605087
vn 0.326718 0.726034 0.605086
vn 0.326718 0.726034 0.605086
vn 0.326718 0.726034 0.605086
vn 0.326713 0.726034 -0.605089
vn 0.326713 0.726034 -0.605089
vn 0.326713 0.726034 -0.605089
vn 0.326713 0.726034 -0.605089
vn 0.326716 0.726034 0.605089
vn 0.326716 0.726033 0.605089
vn 0.326716 0.726033 0.605089
vn 0.326716 0.726033 0.605089
vn 0.326713 0.726034 -0.605089
vn 0.326713 0.726034 -0.605089
vn 0.326713 0.726034 -0.605089
vn 0.326713 0.726034 -0.605089
vn 0.326714 0.726033 0.605091
vn 0.326714 0.726033 0.605091
vn 0.326714 0.726033 0.605091
vn 0.326714 0.726033 0.605091
vn 0.326714 0.726034 -0.605089
vn 0.326714 0.726034 -0.605089
vn 0.326714 0.726034 -0.605089
vn 0.326714 0.726034 -0.605089
vn 0.326714 0.726034 0.605089
vn 0.326714 0.726034 0.605089
vn 0.326714 0.726034 0.605089
vn 0.326714 0.726034 0.605089
vn 0.326714 0.726034 -0.605089
vn 0.326714 0.726034 -0.605089
vn 0.326714 0.726034 -0.605089
vn 0.326714 0.726034 -0.605089
vn 0.326714 0.726034 0.605089
vn 0.326714 0.726034 0.605089
vn 0.326714 0.726034 0.605089
vn 0.326714 0.726034 0.605089
vn 0.326714 0.726033 -0.605091
vn 0.326714 0.726033 -0.605091
vn 0.326714 0.726033 -0.605091
vn 0.326714 0.726033 -0.605091
vn 0.326713 0.726034 0.605089
vn 0.326713 0.726034 0.605089
vn 0.326713 0.726034 0.605089
vn 0.326713 0.726034 0.605089
vn 0.326716 0.726033 -0.605089
vn 0.326716 0.726034 -0.605089
vn 0.326716 0.726033 -0.605089
vn 0.326716 0.726033 -0.605089
vn 0.326713 0.726034 0.605089
vn 0.326713 0.726034 0.605089
vn 0.326713 0.726034 0.605089
vn 0.326713 0.726034 0.605089
vn 0.326718 0.726034 -0.605086
vn 0.326718 0.726034 -0.605087
vn 0.326718 0.726034 -0.605086
vn 0.326718 0.726034 -0.605086
vn 0.326715 0.726035 0.605087
vn 0.326715 0.726035 0.605087
vn 0.326715 0.726035 0.605087
vn 0.326715 0.726035 0.605087
vn 0.326715 0.726035 -0.605087
vn 0.326715 0.726035 -0.605087
vn 0.326715 0.726035 -0.605087
vn 0.326715 0.726035 -0.605087
vn -0.373382 0.829740 -0.414871
vn -0.373382 0.829740 -0.414871
vn -0.373382 0.829740 -0.414871
vn -0.373382 0.829740 -0.414871
vn 0.000000 1.000000 0.000000
vn 0.000000 1.000000 0.000000
vn 0.000000 1.000000 0.000000
vn 0.000000 1.000000 0.000000
vn 0.668963 0.743296 0.000000
vn 0.668963 0.743296 0.000000
vn 0.668963 0.743296 0.000000
vn 0.668963 0.743296 0.000000
vn -0.668965 0.743294 -0.000000
vn -0.668965 0.743294 -0.000000
vn -0.668965 0.743294 -0.000000
vn -0.668965 0.743294 -0.000000
vn 0.000000 0.707106 0.707108
vn 0.000000 0.707106 0.707108
vn 0.000000 0.707106 0.707108
vn 0.000000 0.707106 0.707108
vn 0.373382 0.829740 0.414871
vn 0.373382 0.829740 0.414871
vn 0.373382 0.829740 0.414871
vn 0.373382 0.829740 0.414871
s off
g BOIS_Plancher_150x150_LD
usemtl initialShadingGroup
f 1/1/1 59/59/2 123/123/3 121/121/4
f 7/23/5 61/61/6 64/64/7 11/5/8
f 13/25/9 63/63/10 66/66/11 17/7/12
f 19/27/13 65/65/14 68/68/15 23/9/16
f 25/29/17 67/67/18 70/70/19 29/11/20
f 31/31/21 69/69/22 72/72/23 35/13/24
f 37/33/25 71/71/26 74/74/27 41/15/28
f 43/35/29 73/73/30 76/76/31 47/17/32
f 49/37/33 75/75/34 78/78/35 53/22/36
f 55/39/37 77/77/38 119/119/39 117/117/40
f 7/23/41 6/41/42 79/79/43 61/61/44
f 6/41/45 5/3/46 62/62/47 79/79/48
f 13/25/49 12/43/50 80/80/51 63/63/52
f 12/43/53 11/5/54 64/64/55 80/80/56
f 19/27/57 18/45/58 81/81/59 65/65/60
f 18/45/61 17/7/62 66/66/63 81/81/64
f 25/29/65 24/47/66 82/82/67 67/67/68
f 24/47/69 23/9/70 68/68/71 82/82/72
f 31/31/73 30/49/74 83/83/75 69/69/76
f 30/49/77 29/11/78 70/70/79 83/83/80
f 37/33/81 36/51/82 84/84/83 71/71/84
f 36/51/85 35/13/86 72/72/87 84/84/88
f 43/35/89 42/53/90 85/85/91 73/73/92
f 42/53/93 41/15/94 74/74/95 85/85/96
f 49/37/97 48/55/98 86/86/99 75/75/100
f 48/55/101 47/17/102 76/76/103 86/86/104
f 55/39/105 54/57/106 87/87/107 77/77/108
f 54/57/109 53/22/110 78/78/111 87/87/112
f 62/62/113 123/123/114 124/124/115 88/88/116
f 64/64/117 61/61/118 99/99/119 89/89/120
f 66/66/121 63/63/122 100/100/123 90/90/124
f 68/68/125 65/65/126 101/101/127 91/91/128
f 70/70/129 67/67/130 102/102/131 92/92/132
f 72/72/133 69/69/134 103/103/135 93/93/136
f 74/74/137 71/71/138 104/104/139 94/94/140
f 76/76/141 73/73/142 105/105/143 95/95/144
f 78/78/145 75/75/146 106/106/147 96/96/148
f 60/60/149 119/119/150 120/120/151 98/98/152
f 61/61/153 79/79/154 108/108/155 99/99/156
f 79/79/157 62/62/158 88/88/159 108/108/160
f 63/63/161 80/80/162 109/109/163 100/100/164
f 80/80/165 64/64/166 89/89/167 109/109/168
f 65/65/169 81/81/170 110/110/171 101/101/172
f 81/81/173 66/66/174 90/90/175 110/110/176
f 67/67/177 82/82/178 111/111/179 102/102/180
f 82/82/181 68/68/182 91/91/183 111/111/184
f 69/69/185 83/83/186 112/112/187 103/103/188
f 83/83/189 70/70/190 92/92/191 112/112/192
f 71/71/193 84/84/194 113/113/195 104/104/196
f 84/84/197 72/72/198 93/93/199 113/113/200
f 73/73/201 85/85/202 114/114/203 105/105/204
f 85/85/205 74/74/206 94/94/207 114/114/208
f 75/75/209 86/86/210 115/115/211 106/106/212
f 86/86/213 76/76/214 95/95/215 115/115/216
f 77/77/217 87/87/218 116/116/219 107/107/220
f 87/87/221 78/78/222 96/96/223 116/116/224
f 88/88/225 124/124/226 122/122/227 10/24/228
f 89/89/229 99/99/230 8/4/231 16/26/232
f 90/90/233 100/100/234 14/6/235 22/28/236
f 91/91/237 101/101/238 20/8/239 28/30/240
f 92/92/241 102/102/242 26/10/243 34/32/244
f 93/93/245 103/103/246 32/12/247 40/34/248
f 94/94/249 104/104/250 38/14/251 46/36/252
f 95/95/253 105/105/254 44/16/255 52/38/256
f 96/96/257 106/106/258 50/21/259 58/40/260
f 98/98/261 120/120/262 118/118/263 4/19/264
f 99/99/265 108/108/266 9/42/267 8/4/268
f 108/108/269 88/88/270 10/24/271 9/42/272
f 100/100/273 109/109/274 15/44/275 14/6/276
f 109/109/277 89/89/278 16/26/279 15/44/280
f 101/101/281 110/110/282 21/46/283 20/8/284
f 110/110/285 90/90/286 22/28/287 21/46/288
f 102/102/289 111/111/290 27/48/291 26/10/292
f 111/111/293 91/91/294 28/30/295 27/48/296
f 103/103/297 112/112/298 33/50/299 32/12/300
f 112/112/301 92/92/302 34/32/303 33/50/304
f 104/104/305 113/113/306 39/52/307 38/14/308
f 113/113/309 93/93/310 40/34/311 39/52/312
f 105/105/313 114/114/314 45/54/315 44/16/316
f 114/114/317 94/94/318 46/36/319 45/54/320
f 106/106/321 115/115/322 51/56/323 50/21/324
f 115/115/325 95/95/326 52/38/327 51/56/328
f 107/107/329 116/116/330 57/58/331 56/18/332
f 116/116/333 96/96/334 58/40/335 57/58/336
f 117/117/337 119/119/338 60/60/339 3/20/340
f 120/120/341 119/119/342 77/77/343 107/107/344
f 118/118/345 120/120/346 107/107/347 56/18/348
f 121/121/349 123/123/350 62/62/351 5/3/352
f 124/124/353 123/123/354 59/59/355 97/97/356
f 122/122/357 124/124/358 97/97/359 2/2/360
